G04 Layer_Color=16711935*
%FSAX44Y44*%
%MOMM*%
G71*
G01*
G75*
%ADD25R,1.0000X1.0000*%
%ADD26C,1.0000*%
%ADD27R,1.5000X1.5000*%
%ADD28C,1.5000*%
%ADD29R,1.5000X1.5000*%
%ADD30R,1.0000X1.0000*%
%ADD31C,1.5240*%
%ADD33R,1.5000X2.0000*%
%ADD34R,1.3000X1.5000*%
%ADD45O,0.7000X1.2000*%
D25*
X00939730Y00815406D02*
D03*
D26*
X00939730Y00828107D02*
D03*
Y00840807D02*
D03*
Y00853506D02*
D03*
Y00866207D02*
D03*
D27*
X00566539Y00771357D02*
D03*
X00601351Y01030716D02*
D03*
D28*
X00617339Y00771357D02*
D03*
X00591939D02*
D03*
X00575951Y01030716D02*
D03*
X00550551D02*
D03*
X00525151D02*
D03*
X01188095Y00813380D02*
D03*
Y00838780D02*
D03*
Y00864180D02*
D03*
Y00889580D02*
D03*
Y00914980D02*
D03*
Y00940380D02*
D03*
Y00965780D02*
D03*
D29*
X01188095Y00991180D02*
D03*
D30*
X00743509Y00763412D02*
D03*
Y00776112D02*
D03*
X00730809D02*
D03*
Y00763412D02*
D03*
X00718109D02*
D03*
Y00776112D02*
D03*
X00705409D02*
D03*
Y00763412D02*
D03*
X00692709D02*
D03*
Y00776112D02*
D03*
X00970545Y01051040D02*
D03*
Y01063740D02*
D03*
X00983245D02*
D03*
Y01051040D02*
D03*
X00957845D02*
D03*
X00945145D02*
D03*
Y01063740D02*
D03*
X00957845D02*
D03*
X00932445D02*
D03*
Y01051040D02*
D03*
D31*
X00636364Y00791719D02*
D03*
X00636513Y01031886D02*
D03*
X01151364Y00791719D02*
D03*
Y01031719D02*
D03*
D33*
X00931264Y00765219D02*
D03*
X00971264D02*
D03*
D34*
X00850464Y00859718D02*
D03*
X00875864D02*
D03*
X00901264D02*
D03*
X00825064D02*
D03*
X00901264Y01003718D02*
D03*
X00875864D02*
D03*
X00850464D02*
D03*
X00825064D02*
D03*
D45*
X01021790Y01037029D02*
D03*
Y01059279D02*
D03*
X01114790Y01037029D02*
D03*
Y01059279D02*
D03*
M02*
