G04 Layer_Color=8421504*
%FSAX44Y44*%
%MOMM*%
G71*
G01*
G75*
%ADD10R,0.4000X1.3000*%
%ADD11R,0.6000X1.0000*%
%ADD12R,1.0000X0.6000*%
%ADD13O,0.5500X1.7500*%
%ADD14O,1.7500X0.5500*%
%ADD15R,1.3000X1.6500*%
%ADD16R,1.0000X0.3000*%
%ADD17R,1.1000X0.5500*%
G04:AMPARAMS|DCode=18|XSize=0.95mm|YSize=0.85mm|CornerRadius=0.2125mm|HoleSize=0mm|Usage=FLASHONLY|Rotation=0.000|XOffset=0mm|YOffset=0mm|HoleType=Round|Shape=RoundedRectangle|*
%AMROUNDEDRECTD18*
21,1,0.9500,0.4250,0,0,0.0*
21,1,0.5250,0.8500,0,0,0.0*
1,1,0.4250,0.2625,-0.2125*
1,1,0.4250,-0.2625,-0.2125*
1,1,0.4250,-0.2625,0.2125*
1,1,0.4250,0.2625,0.2125*
%
%ADD18ROUNDEDRECTD18*%
%ADD19R,1.2000X1.1000*%
%ADD20O,0.5500X1.3500*%
%ADD21O,1.3500X0.5500*%
%ADD24O,1.0000X1.5000*%
D10*
X01055290Y01037779D02*
D03*
X01061790D02*
D03*
X01068290Y01037779D02*
D03*
X01074790Y01037779D02*
D03*
X01081290D02*
D03*
D11*
X00560920Y00805643D02*
D03*
X00575920D02*
D03*
X00542743Y00815940D02*
D03*
Y00835118D02*
D03*
Y00797634D02*
D03*
X00527743Y00815940D02*
D03*
Y00835118D02*
D03*
Y00797634D02*
D03*
X00627967Y00892077D02*
D03*
X00643046Y00874036D02*
D03*
X00658046D02*
D03*
X00642967Y00892077D02*
D03*
X00636314Y00938930D02*
D03*
X00651314D02*
D03*
X00587775Y01000053D02*
D03*
X00572774D02*
D03*
X00557847D02*
D03*
X00542847D02*
D03*
X00769753Y00862253D02*
D03*
X00784753D02*
D03*
X00814799Y00910730D02*
D03*
X00799799D02*
D03*
X00872951Y00920920D02*
D03*
X00887952D02*
D03*
X00878588Y00938155D02*
D03*
X00893588D02*
D03*
X00922382Y00944520D02*
D03*
X00907382D02*
D03*
X00988997Y00984184D02*
D03*
X01003997D02*
D03*
X01058191Y00982441D02*
D03*
X01073191D02*
D03*
X01087394Y00982440D02*
D03*
X01102394D02*
D03*
X00918871Y00862104D02*
D03*
X00918551Y00837920D02*
D03*
X00903871Y00862104D02*
D03*
X00903551Y00837920D02*
D03*
X00976793Y00781888D02*
D03*
Y00764236D02*
D03*
X00991793D02*
D03*
Y00781888D02*
D03*
D12*
X00792332Y00766972D02*
D03*
Y00781973D02*
D03*
X00852647Y00782242D02*
D03*
Y00767242D02*
D03*
X00779847Y00878052D02*
D03*
Y00893052D02*
D03*
X00836371Y00908834D02*
D03*
X00857783Y00909125D02*
D03*
Y00924125D02*
D03*
X00836371Y00923834D02*
D03*
X00939290Y00944430D02*
D03*
Y00959430D02*
D03*
X01007721Y00780725D02*
D03*
Y00765725D02*
D03*
X01026408Y00763546D02*
D03*
Y00778546D02*
D03*
X01080456Y00778382D02*
D03*
Y00763383D02*
D03*
X01140874Y00816880D02*
D03*
Y00831880D02*
D03*
X01162074Y00830913D02*
D03*
Y00815913D02*
D03*
X01162101Y00850310D02*
D03*
Y00865310D02*
D03*
X01141116Y00861047D02*
D03*
Y00846047D02*
D03*
X00641930Y00923003D02*
D03*
Y00908003D02*
D03*
X00622542Y00917658D02*
D03*
Y00932657D02*
D03*
X00604315Y00932867D02*
D03*
Y00917868D02*
D03*
X00566535Y00837646D02*
D03*
Y00822646D02*
D03*
X00639979Y00829980D02*
D03*
Y00814979D02*
D03*
D13*
X00979975Y00806999D02*
D03*
X00987975D02*
D03*
X00995975D02*
D03*
X01003975D02*
D03*
X01011975D02*
D03*
X01019975D02*
D03*
X01027975D02*
D03*
X01035975D02*
D03*
X01043975D02*
D03*
X01051975D02*
D03*
X01059975D02*
D03*
X01067975D02*
D03*
X01075975D02*
D03*
X01083975D02*
D03*
X01091975D02*
D03*
X01099975D02*
D03*
Y00959999D02*
D03*
X01091975D02*
D03*
X01083975D02*
D03*
X01075975D02*
D03*
X01067975D02*
D03*
X01059975D02*
D03*
X01051975D02*
D03*
X01043975D02*
D03*
X01035975D02*
D03*
X01027975D02*
D03*
X01019975D02*
D03*
X01011975D02*
D03*
X01003975D02*
D03*
X00995975D02*
D03*
X00987975D02*
D03*
X00979975D02*
D03*
D14*
X00963475Y00823499D02*
D03*
Y00831499D02*
D03*
Y00839499D02*
D03*
Y00847499D02*
D03*
Y00855499D02*
D03*
Y00863499D02*
D03*
Y00871499D02*
D03*
Y00879499D02*
D03*
Y00887499D02*
D03*
Y00895499D02*
D03*
Y00903499D02*
D03*
Y00911499D02*
D03*
Y00919499D02*
D03*
Y00927499D02*
D03*
Y00935499D02*
D03*
Y00943499D02*
D03*
X01116475Y00831499D02*
D03*
Y00823499D02*
D03*
Y00839499D02*
D03*
Y00847499D02*
D03*
Y00855499D02*
D03*
Y00863499D02*
D03*
Y00871499D02*
D03*
Y00879499D02*
D03*
Y00887499D02*
D03*
Y00895499D02*
D03*
Y00903499D02*
D03*
Y00911499D02*
D03*
Y00919499D02*
D03*
Y00927499D02*
D03*
Y00935499D02*
D03*
Y00943499D02*
D03*
D15*
X00544650Y00855950D02*
D03*
Y00946450D02*
D03*
D16*
X00525650Y00878700D02*
D03*
Y00883700D02*
D03*
Y00888700D02*
D03*
Y00893700D02*
D03*
Y00898700D02*
D03*
Y00903700D02*
D03*
Y00908700D02*
D03*
Y00913700D02*
D03*
Y00918700D02*
D03*
Y00923700D02*
D03*
D17*
X00619499Y00806571D02*
D03*
Y00816071D02*
D03*
Y00825571D02*
D03*
X00595499D02*
D03*
Y00806571D02*
D03*
D18*
X01046454Y00765023D02*
D03*
Y00776523D02*
D03*
X01060954D02*
D03*
Y00765023D02*
D03*
D19*
X00809907Y00765866D02*
D03*
Y00783646D02*
D03*
X00833788D02*
D03*
Y00765836D02*
D03*
D20*
X00813970Y00809063D02*
D03*
X00821970D02*
D03*
X00829970D02*
D03*
X00837970D02*
D03*
X00845970D02*
D03*
X00853970D02*
D03*
X00861970D02*
D03*
X00869970D02*
D03*
Y00892063D02*
D03*
X00861970D02*
D03*
X00853970D02*
D03*
X00845970D02*
D03*
X00837970D02*
D03*
X00829970D02*
D03*
X00821970D02*
D03*
X00813970D02*
D03*
D21*
X00800470Y00822563D02*
D03*
Y00830563D02*
D03*
Y00838563D02*
D03*
Y00846563D02*
D03*
Y00854563D02*
D03*
Y00862563D02*
D03*
Y00870563D02*
D03*
Y00878563D02*
D03*
X00883470Y00830563D02*
D03*
Y00822563D02*
D03*
Y00838563D02*
D03*
Y00846563D02*
D03*
Y00854563D02*
D03*
Y00862563D02*
D03*
Y00870563D02*
D03*
Y00878563D02*
D03*
D24*
X01021790Y01037029D02*
D03*
Y01059279D02*
D03*
X01114790Y01037029D02*
D03*
Y01059279D02*
D03*
M02*
