M48
;Layer_Color=9474304
;FILE_FORMAT=4:4
METRIC
T6F00S00C0.2000
%
G90
G05
T06
G00X01123140Y01072316
M15
G01X01123140Y01081318
G01X01013390Y01081318
G01X01013390Y01072068
G01X01123140Y01072316
M16
G00X01101459Y01050774
M15
G01X01101606Y01050830
G01X01101727Y01050904
G01X01101830Y01050990
G01X01101913Y01051090
G01X01101990Y01051217
G01X01102024Y01051315
G01X01102048Y01051487
G01X01102044Y01051657
G01X01102002Y01051813
G01X01101934Y01051942
G01X01101767Y01052144
G01X01101540Y01052779
G01X01101540Y01074779
G01X01082540Y01074779
G01X01082540Y01052779
G01X01082322Y01052156
G01X01082146Y01051935
G01X01082084Y01051814
G01X01082036Y01051643
G01X01082026Y01051503
G01X01082045Y01051367
G01X01082089Y01051228
G01X01082159Y01051100
G01X01082247Y01050990
G01X01082363Y01050898
G01X01082495Y01050827
G01X01082646Y01050781
G01X01082784Y01050764
G01X01082936Y01050779
G01X01083088Y01050826
G01X01083220Y01050898
G01X01083400Y01051048
G01X01084040Y01051279
G01X01100040Y01051279
G01X01100678Y01051050
G01X01100884Y01050878
G01X01101004Y01050817
G01X01101186Y01050768
G01X01101325Y01050756
G01X01101459Y01050774
M16
G00X01053959Y01050774
M15
G01X01054106Y01050830
G01X01054227Y01050904
G01X01054330Y01050990
G01X01054413Y01051090
G01X01054490Y01051217
G01X01054524Y01051315
G01X01054548Y01051487
G01X01054544Y01051657
G01X01054502Y01051813
G01X01054434Y01051942
G01X01054267Y01052144
G01X01054040Y01052779
G01X01054040Y01074779
G01X01035040Y01074779
G01X01035040Y01052779
G01X01034822Y01052156
G01X01034646Y01051935
G01X01034584Y01051814
G01X01034536Y01051643
G01X01034526Y01051503
G01X01034545Y01051367
G01X01034589Y01051228
G01X01034659Y01051100
G01X01034747Y01050990
G01X01034863Y01050898
G01X01034995Y01050827
G01X01035146Y01050781
G01X01035284Y01050764
G01X01035436Y01050779
G01X01035588Y01050826
G01X01035720Y01050898
G01X01035900Y01051048
G01X01036540Y01051279
G01X01052540Y01051279
G01X01053178Y01051050
G01X01053384Y01050878
G01X01053504Y01050817
G01X01053686Y01050768
G01X01053825Y01050756
G01X01053959Y01050774
M16
G00X01208602Y00751226
M15
G01X01208750Y00751750
G01X01208750Y01081750
G01X01208274Y01082602
G01X01207750Y01082750
G01X00507750Y01082750
G01X00506898Y01082274
G01X00506750Y01081750
G01X00506750Y00751750
G01X00507226Y00750898
G01X00507750Y00750750
G01X01207750Y00750750
G01X01208602Y00751226
M16
M17
M30
