G04 Layer_Physical_Order=2*
G04 Layer_Color=16711680*
%FSAX44Y44*%
%MOMM*%
G71*
G01*
G75*
%ADD22C,0.2000*%
%ADD23C,0.4000*%
%ADD24O,1.0000X1.5000*%
%ADD25R,1.0000X1.0000*%
%ADD26C,1.0000*%
%ADD27R,1.5000X1.5000*%
%ADD28C,1.5000*%
%ADD29R,1.5000X1.5000*%
%ADD30R,1.0000X1.0000*%
%ADD31C,1.5240*%
%ADD32C,0.5000*%
%ADD33R,1.5000X2.0000*%
%ADD34R,1.3000X1.5000*%
G36*
X01207750Y00751750D02*
X00979267D01*
X00979119Y00753250D01*
X00979544Y00753335D01*
X00980206Y00753776D01*
X00980648Y00754438D01*
X00980803Y00755219D01*
Y00775219D01*
X00980648Y00775999D01*
X00980206Y00776660D01*
X00979544Y00777102D01*
X00978764Y00777258D01*
X00963764D01*
X00962983Y00777102D01*
X00962322Y00776660D01*
X00961880Y00775999D01*
X00961859Y00775893D01*
X00961442Y00775555D01*
X00960486Y00775027D01*
X00960225Y00774987D01*
X00958884Y00775253D01*
X00957128Y00774904D01*
X00955639Y00773910D01*
X00954645Y00772421D01*
X00954296Y00770665D01*
X00954645Y00768909D01*
X00955639Y00767421D01*
X00957128Y00766426D01*
X00958884Y00766077D01*
X00960225Y00766344D01*
X00961725Y00765485D01*
Y00755219D01*
X00961880Y00754438D01*
X00962322Y00753776D01*
X00962983Y00753335D01*
X00963408Y00753250D01*
X00963260Y00751750D01*
X00507750D01*
Y01081750D01*
X01010351D01*
Y01071065D01*
X01010351Y01071063D01*
X01010351Y01071061D01*
X01010429Y01070673D01*
X01010506Y01070285D01*
X01010507Y01070283D01*
X01010508Y01070281D01*
X01010726Y01069955D01*
X01010948Y01069623D01*
X01010950Y01069622D01*
X01010951Y01069620D01*
X01011277Y01069404D01*
X01011609Y01069182D01*
X01011612Y01069181D01*
X01011614Y01069180D01*
X01012001Y01069104D01*
X01012390Y01069026D01*
X01012392Y01069027D01*
X01012394Y01069026D01*
X01017286Y01069037D01*
X01017797Y01067539D01*
X01016797Y01066772D01*
X01015676Y01065310D01*
X01014970Y01063607D01*
X01014730Y01061779D01*
Y01056779D01*
X01014970Y01054952D01*
X01015676Y01053249D01*
X01016797Y01051787D01*
X01018260Y01050665D01*
X01019963Y01049959D01*
X01021790Y01049719D01*
X01023617Y01049959D01*
X01025320Y01050665D01*
X01026782Y01051787D01*
X01027904Y01053249D01*
X01028610Y01054952D01*
X01028850Y01056779D01*
Y01061779D01*
X01028610Y01063607D01*
X01027904Y01065310D01*
X01026782Y01066772D01*
X01025760Y01067557D01*
X01026267Y01069058D01*
X01030939Y01069068D01*
X01032001Y01068009D01*
X01032001Y01053427D01*
X01031986Y01053408D01*
X01031833Y01053109D01*
X01031777Y01052913D01*
X01031685Y01052731D01*
X01031582Y01052364D01*
X01031565Y01052153D01*
X01031510Y01051949D01*
X01031487Y01051605D01*
X01031514Y01051402D01*
X01031501Y01051198D01*
X01031544Y01050878D01*
X01031601Y01050712D01*
X01031620Y01050538D01*
X01031719Y01050223D01*
X01031815Y01050048D01*
X01031874Y01049857D01*
X01032034Y01049564D01*
X01032152Y01049423D01*
X01032237Y01049261D01*
X01032450Y01048997D01*
X01032620Y01048854D01*
X01032764Y01048684D01*
X01033038Y01048465D01*
X01033206Y01048378D01*
X01033354Y01048258D01*
X01033652Y01048099D01*
X01033839Y01048043D01*
X01034010Y01047950D01*
X01034338Y01047849D01*
X01034522Y01047831D01*
X01034698Y01047773D01*
X01035035Y01047733D01*
X01035256Y01047751D01*
X01035477Y01047729D01*
X01035838Y01047765D01*
X01036036Y01047825D01*
X01036241Y01047847D01*
X01036582Y01047953D01*
X01036756Y01048047D01*
X01036945Y01048105D01*
X01037195Y01048240D01*
X01051879D01*
X01051895Y01048227D01*
X01052205Y01048067D01*
X01052413Y01048007D01*
X01052608Y01047911D01*
X01052978Y01047811D01*
X01053158Y01047799D01*
X01053331Y01047748D01*
X01053671Y01047718D01*
X01053900Y01047743D01*
X01054130Y01047729D01*
X01054490Y01047779D01*
X01054709Y01047856D01*
X01054938Y01047895D01*
X01055278Y01048025D01*
X01055440Y01048126D01*
X01055619Y01048193D01*
X01055879Y01048353D01*
X01055983Y01048450D01*
X01056109Y01048517D01*
X01056339Y01048707D01*
X01056461Y01048858D01*
X01056612Y01048980D01*
X01056802Y01049211D01*
X01056873Y01049341D01*
X01056973Y01049451D01*
X01057143Y01049731D01*
X01057218Y01049936D01*
X01057328Y01050125D01*
X01057428Y01050415D01*
X01057454Y01050607D01*
X01057519Y01050791D01*
X01057569Y01051141D01*
X01057559Y01051314D01*
X01057588Y01051485D01*
X01057578Y01051854D01*
X01057526Y01052084D01*
X01057512Y01052318D01*
X01057412Y01052698D01*
X01057309Y01052910D01*
X01057241Y01053136D01*
X01057079Y01053440D01*
X01057079Y01069127D01*
X01078439Y01069176D01*
X01079501Y01068116D01*
X01079501Y01053427D01*
X01079486Y01053408D01*
X01079333Y01053109D01*
X01079277Y01052913D01*
X01079185Y01052731D01*
X01079082Y01052364D01*
X01079065Y01052153D01*
X01079010Y01051949D01*
X01078987Y01051605D01*
X01079014Y01051402D01*
X01079001Y01051198D01*
X01079044Y01050878D01*
X01079101Y01050712D01*
X01079120Y01050538D01*
X01079219Y01050223D01*
X01079315Y01050048D01*
X01079374Y01049857D01*
X01079534Y01049564D01*
X01079652Y01049423D01*
X01079737Y01049261D01*
X01079950Y01048997D01*
X01080120Y01048854D01*
X01080264Y01048684D01*
X01080538Y01048465D01*
X01080706Y01048378D01*
X01080854Y01048258D01*
X01081152Y01048099D01*
X01081339Y01048043D01*
X01081510Y01047950D01*
X01081838Y01047849D01*
X01082022Y01047831D01*
X01082198Y01047773D01*
X01082535Y01047733D01*
X01082756Y01047751D01*
X01082977Y01047729D01*
X01083338Y01047765D01*
X01083536Y01047825D01*
X01083741Y01047847D01*
X01084082Y01047953D01*
X01084256Y01048047D01*
X01084445Y01048105D01*
X01084695Y01048240D01*
X01099379D01*
X01099395Y01048227D01*
X01099705Y01048067D01*
X01099913Y01048007D01*
X01100108Y01047911D01*
X01100478Y01047811D01*
X01100658Y01047799D01*
X01100831Y01047748D01*
X01101171Y01047718D01*
X01101400Y01047743D01*
X01101630Y01047729D01*
X01101991Y01047779D01*
X01102210Y01047856D01*
X01102438Y01047895D01*
X01102778Y01048025D01*
X01102940Y01048126D01*
X01103119Y01048193D01*
X01103379Y01048353D01*
X01103483Y01048450D01*
X01103609Y01048517D01*
X01103839Y01048707D01*
X01103961Y01048858D01*
X01104112Y01048980D01*
X01104302Y01049211D01*
X01104373Y01049341D01*
X01104473Y01049451D01*
X01104643Y01049731D01*
X01104718Y01049936D01*
X01104828Y01050125D01*
X01104928Y01050415D01*
X01104954Y01050607D01*
X01105019Y01050791D01*
X01105069Y01051141D01*
X01105059Y01051314D01*
X01105088Y01051485D01*
X01105078Y01051854D01*
X01105026Y01052084D01*
X01105012Y01052318D01*
X01104912Y01052698D01*
X01104809Y01052910D01*
X01104741Y01053136D01*
X01104579Y01053440D01*
X01104579Y01069235D01*
X01110655Y01069249D01*
X01111023Y01068423D01*
X01111072Y01067749D01*
X01109798Y01066772D01*
X01108676Y01065310D01*
X01107970Y01063607D01*
X01107730Y01061779D01*
Y01056779D01*
X01107970Y01054952D01*
X01108676Y01053249D01*
X01109798Y01051787D01*
X01111260Y01050665D01*
X01112963Y01049959D01*
X01114790Y01049719D01*
X01116617Y01049959D01*
X01118320Y01050665D01*
X01119782Y01051787D01*
X01120904Y01053249D01*
X01121610Y01054952D01*
X01121850Y01056779D01*
Y01061779D01*
X01121610Y01063607D01*
X01120904Y01065310D01*
X01119782Y01066772D01*
X01118486Y01067766D01*
X01118512Y01068342D01*
X01118907Y01069267D01*
X01124145Y01069279D01*
X01124532Y01069357D01*
X01124920Y01069434D01*
X01124922Y01069436D01*
X01124924Y01069436D01*
X01125250Y01069655D01*
X01125582Y01069876D01*
X01125583Y01069878D01*
X01125585Y01069880D01*
X01125802Y01070205D01*
X01126024Y01070538D01*
X01126024Y01070540D01*
X01126026Y01070542D01*
X01126102Y01070929D01*
X01126179Y01071318D01*
Y01081750D01*
X01207750D01*
Y00751750D01*
D02*
G37*
%LPC*%
G36*
X00656598Y01051131D02*
X00656598Y01051131D01*
X00565978D01*
X00564808Y01050898D01*
X00563815Y01050235D01*
X00556808Y01043227D01*
X00514821Y01043010D01*
X00514153Y01042343D01*
X00514153Y01017459D01*
X00519837D01*
Y00888810D01*
X00518337Y00888001D01*
X00516890Y00888289D01*
X00515134Y00887939D01*
X00513646Y00886945D01*
X00512651Y00885456D01*
X00512302Y00883700D01*
X00512651Y00881945D01*
X00513646Y00880456D01*
X00513831Y00880332D01*
Y00868156D01*
X00513831Y00868156D01*
X00514064Y00866985D01*
X00514727Y00865993D01*
X00548375Y00832345D01*
Y00766064D01*
X00548375Y00766064D01*
X00548608Y00764893D01*
X00549271Y00763901D01*
X00554605Y00758567D01*
X00555597Y00757904D01*
X00556768Y00757671D01*
X00556768Y00757671D01*
X00577596D01*
X00577596Y00757671D01*
X00578767Y00757904D01*
X00579759Y00758567D01*
X00580158Y00758966D01*
X00598562Y00758966D01*
X00600698Y00756830D01*
X00600698Y00756830D01*
X00602021Y00755946D01*
X00603582Y00755636D01*
X00653034D01*
X00653034Y00755636D01*
X00654595Y00755946D01*
X00655918Y00756830D01*
X00658421Y00759334D01*
X00682964D01*
Y00756849D01*
X00686449D01*
X00686929Y00756528D01*
X00687709Y00756373D01*
X00697709D01*
X00698490Y00756528D01*
X00698970Y00756849D01*
X00699148D01*
X00699629Y00756528D01*
X00700409Y00756373D01*
X00710409D01*
X00711190Y00756528D01*
X00711670Y00756849D01*
X00711849D01*
X00712329Y00756528D01*
X00713109Y00756373D01*
X00723109D01*
X00723890Y00756528D01*
X00724370Y00756849D01*
X00724548D01*
X00725029Y00756528D01*
X00725809Y00756373D01*
X00735809D01*
X00736590Y00756528D01*
X00737070Y00756849D01*
X00737249D01*
X00737729Y00756528D01*
X00738509Y00756373D01*
X00748509D01*
X00749290Y00756528D01*
X00749770Y00756849D01*
X00757167D01*
X00757167Y00766059D01*
X00757167Y00783075D01*
X00736630Y00782969D01*
X00736590Y00782996D01*
X00735809Y00783151D01*
X00725809D01*
X00725029Y00782996D01*
X00724898Y00782908D01*
X00724028Y00782904D01*
X00723890Y00782996D01*
X00723109Y00783151D01*
X00713109D01*
X00712329Y00782996D01*
X00712099Y00782842D01*
X00711425Y00782839D01*
X00711190Y00782996D01*
X00710409Y00783151D01*
X00700409D01*
X00699629Y00782996D01*
X00699300Y00782776D01*
X00698822Y00782774D01*
X00698490Y00782996D01*
X00697709Y00783151D01*
X00687709D01*
X00686929Y00782996D01*
X00686501Y00782710D01*
X00682964Y00782692D01*
Y00767491D01*
X00656732D01*
X00655172Y00767180D01*
X00653848Y00766296D01*
X00653848Y00766296D01*
X00651345Y00763792D01*
X00630471D01*
X00629411Y00764853D01*
X00629411Y00769562D01*
X00629411Y00778891D01*
X00630911Y00779864D01*
X00632712Y00779118D01*
X00632909Y00779078D01*
X00632970Y00779053D01*
X00633036Y00779044D01*
X00633226Y00778980D01*
X00636098Y00778602D01*
X00636232Y00778611D01*
X00636364Y00778584D01*
X00636496Y00778611D01*
X00636630Y00778602D01*
X00639501Y00778980D01*
X00639692Y00779044D01*
X00639757Y00779053D01*
X00639819Y00779078D01*
X00640016Y00779118D01*
X00642692Y00780226D01*
X00642859Y00780338D01*
X00642920Y00780363D01*
X00642972Y00780403D01*
X00643153Y00780492D01*
X00645450Y00782255D01*
X00645583Y00782406D01*
X00645636Y00782447D01*
X00645676Y00782499D01*
X00645827Y00782632D01*
X00647590Y00784930D01*
X00647679Y00785110D01*
X00647719Y00785162D01*
X00647745Y00785224D01*
X00647856Y00785391D01*
X00648965Y00788066D01*
X00649004Y00788264D01*
X00649029Y00788325D01*
X00649038Y00788391D01*
X00649102Y00788581D01*
X00649480Y00791452D01*
X00649467Y00791653D01*
X00649476Y00791719D01*
X00649467Y00791784D01*
X00649480Y00791985D01*
X00649102Y00794856D01*
X00649038Y00795046D01*
X00649029Y00795112D01*
X00649004Y00795173D01*
X00648965Y00795370D01*
X00647856Y00798046D01*
X00647745Y00798213D01*
X00647719Y00798275D01*
X00647679Y00798327D01*
X00647590Y00798507D01*
X00645827Y00800805D01*
X00645676Y00800938D01*
X00645636Y00800990D01*
X00645583Y00801031D01*
X00645450Y00801182D01*
X00643153Y00802945D01*
X00642972Y00803034D01*
X00642920Y00803074D01*
X00642859Y00803099D01*
X00642692Y00803211D01*
X00640016Y00804319D01*
X00639819Y00804359D01*
X00639757Y00804384D01*
X00639692Y00804392D01*
X00639501Y00804457D01*
X00636630Y00804835D01*
X00636496Y00804826D01*
X00636364Y00804853D01*
X00636232Y00804826D01*
X00636098Y00804835D01*
X00633226Y00804457D01*
X00633036Y00804392D01*
X00632970Y00804384D01*
X00632909Y00804359D01*
X00632712Y00804319D01*
X00630036Y00803211D01*
X00629869Y00803099D01*
X00629808Y00803074D01*
X00629755Y00803034D01*
X00629575Y00802945D01*
X00627277Y00801182D01*
X00627145Y00801031D01*
X00627092Y00800990D01*
X00627052Y00800938D01*
X00626901Y00800805D01*
X00625137Y00798507D01*
X00625049Y00798327D01*
X00625008Y00798275D01*
X00624983Y00798213D01*
X00624871Y00798046D01*
X00623763Y00795370D01*
X00623724Y00795173D01*
X00623698Y00795112D01*
X00623690Y00795046D01*
X00623625Y00794856D01*
X00623247Y00791985D01*
X00623260Y00791784D01*
X00623252Y00791719D01*
X00623260Y00791653D01*
X00623247Y00791452D01*
X00623625Y00788581D01*
X00623690Y00788390D01*
X00623698Y00788325D01*
X00623724Y00788264D01*
X00623763Y00788066D01*
X00624871Y00785391D01*
X00624983Y00785224D01*
X00625008Y00785162D01*
X00625049Y00785110D01*
X00625137Y00784930D01*
X00625546Y00784397D01*
X00624886Y00783050D01*
X00585020Y00782845D01*
X00583957Y00783903D01*
Y00786133D01*
X00633219Y00835395D01*
X00867323D01*
X00867718Y00834694D01*
X00867935Y00833895D01*
X00867067Y00832597D01*
X00866718Y00830841D01*
X00867067Y00829085D01*
X00868062Y00827596D01*
X00868247Y00827473D01*
Y00819416D01*
X00868247Y00819416D01*
X00868480Y00818245D01*
X00869143Y00817253D01*
X00883262Y00803135D01*
X00882640Y00801635D01*
X00873318D01*
X00873194Y00801820D01*
X00871706Y00802815D01*
X00869950Y00803164D01*
X00868194Y00802815D01*
X00866706Y00801820D01*
X00865711Y00800332D01*
X00865362Y00798576D01*
X00863892Y00798288D01*
X00863550Y00798355D01*
X00861795Y00798006D01*
X00860306Y00797012D01*
X00859508Y00795817D01*
X00857862Y00795341D01*
X00828717Y00824487D01*
X00827724Y00825150D01*
X00826554Y00825383D01*
X00826553Y00825383D01*
X00790913D01*
X00789475Y00826343D01*
X00787720Y00826693D01*
X00785964Y00826343D01*
X00784475Y00825349D01*
X00783481Y00823860D01*
X00783131Y00822104D01*
X00783481Y00820349D01*
X00784475Y00818860D01*
X00785964Y00817866D01*
X00787720Y00817516D01*
X00789475Y00817866D01*
X00790964Y00818860D01*
X00791235Y00819265D01*
X00825287D01*
X00847230Y00797322D01*
X00846491Y00795939D01*
X00845682Y00796100D01*
X00843926Y00795751D01*
X00842438Y00794756D01*
X00841443Y00793268D01*
X00841094Y00791512D01*
X00841443Y00789756D01*
X00842438Y00788268D01*
X00843926Y00787273D01*
X00845682Y00786924D01*
X00846300Y00787047D01*
X00852589Y00780757D01*
X00852589Y00780757D01*
X00853582Y00780094D01*
X00854752Y00779862D01*
X00854752Y00779862D01*
X01027537D01*
X01034620Y00772778D01*
X01035612Y00772115D01*
X01036783Y00771882D01*
X01036783Y00771882D01*
X01099390D01*
X01099390Y00771882D01*
X01100561Y00772115D01*
X01101553Y00772778D01*
X01104385Y00775610D01*
X01104667Y00775554D01*
X01106423Y00775903D01*
X01107911Y00776898D01*
X01108906Y00778386D01*
X01109255Y00780142D01*
X01108906Y00781898D01*
X01107911Y00783386D01*
X01106423Y00784381D01*
X01104667Y00784730D01*
X01102911Y00784381D01*
X01101422Y00783386D01*
X01100428Y00781898D01*
X01100079Y00780142D01*
X01100110Y00779986D01*
X01098123Y00778000D01*
X01092933D01*
X01091853Y00779500D01*
X01091906Y00779658D01*
X01092622Y00779800D01*
X01094110Y00780795D01*
X01095105Y00782284D01*
X01095454Y00784040D01*
X01095105Y00785795D01*
X01094110Y00787284D01*
X01092622Y00788278D01*
X01090866Y00788628D01*
X01089110Y00788278D01*
X01087622Y00787284D01*
X01086627Y00785795D01*
X01086278Y00784040D01*
X01086366Y00783598D01*
X01084768Y00782000D01*
X01074965D01*
X01074391Y00783385D01*
X01075885Y00784880D01*
X01076104Y00784837D01*
X01077860Y00785186D01*
X01079349Y00786180D01*
X01080343Y00787669D01*
X01080692Y00789425D01*
X01080343Y00791181D01*
X01079349Y00792669D01*
X01077860Y00793664D01*
X01076104Y00794013D01*
X01074349Y00793664D01*
X01072860Y00792669D01*
X01071865Y00791181D01*
X01071516Y00789425D01*
X01071560Y00789206D01*
X01068353Y00786000D01*
X01056937D01*
X01056135Y00787500D01*
X01056200Y00787597D01*
X01056549Y00789352D01*
X01056200Y00791108D01*
X01055206Y00792597D01*
X01053717Y00793591D01*
X01051961Y00793941D01*
X01050206Y00793591D01*
X01049910Y00793394D01*
X01048560Y00794296D01*
X01048704Y00795019D01*
X01048355Y00796774D01*
X01047360Y00798263D01*
X01045872Y00799258D01*
X01044116Y00799607D01*
X01043442Y00799473D01*
X01036138Y00806777D01*
X01035145Y00807440D01*
X01033975Y00807673D01*
X01033975Y00807673D01*
X00948443D01*
Y00826760D01*
X00949943Y00827582D01*
X00951364Y00827299D01*
X00953120Y00827648D01*
X00954608Y00828643D01*
X00955603Y00830131D01*
X00955952Y00831887D01*
X00955909Y00832106D01*
X00961775Y00837972D01*
X00961775Y00837972D01*
X00962438Y00838964D01*
X00962671Y00840135D01*
Y00867723D01*
X00964171Y00868344D01*
X01011035Y00821480D01*
X01011035Y00821479D01*
X01012028Y00820816D01*
X01013198Y00820584D01*
X01096836D01*
X01096850Y00820563D01*
X01098338Y00819568D01*
X01100094Y00819219D01*
X01101850Y00819568D01*
X01103338Y00820563D01*
X01104333Y00822051D01*
X01104682Y00823807D01*
X01104333Y00825563D01*
X01103338Y00827051D01*
X01101850Y00828046D01*
X01100094Y00828395D01*
X01098338Y00828046D01*
X01096850Y00827051D01*
X01096616Y00826701D01*
X01056123D01*
X01055903Y00826980D01*
X01055458Y00828201D01*
X01056214Y00829332D01*
X01056563Y00831088D01*
X01056214Y00832844D01*
X01055219Y00834332D01*
X01055034Y00834456D01*
Y00869027D01*
X01055034Y00869027D01*
X01054801Y00870198D01*
X01054138Y00871190D01*
X01024259Y00901069D01*
X01023267Y00901732D01*
X01022096Y00901965D01*
X01022096Y00901965D01*
X00918170D01*
X00917549Y00903465D01*
X00918632Y00904548D01*
X00935141D01*
X00935141Y00904548D01*
X00936702Y00904858D01*
X00938025Y00905742D01*
X00945224Y00912941D01*
X00945224Y00912941D01*
X00946108Y00914264D01*
X00946418Y00915825D01*
X00946418Y00915825D01*
Y00973214D01*
X00946776Y00973750D01*
X00947126Y00975506D01*
X00946776Y00977262D01*
X00945782Y00978751D01*
X00944293Y00979745D01*
X00942538Y00980094D01*
X00940782Y00979745D01*
X00939293Y00978751D01*
X00938299Y00977262D01*
X00937949Y00975506D01*
X00938262Y00973936D01*
Y00917514D01*
X00933452Y00912704D01*
X00916942D01*
X00915382Y00912394D01*
X00914059Y00911510D01*
X00914058Y00911510D01*
X00912004Y00909455D01*
X00910968Y00909249D01*
X00909480Y00908255D01*
X00908485Y00906766D01*
X00908136Y00905011D01*
X00908388Y00903741D01*
X00907006Y00903002D01*
X00819755Y00990253D01*
X00820329Y00991639D01*
X00874559D01*
X00892913Y00973286D01*
Y00962500D01*
X00892912Y00962500D01*
X00893145Y00961330D01*
X00893808Y00960337D01*
X00923525Y00930620D01*
Y00922678D01*
X00922631Y00921339D01*
X00922282Y00919584D01*
X00922631Y00917828D01*
X00923625Y00916339D01*
X00925114Y00915345D01*
X00926870Y00914995D01*
X00928625Y00915345D01*
X00930114Y00916339D01*
X00931109Y00917828D01*
X00931458Y00919584D01*
X00931109Y00921339D01*
X00930114Y00922828D01*
X00929643Y00923143D01*
Y00931887D01*
X00929643Y00931887D01*
X00929410Y00933058D01*
X00928747Y00934050D01*
X00928747Y00934050D01*
X00899030Y00963767D01*
Y00974553D01*
X00898797Y00975723D01*
X00898134Y00976715D01*
X00884596Y00990253D01*
X00885170Y00991639D01*
X00914490D01*
Y01011924D01*
X00914157Y01012257D01*
Y01013919D01*
X00913824Y01013587D01*
X00808409D01*
Y01003559D01*
X00807023Y01002985D01*
X00785495Y01024513D01*
X00784503Y01025176D01*
X00783332Y01025409D01*
X00783332Y01025409D01*
X00683587D01*
X00658761Y01050235D01*
X00657768Y01050898D01*
X00656598Y01051131D01*
D02*
G37*
G36*
X01199631Y01002624D02*
X01176621D01*
X01176659Y00995302D01*
X01175601Y00994238D01*
X01110560D01*
X01110560Y00994238D01*
X01109389Y00994006D01*
X01108397Y00993343D01*
X01103887Y00988833D01*
X01072896D01*
X01072896Y00988833D01*
X01071725Y00988600D01*
X01070733Y00987937D01*
X01070733Y00987937D01*
X01060319Y00977523D01*
X01059656Y00976531D01*
X01059423Y00975360D01*
X01059423Y00975360D01*
Y00942848D01*
X01059423Y00942848D01*
X01059656Y00941677D01*
X01060319Y00940685D01*
X01062351Y00938653D01*
X01063344Y00937990D01*
X01064514Y00937757D01*
X01080607D01*
X01080731Y00937572D01*
X01082219Y00936577D01*
X01083975Y00936228D01*
X01085731Y00936577D01*
X01087219Y00937572D01*
X01088214Y00939060D01*
X01088563Y00940816D01*
X01088214Y00942572D01*
X01087219Y00944060D01*
X01085731Y00945055D01*
X01083975Y00945404D01*
X01082219Y00945055D01*
X01080731Y00944060D01*
X01080607Y00943875D01*
X01065781D01*
X01065541Y00944115D01*
Y00974093D01*
X01074163Y00982715D01*
X01096064D01*
X01096638Y00981329D01*
X01092419Y00977111D01*
X01092200Y00977154D01*
X01090444Y00976805D01*
X01088956Y00975810D01*
X01087961Y00974322D01*
X01087612Y00972566D01*
X01087961Y00970810D01*
X01088956Y00969322D01*
X01090444Y00968327D01*
X01092200Y00967978D01*
X01093956Y00968327D01*
X01095444Y00969322D01*
X01096439Y00970810D01*
X01096788Y00972566D01*
X01096745Y00972785D01*
X01101595Y00977635D01*
X01171914D01*
X01176775Y00972774D01*
X01176855Y00957200D01*
X01175787Y00956094D01*
X01175362Y00955917D01*
X01103480D01*
X01103480Y00955917D01*
X01102310Y00955684D01*
X01101317Y00955021D01*
X01101317Y00955021D01*
X01098261Y00951965D01*
X01098042Y00952008D01*
X01096286Y00951659D01*
X01094798Y00950664D01*
X01093803Y00949176D01*
X01093454Y00947420D01*
X01093803Y00945664D01*
X01094798Y00944176D01*
X01096286Y00943181D01*
X01098042Y00942832D01*
X01099798Y00943181D01*
X01101286Y00944176D01*
X01102281Y00945664D01*
X01102630Y00947420D01*
X01102587Y00947639D01*
X01104747Y00949799D01*
X01174350D01*
X01176907Y00947242D01*
X01176983Y00932379D01*
X01175599Y00931801D01*
X01161738Y00945662D01*
X01160746Y00946325D01*
X01159576Y00946558D01*
X01159575Y00946558D01*
X01159322D01*
X01159198Y00946744D01*
X01157710Y00947738D01*
X01155954Y00948087D01*
X01154198Y00947738D01*
X01152710Y00946744D01*
X01151715Y00945255D01*
X01151366Y00943499D01*
X01151715Y00941743D01*
X01152710Y00940255D01*
X01154198Y00939260D01*
X01155954Y00938911D01*
X01157710Y00939260D01*
X01158776Y00939973D01*
X01177038Y00921711D01*
X01177115Y00906847D01*
X01175731Y00906270D01*
X01144356Y00937645D01*
X01143363Y00938308D01*
X01142193Y00938541D01*
X01142193Y00938541D01*
X01132398D01*
X01132274Y00938726D01*
X01130786Y00939721D01*
X01129030Y00940070D01*
X01127274Y00939721D01*
X01125786Y00938726D01*
X01124791Y00937238D01*
X01124442Y00935482D01*
X01124791Y00933726D01*
X01125786Y00932238D01*
X01127274Y00931243D01*
X01129030Y00930894D01*
X01130786Y00931243D01*
X01132274Y00932238D01*
X01132398Y00932423D01*
X01140926D01*
X01177170Y00896179D01*
X01177245Y00881636D01*
X01175861Y00881058D01*
X01137639Y00919280D01*
X01137682Y00919499D01*
X01137333Y00921255D01*
X01136338Y00922744D01*
X01134850Y00923738D01*
X01133094Y00924088D01*
X01131338Y00923738D01*
X01129850Y00922744D01*
X01128855Y00921255D01*
X01128506Y00919499D01*
X01128855Y00917744D01*
X01129850Y00916255D01*
X01131338Y00915260D01*
X01133094Y00914911D01*
X01133313Y00914955D01*
X01174222Y00874045D01*
X01175214Y00873382D01*
X01176385Y00873149D01*
X01177289D01*
X01177314Y00868302D01*
X01176256Y00867238D01*
X01168579D01*
X01108429Y00927389D01*
X01108472Y00927608D01*
X01108123Y00929364D01*
X01107128Y00930852D01*
X01105640Y00931847D01*
X01103884Y00932196D01*
X01102128Y00931847D01*
X01100640Y00930852D01*
X01099645Y00929364D01*
X01099296Y00927608D01*
X01099645Y00925852D01*
X01100640Y00924364D01*
X01102128Y00923369D01*
X01103884Y00923020D01*
X01104103Y00923063D01*
X01165150Y00862017D01*
X01166142Y00861354D01*
X01167312Y00861121D01*
X01167312Y00861121D01*
X01177351D01*
X01177455Y00840889D01*
X01175958Y00840264D01*
X01107422Y00908801D01*
X01108123Y00909850D01*
X01108472Y00911606D01*
X01108123Y00913362D01*
X01107128Y00914850D01*
X01105640Y00915845D01*
X01103884Y00916194D01*
X01102128Y00915845D01*
X01100640Y00914850D01*
X01099645Y00913362D01*
X01099296Y00911606D01*
X01099645Y00909850D01*
X01100640Y00908362D01*
X01100825Y00908238D01*
Y00908013D01*
X01100825Y00908013D01*
X01101058Y00906843D01*
X01101721Y00905850D01*
X01162231Y00845341D01*
X01161960Y00844497D01*
X01161584Y00843866D01*
X01160014Y00843554D01*
X01159969Y00843524D01*
X01116571D01*
X01056924Y00903171D01*
X01056868Y00903454D01*
X01055873Y00904942D01*
X01054385Y00905937D01*
X01052629Y00906286D01*
X01050873Y00905937D01*
X01049385Y00904942D01*
X01048390Y00903454D01*
X01048041Y00901698D01*
X01048390Y00899942D01*
X01049385Y00898454D01*
X01050873Y00897459D01*
X01051156Y00897403D01*
X01111998Y00836562D01*
X01111998Y00836562D01*
X01113321Y00835678D01*
X01114882Y00835367D01*
X01114882Y00835367D01*
X01159578D01*
X01160014Y00835076D01*
X01161770Y00834727D01*
X01163525Y00835076D01*
X01165014Y00836070D01*
X01166009Y00837559D01*
X01166321Y00839129D01*
X01166952Y00839505D01*
X01167795Y00839776D01*
X01171550Y00836022D01*
Y00834276D01*
X01171550Y00834276D01*
X01171782Y00833105D01*
X01172446Y00832113D01*
X01177527Y00827031D01*
X01177551Y00822283D01*
Y00803770D01*
X01177279Y00803498D01*
X01179908Y00800868D01*
X01199631D01*
X01199631Y00845990D01*
X01201896Y00848255D01*
X01202559Y00849247D01*
X01202792Y00850418D01*
X01202792Y00850418D01*
Y00870166D01*
X01202559Y00871337D01*
X01201896Y00872329D01*
X01201896Y00872329D01*
X01199631Y00874594D01*
X01199631Y01002624D01*
D02*
G37*
G36*
X00527750Y00788862D02*
X00527651Y00788842D01*
X00527550Y00788852D01*
X00524610Y00788562D01*
X00524417Y00788504D01*
X00524218Y00788484D01*
X00521390Y00787627D01*
X00521213Y00787532D01*
X00521021Y00787474D01*
X00518415Y00786081D01*
X00518260Y00785953D01*
X00518083Y00785859D01*
X00515798Y00783984D01*
X00515671Y00783829D01*
X00515516Y00783702D01*
X00513641Y00781418D01*
X00513547Y00781240D01*
X00513419Y00781085D01*
X00512026Y00778479D01*
X00511968Y00778287D01*
X00511873Y00778110D01*
X00511016Y00775283D01*
X00510996Y00775083D01*
X00510938Y00774890D01*
X00510648Y00771950D01*
X00510668Y00771750D01*
X00510648Y00771550D01*
X00510938Y00768610D01*
X00510996Y00768418D01*
X00511016Y00768218D01*
X00511873Y00765390D01*
X00511968Y00765213D01*
X00512026Y00765021D01*
X00513419Y00762415D01*
X00513547Y00762260D01*
X00513641Y00762083D01*
X00515516Y00759799D01*
X00515671Y00759671D01*
X00515798Y00759516D01*
X00518083Y00757641D01*
X00518260Y00757547D01*
X00518415Y00757419D01*
X00521021Y00756026D01*
X00521213Y00755968D01*
X00521390Y00755873D01*
X00524218Y00755016D01*
X00524417Y00754996D01*
X00524610Y00754938D01*
X00527550Y00754648D01*
X00527651Y00754658D01*
X00527750Y00754638D01*
X00527849Y00754658D01*
X00527950Y00754648D01*
X00530890Y00754938D01*
X00531083Y00754996D01*
X00531283Y00755016D01*
X00534110Y00755873D01*
X00534287Y00755968D01*
X00534479Y00756026D01*
X00537085Y00757419D01*
X00537240Y00757547D01*
X00537417Y00757641D01*
X00539702Y00759516D01*
X00539829Y00759671D01*
X00539984Y00759799D01*
X00541859Y00762083D01*
X00541953Y00762260D01*
X00542081Y00762415D01*
X00543474Y00765021D01*
X00543532Y00765213D01*
X00543627Y00765390D01*
X00544484Y00768218D01*
X00544504Y00768418D01*
X00544562Y00768610D01*
X00544852Y00771550D01*
X00544832Y00771750D01*
X00544852Y00771950D01*
X00544562Y00774890D01*
X00544504Y00775083D01*
X00544484Y00775283D01*
X00543627Y00778110D01*
X00543532Y00778287D01*
X00543474Y00778479D01*
X00542081Y00781085D01*
X00541953Y00781240D01*
X00541859Y00781418D01*
X00539984Y00783702D01*
X00539829Y00783829D01*
X00539702Y00783984D01*
X00537417Y00785859D01*
X00537240Y00785953D01*
X00537085Y00786081D01*
X00534479Y00787474D01*
X00534287Y00787532D01*
X00534110Y00787627D01*
X00531283Y00788484D01*
X00531083Y00788504D01*
X00530890Y00788562D01*
X00527950Y00788852D01*
X00527849Y00788842D01*
X00527750Y00788862D01*
D02*
G37*
G36*
X01187750D02*
X01187651Y00788842D01*
X01187550Y00788852D01*
X01184610Y00788562D01*
X01184418Y00788504D01*
X01184218Y00788484D01*
X01181390Y00787627D01*
X01181213Y00787532D01*
X01181021Y00787474D01*
X01178415Y00786081D01*
X01178260Y00785953D01*
X01178083Y00785859D01*
X01175799Y00783984D01*
X01175671Y00783829D01*
X01175516Y00783702D01*
X01173642Y00781418D01*
X01173547Y00781240D01*
X01173419Y00781085D01*
X01172027Y00778479D01*
X01171968Y00778287D01*
X01171874Y00778110D01*
X01171016Y00775283D01*
X01170996Y00775083D01*
X01170938Y00774890D01*
X01170648Y00771950D01*
X01170668Y00771750D01*
X01170648Y00771550D01*
X01170938Y00768610D01*
X01170996Y00768418D01*
X01171016Y00768218D01*
X01171874Y00765390D01*
X01171968Y00765213D01*
X01172027Y00765021D01*
X01173419Y00762415D01*
X01173547Y00762260D01*
X01173642Y00762083D01*
X01175516Y00759799D01*
X01175671Y00759671D01*
X01175799Y00759516D01*
X01178083Y00757641D01*
X01178260Y00757547D01*
X01178415Y00757419D01*
X01181021Y00756026D01*
X01181213Y00755968D01*
X01181390Y00755873D01*
X01184218Y00755016D01*
X01184418Y00754996D01*
X01184610Y00754938D01*
X01187550Y00754648D01*
X01187651Y00754658D01*
X01187750Y00754638D01*
X01187850Y00754658D01*
X01187950Y00754648D01*
X01190891Y00754938D01*
X01191083Y00754996D01*
X01191283Y00755016D01*
X01194110Y00755873D01*
X01194287Y00755968D01*
X01194480Y00756026D01*
X01197085Y00757419D01*
X01197241Y00757547D01*
X01197418Y00757641D01*
X01199702Y00759516D01*
X01199829Y00759671D01*
X01199985Y00759799D01*
X01201859Y00762083D01*
X01201954Y00762260D01*
X01202081Y00762415D01*
X01203474Y00765021D01*
X01203532Y00765213D01*
X01203627Y00765390D01*
X01204485Y00768218D01*
X01204504Y00768418D01*
X01204563Y00768610D01*
X01204852Y00771550D01*
X01204833Y00771750D01*
X01204852Y00771950D01*
X01204563Y00774890D01*
X01204504Y00775083D01*
X01204485Y00775283D01*
X01203627Y00778110D01*
X01203532Y00778287D01*
X01203474Y00778479D01*
X01202081Y00781085D01*
X01201954Y00781240D01*
X01201859Y00781418D01*
X01199985Y00783702D01*
X01199829Y00783829D01*
X01199702Y00783984D01*
X01197418Y00785859D01*
X01197241Y00785953D01*
X01197085Y00786081D01*
X01194480Y00787474D01*
X01194287Y00787532D01*
X01194110Y00787627D01*
X01191283Y00788484D01*
X01191083Y00788504D01*
X01190891Y00788562D01*
X01187950Y00788852D01*
X01187850Y00788842D01*
X01187750Y00788862D01*
D02*
G37*
G36*
X01151364Y00804853D02*
X01151232Y00804826D01*
X01151098Y00804835D01*
X01148226Y00804457D01*
X01148036Y00804392D01*
X01147970Y00804384D01*
X01147909Y00804359D01*
X01147712Y00804319D01*
X01145036Y00803211D01*
X01144869Y00803099D01*
X01144808Y00803074D01*
X01144755Y00803034D01*
X01144575Y00802945D01*
X01142277Y00801182D01*
X01142145Y00801031D01*
X01142092Y00800990D01*
X01142052Y00800938D01*
X01141901Y00800805D01*
X01140137Y00798507D01*
X01140049Y00798327D01*
X01140008Y00798275D01*
X01139983Y00798213D01*
X01139871Y00798046D01*
X01138763Y00795370D01*
X01138724Y00795173D01*
X01138698Y00795112D01*
X01138690Y00795046D01*
X01138625Y00794856D01*
X01138247Y00791985D01*
X01138260Y00791784D01*
X01138252Y00791719D01*
X01138260Y00791653D01*
X01138247Y00791452D01*
X01138625Y00788581D01*
X01138690Y00788390D01*
X01138698Y00788325D01*
X01138724Y00788264D01*
X01138763Y00788066D01*
X01139871Y00785391D01*
X01139983Y00785224D01*
X01140008Y00785162D01*
X01140049Y00785110D01*
X01140137Y00784930D01*
X01141901Y00782632D01*
X01142052Y00782499D01*
X01142092Y00782447D01*
X01142145Y00782406D01*
X01142277Y00782255D01*
X01144575Y00780492D01*
X01144755Y00780403D01*
X01144808Y00780363D01*
X01144869Y00780338D01*
X01145036Y00780226D01*
X01147712Y00779118D01*
X01147909Y00779078D01*
X01147970Y00779053D01*
X01148036Y00779044D01*
X01148226Y00778980D01*
X01151098Y00778602D01*
X01151232Y00778611D01*
X01151364Y00778584D01*
X01151496Y00778611D01*
X01151630Y00778602D01*
X01154501Y00778980D01*
X01154692Y00779044D01*
X01154757Y00779053D01*
X01154819Y00779078D01*
X01155016Y00779118D01*
X01157692Y00780226D01*
X01157859Y00780338D01*
X01157920Y00780363D01*
X01157972Y00780403D01*
X01158153Y00780492D01*
X01160450Y00782255D01*
X01160583Y00782406D01*
X01160636Y00782447D01*
X01160676Y00782499D01*
X01160827Y00782632D01*
X01162590Y00784930D01*
X01162679Y00785110D01*
X01162719Y00785162D01*
X01162745Y00785224D01*
X01162856Y00785391D01*
X01163965Y00788066D01*
X01164004Y00788264D01*
X01164029Y00788325D01*
X01164038Y00788391D01*
X01164102Y00788581D01*
X01164480Y00791452D01*
X01164467Y00791653D01*
X01164476Y00791719D01*
X01164467Y00791784D01*
X01164480Y00791985D01*
X01164102Y00794856D01*
X01164038Y00795046D01*
X01164029Y00795112D01*
X01164004Y00795173D01*
X01163965Y00795370D01*
X01162856Y00798046D01*
X01162745Y00798213D01*
X01162719Y00798275D01*
X01162679Y00798327D01*
X01162590Y00798507D01*
X01160827Y00800805D01*
X01160676Y00800938D01*
X01160636Y00800990D01*
X01160583Y00801031D01*
X01160450Y00801182D01*
X01158153Y00802945D01*
X01157972Y00803034D01*
X01157920Y00803074D01*
X01157859Y00803099D01*
X01157692Y00803211D01*
X01155016Y00804319D01*
X01154819Y00804359D01*
X01154757Y00804384D01*
X01154692Y00804392D01*
X01154501Y00804457D01*
X01151630Y00804835D01*
X01151496Y00804826D01*
X01151364Y00804853D01*
D02*
G37*
G36*
X01021790Y01046590D02*
X01019963Y01046349D01*
X01018260Y01045644D01*
X01016797Y01044522D01*
X01015676Y01043059D01*
X01014970Y01041357D01*
X01014730Y01039529D01*
Y01034529D01*
X01014970Y01032702D01*
X01015676Y01030999D01*
X01016797Y01029537D01*
X01018260Y01028415D01*
X01019963Y01027710D01*
X01021790Y01027469D01*
X01023617Y01027710D01*
X01025320Y01028415D01*
X01026782Y01029537D01*
X01027904Y01030999D01*
X01028610Y01032702D01*
X01028850Y01034529D01*
Y01039529D01*
X01028610Y01041357D01*
X01027904Y01043059D01*
X01026782Y01044522D01*
X01025320Y01045644D01*
X01023617Y01046349D01*
X01021790Y01046590D01*
D02*
G37*
G36*
X01151364Y01044853D02*
X01151232Y01044826D01*
X01151098Y01044835D01*
X01148226Y01044457D01*
X01148036Y01044392D01*
X01147970Y01044384D01*
X01147909Y01044359D01*
X01147712Y01044319D01*
X01145036Y01043211D01*
X01144869Y01043099D01*
X01144808Y01043074D01*
X01144755Y01043034D01*
X01144575Y01042945D01*
X01142277Y01041182D01*
X01142145Y01041031D01*
X01142092Y01040990D01*
X01142052Y01040938D01*
X01141901Y01040805D01*
X01140137Y01038507D01*
X01140049Y01038327D01*
X01140008Y01038275D01*
X01139983Y01038213D01*
X01139871Y01038046D01*
X01138763Y01035370D01*
X01138724Y01035173D01*
X01138698Y01035112D01*
X01138690Y01035046D01*
X01138625Y01034856D01*
X01138247Y01031985D01*
X01138260Y01031784D01*
X01138252Y01031719D01*
X01138260Y01031653D01*
X01138247Y01031452D01*
X01138625Y01028581D01*
X01138690Y01028390D01*
X01138698Y01028325D01*
X01138724Y01028264D01*
X01138763Y01028066D01*
X01139871Y01025391D01*
X01139983Y01025223D01*
X01140008Y01025162D01*
X01140049Y01025110D01*
X01140137Y01024930D01*
X01141901Y01022632D01*
X01142052Y01022499D01*
X01142092Y01022447D01*
X01142145Y01022406D01*
X01142277Y01022255D01*
X01144575Y01020492D01*
X01144755Y01020403D01*
X01144808Y01020363D01*
X01144869Y01020338D01*
X01145036Y01020226D01*
X01147712Y01019118D01*
X01147909Y01019078D01*
X01147970Y01019053D01*
X01148036Y01019044D01*
X01148226Y01018980D01*
X01151098Y01018602D01*
X01151232Y01018611D01*
X01151364Y01018584D01*
X01151496Y01018611D01*
X01151630Y01018602D01*
X01154501Y01018980D01*
X01154692Y01019044D01*
X01154757Y01019053D01*
X01154819Y01019078D01*
X01155016Y01019118D01*
X01157692Y01020226D01*
X01157859Y01020338D01*
X01157920Y01020363D01*
X01157972Y01020403D01*
X01158153Y01020492D01*
X01160450Y01022255D01*
X01160583Y01022406D01*
X01160636Y01022447D01*
X01160676Y01022499D01*
X01160827Y01022632D01*
X01162590Y01024930D01*
X01162679Y01025110D01*
X01162719Y01025162D01*
X01162745Y01025223D01*
X01162856Y01025391D01*
X01163965Y01028066D01*
X01164004Y01028264D01*
X01164029Y01028325D01*
X01164038Y01028391D01*
X01164102Y01028581D01*
X01164480Y01031452D01*
X01164467Y01031653D01*
X01164476Y01031719D01*
X01164467Y01031784D01*
X01164480Y01031985D01*
X01164102Y01034856D01*
X01164038Y01035046D01*
X01164029Y01035112D01*
X01164004Y01035173D01*
X01163965Y01035370D01*
X01162856Y01038046D01*
X01162745Y01038213D01*
X01162719Y01038275D01*
X01162679Y01038327D01*
X01162590Y01038507D01*
X01160827Y01040805D01*
X01160676Y01040938D01*
X01160636Y01040990D01*
X01160583Y01041031D01*
X01160450Y01041182D01*
X01158153Y01042945D01*
X01157972Y01043034D01*
X01157920Y01043074D01*
X01157859Y01043099D01*
X01157692Y01043211D01*
X01155016Y01044319D01*
X01154819Y01044359D01*
X01154757Y01044384D01*
X01154692Y01044392D01*
X01154501Y01044457D01*
X01151630Y01044835D01*
X01151496Y01044826D01*
X01151364Y01044853D01*
D02*
G37*
G36*
X00527750Y01078862D02*
X00527651Y01078842D01*
X00527550Y01078852D01*
X00524610Y01078562D01*
X00524417Y01078504D01*
X00524218Y01078484D01*
X00521390Y01077627D01*
X00521213Y01077532D01*
X00521021Y01077474D01*
X00518415Y01076081D01*
X00518260Y01075953D01*
X00518083Y01075859D01*
X00515798Y01073984D01*
X00515671Y01073829D01*
X00515516Y01073702D01*
X00513641Y01071417D01*
X00513547Y01071240D01*
X00513419Y01071085D01*
X00512026Y01068479D01*
X00511968Y01068287D01*
X00511873Y01068110D01*
X00511016Y01065283D01*
X00510996Y01065082D01*
X00510938Y01064890D01*
X00510648Y01061950D01*
X00510668Y01061750D01*
X00510648Y01061550D01*
X00510938Y01058610D01*
X00510996Y01058418D01*
X00511016Y01058217D01*
X00511873Y01055390D01*
X00511968Y01055213D01*
X00512026Y01055021D01*
X00513419Y01052415D01*
X00513547Y01052260D01*
X00513641Y01052083D01*
X00515516Y01049798D01*
X00515671Y01049671D01*
X00515798Y01049516D01*
X00518083Y01047641D01*
X00518260Y01047547D01*
X00518415Y01047419D01*
X00521021Y01046026D01*
X00521213Y01045968D01*
X00521390Y01045873D01*
X00524218Y01045016D01*
X00524417Y01044996D01*
X00524610Y01044938D01*
X00527550Y01044648D01*
X00527651Y01044658D01*
X00527750Y01044638D01*
X00527849Y01044658D01*
X00527950Y01044648D01*
X00530890Y01044938D01*
X00531083Y01044996D01*
X00531283Y01045016D01*
X00534110Y01045873D01*
X00534287Y01045968D01*
X00534479Y01046026D01*
X00537085Y01047419D01*
X00537240Y01047547D01*
X00537417Y01047641D01*
X00539702Y01049516D01*
X00539829Y01049671D01*
X00539984Y01049798D01*
X00541859Y01052083D01*
X00541953Y01052260D01*
X00542081Y01052415D01*
X00543474Y01055021D01*
X00543532Y01055213D01*
X00543627Y01055390D01*
X00544484Y01058217D01*
X00544504Y01058418D01*
X00544562Y01058610D01*
X00544852Y01061550D01*
X00544832Y01061750D01*
X00544852Y01061950D01*
X00544562Y01064890D01*
X00544504Y01065082D01*
X00544484Y01065283D01*
X00543627Y01068110D01*
X00543532Y01068287D01*
X00543474Y01068479D01*
X00542081Y01071085D01*
X00541953Y01071240D01*
X00541859Y01071417D01*
X00539984Y01073702D01*
X00539829Y01073829D01*
X00539702Y01073984D01*
X00537417Y01075859D01*
X00537240Y01075953D01*
X00537085Y01076081D01*
X00534479Y01077474D01*
X00534287Y01077532D01*
X00534110Y01077627D01*
X00531283Y01078484D01*
X00531083Y01078504D01*
X00530890Y01078562D01*
X00527950Y01078852D01*
X00527849Y01078842D01*
X00527750Y01078862D01*
D02*
G37*
G36*
X00988245Y01070779D02*
X00978245D01*
X00977464Y01070624D01*
X00977413Y01070590D01*
X00976384Y01070584D01*
X00976325Y01070624D01*
X00975545Y01070779D01*
X00965545D01*
X00964764Y01070624D01*
X00964614Y01070524D01*
X00963782Y01070519D01*
X00963625Y01070624D01*
X00962845Y01070779D01*
X00952845D01*
X00952064Y01070624D01*
X00951816Y01070458D01*
X00951179Y01070454D01*
X00950925Y01070624D01*
X00950145Y01070779D01*
X00940145D01*
X00939364Y01070624D01*
X00939017Y01070392D01*
X00938576Y01070389D01*
X00938225Y01070624D01*
X00937445Y01070779D01*
X00927445D01*
X00926664Y01070624D01*
X00926218Y01070326D01*
X00921060Y01070299D01*
Y01044456D01*
X00938915D01*
X00939364Y01044156D01*
X00940145Y01044001D01*
X00950145D01*
X00950925Y01044156D01*
X00951375Y01044456D01*
X00951615D01*
X00952064Y01044156D01*
X00952845Y01044001D01*
X00962845D01*
X00963625Y01044156D01*
X00964074Y01044456D01*
X00964315D01*
X00964764Y01044156D01*
X00965545Y01044001D01*
X00975545D01*
X00976325Y01044156D01*
X00976775Y01044456D01*
X00977015D01*
X00977464Y01044156D01*
X00978245Y01044001D01*
X00988245D01*
X00989025Y01044156D01*
X00989474Y01044456D01*
X00995263D01*
X00995263Y01053665D01*
Y01056032D01*
X00996649Y01056606D01*
X00999919Y01053336D01*
Y01011408D01*
X00999759Y01011168D01*
X00999409Y01009412D01*
X00999759Y01007656D01*
X01000753Y01006168D01*
X01002242Y01005173D01*
X01003997Y01004824D01*
X01005753Y01005173D01*
X01006402Y01005607D01*
X01070723D01*
X01071610Y01005014D01*
X01073366Y01004665D01*
X01075122Y01005014D01*
X01076610Y01006009D01*
X01077605Y01007497D01*
X01077954Y01009253D01*
X01077605Y01011009D01*
X01076610Y01012497D01*
X01075122Y01013492D01*
X01073366Y01013841D01*
X01072967Y01013762D01*
X01072960Y01013764D01*
X01008076D01*
Y01055025D01*
X01007765Y01056586D01*
X01006881Y01057909D01*
X01006881Y01057909D01*
X00997684Y01067106D01*
X00996361Y01067990D01*
X00995263Y01068208D01*
Y01070682D01*
X00988899Y01070649D01*
X00988245Y01070779D01*
D02*
G37*
G36*
X01114790Y01046590D02*
X01112963Y01046349D01*
X01111260Y01045644D01*
X01109798Y01044522D01*
X01108676Y01043059D01*
X01107970Y01041357D01*
X01107730Y01039529D01*
Y01034529D01*
X01107970Y01032702D01*
X01108676Y01030999D01*
X01109798Y01029537D01*
X01111260Y01028415D01*
X01112963Y01027710D01*
X01114790Y01027469D01*
X01116617Y01027710D01*
X01118320Y01028415D01*
X01119782Y01029537D01*
X01120904Y01030999D01*
X01121610Y01032702D01*
X01121850Y01034529D01*
Y01039529D01*
X01121610Y01041357D01*
X01120904Y01043059D01*
X01119782Y01044522D01*
X01118320Y01045644D01*
X01116617Y01046349D01*
X01114790Y01046590D01*
D02*
G37*
G36*
X01187750Y01078862D02*
X01187651Y01078842D01*
X01187550Y01078852D01*
X01184610Y01078562D01*
X01184418Y01078504D01*
X01184218Y01078484D01*
X01181390Y01077627D01*
X01181213Y01077532D01*
X01181021Y01077474D01*
X01178415Y01076081D01*
X01178260Y01075953D01*
X01178083Y01075859D01*
X01175799Y01073984D01*
X01175671Y01073829D01*
X01175516Y01073702D01*
X01173642Y01071417D01*
X01173547Y01071240D01*
X01173419Y01071085D01*
X01172027Y01068479D01*
X01171968Y01068287D01*
X01171874Y01068110D01*
X01171016Y01065283D01*
X01170996Y01065082D01*
X01170938Y01064890D01*
X01170648Y01061950D01*
X01170668Y01061750D01*
X01170648Y01061550D01*
X01170938Y01058610D01*
X01170996Y01058418D01*
X01171016Y01058217D01*
X01171874Y01055390D01*
X01171968Y01055213D01*
X01172027Y01055021D01*
X01173419Y01052415D01*
X01173547Y01052260D01*
X01173642Y01052083D01*
X01175516Y01049798D01*
X01175671Y01049671D01*
X01175799Y01049516D01*
X01178083Y01047641D01*
X01178260Y01047547D01*
X01178415Y01047419D01*
X01181021Y01046026D01*
X01181213Y01045968D01*
X01181390Y01045873D01*
X01184218Y01045016D01*
X01184418Y01044996D01*
X01184610Y01044938D01*
X01187550Y01044648D01*
X01187651Y01044658D01*
X01187750Y01044638D01*
X01187850Y01044658D01*
X01187950Y01044648D01*
X01190891Y01044938D01*
X01191083Y01044996D01*
X01191283Y01045016D01*
X01194110Y01045873D01*
X01194287Y01045968D01*
X01194480Y01046026D01*
X01197085Y01047419D01*
X01197241Y01047547D01*
X01197418Y01047641D01*
X01199702Y01049516D01*
X01199829Y01049671D01*
X01199985Y01049798D01*
X01201859Y01052083D01*
X01201954Y01052260D01*
X01202081Y01052415D01*
X01203474Y01055021D01*
X01203532Y01055213D01*
X01203627Y01055390D01*
X01204485Y01058217D01*
X01204504Y01058418D01*
X01204563Y01058610D01*
X01204852Y01061550D01*
X01204833Y01061750D01*
X01204852Y01061950D01*
X01204563Y01064890D01*
X01204504Y01065082D01*
X01204485Y01065283D01*
X01203627Y01068110D01*
X01203532Y01068287D01*
X01203474Y01068479D01*
X01202081Y01071085D01*
X01201954Y01071240D01*
X01201859Y01071417D01*
X01199985Y01073702D01*
X01199829Y01073829D01*
X01199702Y01073984D01*
X01197418Y01075859D01*
X01197241Y01075953D01*
X01197085Y01076081D01*
X01194480Y01077474D01*
X01194287Y01077532D01*
X01194110Y01077627D01*
X01191283Y01078484D01*
X01191083Y01078504D01*
X01190891Y01078562D01*
X01187950Y01078852D01*
X01187850Y01078842D01*
X01187750Y01078862D01*
D02*
G37*
%LPD*%
G36*
X00929474Y00866796D02*
X00929701Y00866610D01*
Y00861532D01*
X00926892Y00858723D01*
X00926229Y00857731D01*
X00925996Y00856560D01*
X00925996Y00856560D01*
Y00850234D01*
X00917275Y00841513D01*
X00907593D01*
X00907019Y00842899D01*
X00910106Y00845986D01*
X00915820D01*
Y00865280D01*
X00917336Y00866796D01*
X00929474D01*
X00929474Y00866796D01*
D02*
G37*
G36*
X00929701Y00843328D02*
Y00807673D01*
X00887375D01*
X00874365Y00820683D01*
Y00827473D01*
X00874550Y00827596D01*
X00875545Y00829085D01*
X00875894Y00830841D01*
X00875545Y00832597D01*
X00874677Y00833895D01*
X00874894Y00834694D01*
X00875290Y00835395D01*
X00918542D01*
X00918542Y00835395D01*
X00919712Y00835628D01*
X00920705Y00836291D01*
X00928315Y00843902D01*
X00929701Y00843328D01*
D02*
G37*
G36*
X00562461Y00826467D02*
Y00782729D01*
X00557837Y00782705D01*
X00555993Y00780860D01*
X00554493Y00781482D01*
Y00832313D01*
X00555993Y00832934D01*
X00562461Y00826467D01*
D02*
G37*
G36*
X01048916Y00867760D02*
Y00845923D01*
X01047416Y00845468D01*
X01047219Y00845762D01*
X01045731Y00846757D01*
X01043975Y00847106D01*
X01043756Y00847063D01*
X00996357Y00894461D01*
X00996931Y00895847D01*
X01020829D01*
X01048916Y00867760D01*
D02*
G37*
G36*
X00630509Y01043513D02*
X00630185Y01043379D01*
X00630018Y01043267D01*
X00629957Y01043242D01*
X00629904Y01043201D01*
X00629724Y01043112D01*
X00627426Y01041349D01*
X00627294Y01041198D01*
X00627241Y01041158D01*
X00627201Y01041105D01*
X00627050Y01040973D01*
X00625287Y01038675D01*
X00625198Y01038495D01*
X00625157Y01038442D01*
X00625132Y01038381D01*
X00625020Y01038214D01*
X00623912Y01035538D01*
X00623873Y01035341D01*
X00623848Y01035280D01*
X00623839Y01035214D01*
X00623774Y01035024D01*
X00623396Y01032152D01*
X00623409Y01031952D01*
X00623401Y01031886D01*
X00623409Y01031821D01*
X00623396Y01031620D01*
X00623774Y01028748D01*
X00623839Y01028558D01*
X00623848Y01028493D01*
X00623873Y01028431D01*
X00623912Y01028234D01*
X00625020Y01025558D01*
X00625132Y01025391D01*
X00625157Y01025330D01*
X00625198Y01025278D01*
X00625287Y01025097D01*
X00627050Y01022800D01*
X00627201Y01022667D01*
X00627241Y01022615D01*
X00627294Y01022574D01*
X00627426Y01022423D01*
X00629724Y01020660D01*
X00629904Y01020571D01*
X00629957Y01020531D01*
X00630018Y01020506D01*
X00630185Y01020394D01*
X00632861Y01019285D01*
X00633058Y01019246D01*
X00633119Y01019221D01*
X00633185Y01019212D01*
X00633375Y01019148D01*
X00636247Y01018770D01*
X00636381Y01018778D01*
X00636513Y01018752D01*
X00636645Y01018778D01*
X00636779Y01018770D01*
X00639651Y01019148D01*
X00639841Y01019212D01*
X00639907Y01019221D01*
X00639968Y01019246D01*
X00640165Y01019285D01*
X00641510Y01019843D01*
X00642362Y01018623D01*
X00626901Y01003162D01*
X00606786D01*
X00606750Y01003217D01*
X00605261Y01004212D01*
X00603505Y01004561D01*
X00601750Y01004212D01*
X00600261Y01003217D01*
X00599267Y01001729D01*
X00598917Y00999973D01*
X00599267Y00998217D01*
X00600261Y00996728D01*
X00601750Y00995734D01*
X00603505Y00995385D01*
X00605261Y00995734D01*
X00606750Y00996728D01*
X00606961Y00997045D01*
X00628168D01*
X00628168Y00997045D01*
X00629339Y00997278D01*
X00630331Y00997941D01*
X00645792Y01013401D01*
X00744756D01*
X00745377Y01011901D01*
X00723268Y00989792D01*
X00722384Y00988469D01*
X00722074Y00986908D01*
X00722074Y00986908D01*
Y00949697D01*
X00698575Y00926199D01*
X00697096Y00925210D01*
X00696102Y00923722D01*
X00695752Y00921966D01*
X00696102Y00920210D01*
X00697096Y00918722D01*
X00698585Y00917727D01*
X00700341Y00917378D01*
X00702096Y00917727D01*
X00703585Y00918722D01*
X00704579Y00920210D01*
X00704693Y00920781D01*
X00729036Y00945124D01*
X00729036Y00945124D01*
X00729920Y00946447D01*
X00730230Y00948007D01*
X00730230Y00948008D01*
Y00985219D01*
X00750942Y01005931D01*
X00756955D01*
X00757195Y01005770D01*
X00758951Y01005421D01*
X00760706Y01005770D01*
X00762195Y01006765D01*
X00763190Y01008253D01*
X00763539Y01010009D01*
X00763190Y01011765D01*
X00763098Y01011901D01*
X00763900Y01013401D01*
X00779398D01*
X00898048Y00894751D01*
X00897474Y00893365D01*
X00848066D01*
X00831219Y00910213D01*
X00830227Y00910876D01*
X00829056Y00911109D01*
X00829056Y00911109D01*
X00560832D01*
X00559661Y00910876D01*
X00558669Y00910213D01*
X00558669Y00910213D01*
X00547589Y00899133D01*
X00547370Y00899176D01*
X00545614Y00898827D01*
X00544126Y00897832D01*
X00543131Y00896344D01*
X00542782Y00894588D01*
X00543131Y00892832D01*
X00544126Y00891344D01*
X00545614Y00890349D01*
X00547370Y00890000D01*
X00549126Y00890349D01*
X00549486Y00890589D01*
X00550107Y00890226D01*
X00550701Y00889598D01*
X00550402Y00888093D01*
X00550751Y00886337D01*
X00551746Y00884848D01*
X00553234Y00883854D01*
X00554990Y00883505D01*
X00556746Y00883854D01*
X00558234Y00884848D01*
X00558358Y00885034D01*
X00616283D01*
X00616407Y00884848D01*
X00617896Y00883854D01*
X00619651Y00883505D01*
X00621407Y00883854D01*
X00622896Y00884848D01*
X00623890Y00886337D01*
X00624239Y00888093D01*
X00623890Y00889848D01*
X00622896Y00891337D01*
X00621407Y00892332D01*
X00619651Y00892681D01*
X00617896Y00892332D01*
X00616407Y00891337D01*
X00616283Y00891152D01*
X00558358D01*
X00558234Y00891337D01*
X00556746Y00892332D01*
X00554990Y00892681D01*
X00553234Y00892332D01*
X00552874Y00892091D01*
X00552253Y00892455D01*
X00551659Y00893083D01*
X00551958Y00894588D01*
X00551915Y00894807D01*
X00562099Y00904991D01*
X00827789D01*
X00841124Y00891657D01*
X00840620Y00890039D01*
X00840047Y00889933D01*
X00828149Y00901831D01*
X00827157Y00902494D01*
X00825986Y00902727D01*
X00825986Y00902727D01*
X00657352D01*
X00656181Y00902494D01*
X00655189Y00901831D01*
X00635257Y00881899D01*
X00546351D01*
X00538869Y00889381D01*
X00538655Y00890456D01*
X00537660Y00891945D01*
X00536172Y00892939D01*
X00534416Y00893288D01*
X00532660Y00892939D01*
X00531172Y00891945D01*
X00530177Y00890456D01*
X00529828Y00888700D01*
X00530177Y00886945D01*
X00531172Y00885456D01*
X00532660Y00884461D01*
X00534416Y00884112D01*
X00535309Y00884290D01*
X00538535Y00881064D01*
X00537796Y00879681D01*
X00537354Y00879769D01*
X00535598Y00879420D01*
X00534109Y00878425D01*
X00533115Y00876937D01*
X00532766Y00875181D01*
X00533115Y00873425D01*
X00534109Y00871937D01*
X00535598Y00870942D01*
X00537354Y00870593D01*
X00539109Y00870942D01*
X00540154Y00871640D01*
X00547358D01*
X00548182Y00871089D01*
X00549352Y00870857D01*
X00549352Y00870857D01*
X00778990D01*
X00785201Y00864646D01*
X00785201Y00864646D01*
X00786193Y00863982D01*
X00787364Y00863750D01*
X00787364Y00863750D01*
X00790653D01*
X00811504Y00842899D01*
X00810930Y00841513D01*
X00631952D01*
X00630782Y00841280D01*
X00629789Y00840617D01*
X00629789Y00840617D01*
X00578735Y00789563D01*
X00578072Y00788570D01*
X00577839Y00787400D01*
X00577839Y00787400D01*
Y00782808D01*
X00571681Y00782776D01*
X00570617Y00783834D01*
Y00828156D01*
X00570307Y00829717D01*
X00569423Y00831040D01*
X00569423Y00831040D01*
X00527994Y00872468D01*
Y01017459D01*
X00613223Y01017459D01*
X00613223Y01043518D01*
X00613223D01*
X00613227Y01045013D01*
X00630211D01*
X00630509Y01043513D01*
D02*
G37*
G36*
X00679325Y01021019D02*
X00678704Y01019519D01*
X00644525D01*
X00644525Y01019519D01*
X00644064Y01019427D01*
X00643992Y01019544D01*
X00643557Y01020856D01*
X00645600Y01022423D01*
X00645732Y01022574D01*
X00645785Y01022615D01*
X00645825Y01022667D01*
X00645976Y01022800D01*
X00647739Y01025097D01*
X00647828Y01025278D01*
X00647868Y01025330D01*
X00647894Y01025391D01*
X00648005Y01025558D01*
X00649114Y01028234D01*
X00649153Y01028431D01*
X00649178Y01028493D01*
X00649187Y01028558D01*
X00649251Y01028748D01*
X00649630Y01031620D01*
X00649616Y01031821D01*
X00649625Y01031886D01*
X00649616Y01031952D01*
X00649630Y01032152D01*
X00649251Y01035024D01*
X00649187Y01035214D01*
X00649178Y01035280D01*
X00649153Y01035341D01*
X00649114Y01035538D01*
X00648005Y01038214D01*
X00647894Y01038381D01*
X00647868Y01038442D01*
X00647828Y01038495D01*
X00647739Y01038675D01*
X00645976Y01040973D01*
X00645825Y01041105D01*
X00645785Y01041158D01*
X00645732Y01041198D01*
X00645600Y01041349D01*
X00643302Y01043112D01*
X00643121Y01043201D01*
X00643069Y01043242D01*
X00643008Y01043267D01*
X00642841Y01043379D01*
X00642516Y01043513D01*
X00642815Y01045013D01*
X00655331D01*
X00679325Y01021019D01*
D02*
G37*
G36*
X00767098Y00895109D02*
X00766905Y00894820D01*
X00766556Y00893064D01*
X00766905Y00891308D01*
X00767900Y00889820D01*
X00769388Y00888825D01*
X00771144Y00888476D01*
X00772900Y00888825D01*
X00774388Y00889820D01*
X00774512Y00890005D01*
X00808993D01*
X00812044Y00886955D01*
X00811177Y00885730D01*
X00810006Y00885963D01*
X00810006Y00885963D01*
X00661482D01*
X00661358Y00886148D01*
X00659870Y00887143D01*
X00658114Y00887492D01*
X00656358Y00887143D01*
X00654870Y00886148D01*
X00653875Y00884660D01*
X00653526Y00882904D01*
X00653875Y00881148D01*
X00654870Y00879660D01*
X00656358Y00878665D01*
X00657318Y00878474D01*
X00657170Y00876974D01*
X00640944D01*
X00640370Y00878360D01*
X00658619Y00896609D01*
X00766297D01*
X00767098Y00895109D01*
D02*
G37*
G36*
X00809739Y00878845D02*
Y00855275D01*
X00808353Y00854701D01*
X00794083Y00868971D01*
X00793091Y00869634D01*
X00791920Y00869867D01*
X00791920Y00869867D01*
X00788631D01*
X00782420Y00876078D01*
X00781428Y00876741D01*
X00780257Y00876974D01*
X00780257Y00876974D01*
X00659058D01*
X00658910Y00878474D01*
X00659870Y00878665D01*
X00661358Y00879660D01*
X00661482Y00879845D01*
X00808739D01*
X00809739Y00878845D01*
D02*
G37*
G36*
X01039430Y00842737D02*
X01039387Y00842518D01*
X01039736Y00840762D01*
X01040731Y00839274D01*
X01042219Y00838279D01*
X01043975Y00837930D01*
X01045731Y00838279D01*
X01047219Y00839274D01*
X01047416Y00839568D01*
X01048916Y00839113D01*
Y00834456D01*
X01048731Y00834332D01*
X01047736Y00832844D01*
X01047387Y00831088D01*
X01047736Y00829332D01*
X01048492Y00828201D01*
X01048047Y00826980D01*
X01047827Y00826701D01*
X01014465D01*
X00974300Y00866866D01*
X00974341Y00867235D01*
X00975980Y00868438D01*
X00976122Y00868410D01*
X00977878Y00868759D01*
X00979366Y00869754D01*
X00980361Y00871242D01*
X00980710Y00872998D01*
X00980361Y00874754D01*
X00979465Y00876094D01*
X00979391Y00876405D01*
X00979424Y00876614D01*
X00981083Y00877679D01*
X00981710Y00877554D01*
X00983466Y00877903D01*
X00984954Y00878898D01*
X00985949Y00880386D01*
X00986298Y00882142D01*
X00985949Y00883898D01*
X00984954Y00885386D01*
X00983466Y00886381D01*
X00981710Y00886730D01*
X00981491Y00886687D01*
X00978504Y00889674D01*
Y00891789D01*
X00990378D01*
X01039430Y00842737D01*
D02*
G37*
%LPC*%
G36*
X00651353Y00974189D02*
X00649597Y00973840D01*
X00648109Y00972845D01*
X00647582Y00972057D01*
X00549329D01*
X00548088Y00972886D01*
X00546333Y00973235D01*
X00544577Y00972886D01*
X00543088Y00971891D01*
X00542094Y00970403D01*
X00541745Y00968647D01*
X00542094Y00966891D01*
X00543088Y00965403D01*
X00544577Y00964408D01*
X00546333Y00964059D01*
X00548088Y00964408D01*
X00549577Y00965403D01*
X00549936Y00965939D01*
X00648733D01*
X00649597Y00965362D01*
X00651353Y00965013D01*
X00653109Y00965362D01*
X00654597Y00966357D01*
X00655592Y00967845D01*
X00655941Y00969601D01*
X00655592Y00971357D01*
X00654597Y00972845D01*
X00653109Y00973840D01*
X00651353Y00974189D01*
D02*
G37*
%LPD*%
D22*
X00577596Y00760730D02*
X00580898Y00764032D01*
Y00787400D01*
X00631952Y00838454D01*
X00918542D01*
X00929055Y00848967D01*
Y00856560D01*
X00939540Y00867046D01*
X00933826Y00874206D02*
X00943418D01*
X00950976Y00866648D01*
X00951134Y00866490D01*
X00950976Y00866648D02*
Y00852053D01*
X00939730Y00840807D01*
X00918750Y00850353D02*
Y00857283D01*
Y00850353D02*
X00914532Y00846135D01*
X00951364Y00831887D02*
X00959612Y00840135D01*
Y00869100D01*
X00950506Y00878206D01*
X00930073D01*
X00925722Y00873855D01*
X00917726D01*
X00909514Y00882067D01*
X00830001D01*
X00824139Y00876205D01*
X00824160Y00876326D02*
X00823968Y00876134D01*
X00816776D01*
X00810006Y00882904D01*
X00658114D01*
X00636524Y00878840D02*
X00657352Y00899668D01*
X00825986D01*
X00839448Y00886207D01*
X00842100D01*
X00842158Y00886149D01*
X00842100Y00886207D02*
X00962914D01*
X00976122Y00872998D01*
X00981710Y00882142D02*
X00973545Y00890307D01*
X00846799D01*
X00846258Y00890848D01*
X00846195D01*
X00846258D02*
X00829056Y00908050D01*
X00560832D01*
X00547370Y00894588D01*
X00534883Y00889041D02*
X00545084Y00878840D01*
X00636524D01*
X00619651Y00888093D02*
X00554990D01*
X00549352Y00873915D02*
X00780257D01*
X00787364Y00866808D01*
X00791920D01*
X00815065Y00843664D01*
X00903459D01*
X00911278Y00851483D01*
Y00865064D01*
X00916069Y00869855D01*
X00929475D01*
X00933826Y00874206D01*
X00927523Y00882206D02*
X00954634D01*
X01013198Y00823642D01*
X01100094D01*
X01076014Y00789334D02*
X01069620Y00782941D01*
X01040097D01*
X01030114Y00792924D01*
X00864305D01*
X00864426Y00792803D01*
X00864305Y00792924D02*
X00864274D01*
X00864305D02*
X00864153Y00793076D01*
X00869950Y00798576D02*
X01030970D01*
X01040520Y00789025D01*
X01051090D01*
X01052288Y00790224D01*
X01043135Y00795454D02*
X01033975Y00804614D01*
X00886108D01*
X00871306Y00819416D01*
Y00830841D01*
X00875864Y00859718D02*
X00892351Y00876205D01*
X00905975D01*
X00925017Y00879701D02*
X00927523Y00882206D01*
X00908716Y00894796D02*
X00908664Y00894848D01*
X00991645D01*
X01043975Y00842518D01*
X01051975Y00831088D02*
Y00869027D01*
X01022096Y00898906D01*
X00906776D01*
X00783332Y01022350D01*
X00682320D01*
X00656598Y01048072D01*
X00565978D01*
X00550672Y01032765D01*
X00546574Y00969978D02*
X00546941Y00969611D01*
X00546333Y00969003D01*
Y00968647D01*
X00546694Y00968998D02*
X00649973D01*
X00651128Y00970153D01*
X00628168Y01000104D02*
X00644525Y01016460D01*
X00780665D01*
X00902277Y00894848D01*
X00908664D01*
X00926584Y00918630D02*
Y00931887D01*
X00895971Y00962500D01*
Y00974553D01*
X00875864Y00994660D01*
Y01003718D01*
X00907662Y00981422D02*
X00932445Y01006205D01*
Y01051040D01*
X00907662Y00981422D02*
Y00963585D01*
X00849554Y00873303D02*
Y00859950D01*
X00849751Y00859754D01*
X00821690Y00881634D02*
X00810260Y00893064D01*
X00771144D01*
X00787775Y00822324D02*
X00826554D01*
X00861136Y00787741D01*
X01029640D01*
X01038440Y00778941D01*
X01086035D01*
X01090130Y00783037D01*
Y00783402D01*
X01090768Y00784040D01*
X01090866D01*
X01099390Y00774941D02*
X01104591Y00780142D01*
X01104667D01*
X01099390Y00774941D02*
X01036783D01*
X01028804Y00782920D01*
X00854752D01*
X00846877Y00790796D01*
X00845229D01*
X00958449Y00770685D02*
X00971832D01*
X01103884Y00908013D02*
Y00911606D01*
Y00908013D02*
X01174608Y00837289D01*
Y00834276D01*
X01188095Y00820789D01*
Y00813380D01*
X01199733Y00850418D02*
Y00870166D01*
X01193691Y00876208D01*
X01176385D01*
X01133094Y00919499D01*
X01129030Y00935482D02*
X01142193D01*
X01188095Y00889580D01*
Y00864180D02*
X01167312D01*
X01103884Y00927608D01*
X01098042Y00947420D02*
X01103480Y00952858D01*
X01175617D01*
X01188095Y00940380D01*
Y00914980D02*
X01159576Y00943499D01*
X01155954D01*
X01173181Y00980694D02*
X01188095Y00965780D01*
X01173181Y00980694D02*
X01100328D01*
X01092200Y00972566D01*
X01102394Y00973582D02*
X01076232Y00947420D01*
X01068070D01*
X01083975Y00940816D02*
X01064514D01*
X01062482Y00942848D01*
Y00975360D01*
X01072896Y00985774D01*
X01105154D01*
X01110560Y00991180D01*
X01188095D01*
Y00838780D02*
X01199733Y00850418D01*
X00831687Y01034870D02*
Y01012021D01*
X00824786Y01005121D01*
X00825706Y01004201D01*
X00628168Y01000104D02*
X00603822D01*
X00604450Y00943977D02*
X00557365D01*
X00541236Y00927849D01*
X00516890Y00883700D02*
Y00868156D01*
X00551434Y00833612D01*
Y00766064D01*
X00556768Y00760730D01*
X00577596D01*
X00549352Y00873915D02*
X00548569Y00874699D01*
X00538077D01*
D23*
X00653034Y00759714D02*
X00656732Y00763412D01*
X00692709D01*
X00653034Y00759714D02*
X00603582D01*
X00591939Y00771357D01*
X00566539D02*
Y00828156D01*
X00523916Y00870779D01*
Y01031380D01*
X00523674Y01031138D01*
X00700436Y00922291D02*
X00726152Y00948007D01*
Y00986908D01*
X00749253Y01010009D01*
X00758951D01*
X00824983Y00865183D02*
X00833464Y00873664D01*
X00824983Y00865183D02*
Y00860778D01*
X00913327Y00905011D02*
X00916942Y00908626D01*
X00935141D01*
X00942340Y00915825D01*
Y00975758D01*
X01003632Y01009412D02*
X01003997D01*
Y01055025D01*
X00994800Y01064222D01*
X00984918D01*
X01004086Y01009441D02*
X01004331Y01009685D01*
X01072960D01*
X01052629Y00901698D02*
X01114882Y00839445D01*
X01161364D01*
D24*
X01021790Y01037029D02*
D03*
Y01059279D02*
D03*
X01114790Y01037029D02*
D03*
Y01059279D02*
D03*
D25*
X00939730Y00815406D02*
D03*
D26*
X00939730Y00828107D02*
D03*
Y00840807D02*
D03*
Y00853506D02*
D03*
Y00866207D02*
D03*
D27*
X00566539Y00771357D02*
D03*
X00601351Y01030716D02*
D03*
D28*
X00617339Y00771357D02*
D03*
X00591939D02*
D03*
X00575951Y01030716D02*
D03*
X00550551D02*
D03*
X00525151D02*
D03*
X01188095Y00813380D02*
D03*
Y00838780D02*
D03*
Y00864180D02*
D03*
Y00889580D02*
D03*
Y00914980D02*
D03*
Y00940380D02*
D03*
Y00965780D02*
D03*
D29*
X01188095Y00991180D02*
D03*
D30*
X00743509Y00763412D02*
D03*
Y00776112D02*
D03*
X00730809D02*
D03*
Y00763412D02*
D03*
X00718109D02*
D03*
Y00776112D02*
D03*
X00705409D02*
D03*
Y00763412D02*
D03*
X00692709D02*
D03*
Y00776112D02*
D03*
X00970545Y01051040D02*
D03*
Y01063740D02*
D03*
X00983245D02*
D03*
Y01051040D02*
D03*
X00957845D02*
D03*
X00945145D02*
D03*
Y01063740D02*
D03*
X00957845D02*
D03*
X00932445D02*
D03*
Y01051040D02*
D03*
D31*
X00636364Y00791719D02*
D03*
X00636513Y01031886D02*
D03*
X01151364Y00791719D02*
D03*
Y01031719D02*
D03*
D32*
X00674810Y00756033D02*
D03*
X00690333Y00786566D02*
D03*
Y00804583D02*
D03*
X00716698Y00830728D02*
D03*
X00746139Y00805461D02*
D03*
X00745700Y00787005D02*
D03*
X00783219Y00756033D02*
D03*
X00780414Y00786127D02*
D03*
X00811943Y00794366D02*
D03*
X00787720Y00822104D02*
D03*
X00790136Y00853084D02*
D03*
X00821690Y00881634D02*
D03*
X00833464Y00873664D02*
D03*
X00849554Y00873303D02*
D03*
X00879098Y00904649D02*
D03*
X00905975Y00876567D02*
D03*
X00913373Y00845557D02*
D03*
X00911385Y00827840D02*
D03*
X00896815Y00812690D02*
D03*
X00909252Y00775736D02*
D03*
X00909751Y00755535D02*
D03*
X00865356Y00776152D02*
D03*
X00869950Y00798576D02*
D03*
X00871306Y00830841D02*
D03*
X00863550Y00793767D02*
D03*
X00845682Y00791512D02*
D03*
X00823789Y00756033D02*
D03*
X00861782Y00755285D02*
D03*
X00924776Y00812690D02*
D03*
X00953896Y00776318D02*
D03*
X00958884Y00770665D02*
D03*
X00958302Y00811817D02*
D03*
X00951364Y00831887D02*
D03*
X00987822Y00839407D02*
D03*
X00988481Y00860169D02*
D03*
X01002103Y00820402D02*
D03*
X01026889Y00832684D02*
D03*
X01044116Y00795019D02*
D03*
X01051961Y00789352D02*
D03*
X01090866Y00784040D02*
D03*
X01092624Y00757894D02*
D03*
X01107530Y00755119D02*
D03*
X01133600Y00758553D02*
D03*
X01166776Y00761958D02*
D03*
X01136657Y00784367D02*
D03*
X01101632Y00792279D02*
D03*
X01104667Y00780142D02*
D03*
X01076104Y00789425D02*
D03*
X01108553Y00813920D02*
D03*
X01100094Y00823807D02*
D03*
X01094821Y00830289D02*
D03*
X01130085Y00822599D02*
D03*
X01150999Y00822934D02*
D03*
X01172709Y00791070D02*
D03*
X01203801Y00796520D02*
D03*
X01203967Y00832435D02*
D03*
X01173148Y00856654D02*
D03*
X01172709Y00816996D02*
D03*
X01161770Y00839315D02*
D03*
X01174027Y00870496D02*
D03*
X01204299Y00880820D02*
D03*
X01172489Y00893126D02*
D03*
X01203884Y00918231D02*
D03*
X01204127Y00957062D02*
D03*
X01170072Y00959479D02*
D03*
X01171830Y00941572D02*
D03*
X01172709Y00916745D02*
D03*
X01155954Y00943499D02*
D03*
X01153484Y00934322D02*
D03*
X01150957Y00914877D02*
D03*
X01133094Y00919499D02*
D03*
X01129030Y00935482D02*
D03*
X01098042Y00947420D02*
D03*
X01110202Y00960150D02*
D03*
X01103884Y00927608D02*
D03*
X01101632Y00920041D02*
D03*
X01103884Y00911606D02*
D03*
X01094601Y00883898D02*
D03*
X01129096Y00859510D02*
D03*
X01134969Y00886209D02*
D03*
X01084751Y00926461D02*
D03*
X01069554Y00906638D02*
D03*
X01057815Y00924965D02*
D03*
X01052629Y00901698D02*
D03*
X01057815Y00878076D02*
D03*
X01043975Y00842518D02*
D03*
X01051975Y00831088D02*
D03*
X01060766Y00830838D02*
D03*
X01081528Y00861707D02*
D03*
X01031877Y00905511D02*
D03*
X01041022Y00863777D02*
D03*
X01019350Y00856654D02*
D03*
X00996960Y00880071D02*
D03*
X01007376Y00892247D02*
D03*
X00986846Y00906577D02*
D03*
X00981710Y00882142D02*
D03*
X00976122Y00872998D02*
D03*
X00948933Y00913669D02*
D03*
X00950976Y00866648D02*
D03*
X00924415Y00880544D02*
D03*
X00918750Y00857283D02*
D03*
X00912724Y00905011D02*
D03*
X00905011Y00912001D02*
D03*
X00926870Y00919584D02*
D03*
X00949262Y00933443D02*
D03*
X00983492Y00940927D02*
D03*
X01003421Y00942122D02*
D03*
X01037037Y00942561D02*
D03*
X01048242Y00974200D02*
D03*
X01068070Y00947420D02*
D03*
X01083975Y00940816D02*
D03*
X01092200Y00972566D02*
D03*
X01102394Y00973582D02*
D03*
X01117340Y01008931D02*
D03*
X01125822Y01027708D02*
D03*
X01142080Y01018182D02*
D03*
X01165702Y01049518D02*
D03*
X01167631Y01077479D02*
D03*
X01130558Y01077186D02*
D03*
X01126319Y01066128D02*
D03*
X01170292Y00999247D02*
D03*
X01203798Y01015725D02*
D03*
X01153813Y00974419D02*
D03*
X01073366Y01009253D02*
D03*
X01037197Y00999953D02*
D03*
X01020339Y00973870D02*
D03*
X01003997Y01009412D02*
D03*
X00994083Y01002323D02*
D03*
X00993424Y01016164D02*
D03*
X01013961Y01016580D02*
D03*
X01010589Y01037104D02*
D03*
X01010178Y01065339D02*
D03*
X01006936Y01077435D02*
D03*
X00951459Y01016055D02*
D03*
X00950471Y01001773D02*
D03*
X00942538Y00975506D02*
D03*
X00950251Y00966949D02*
D03*
X00987932Y00973101D02*
D03*
X00918389Y01040840D02*
D03*
X00907750Y01051750D02*
D03*
X00923451Y01077721D02*
D03*
X00865273Y01047174D02*
D03*
X00831687Y01034870D02*
D03*
X00833584Y01015395D02*
D03*
X00858412Y00988700D02*
D03*
X00881811Y00965851D02*
D03*
X00907542Y00963826D02*
D03*
X00898070Y00949592D02*
D03*
X00927621Y00956183D02*
D03*
X00933773Y00986284D02*
D03*
X00844988Y00939763D02*
D03*
X00814105Y00925082D02*
D03*
X00801507Y00961017D02*
D03*
X00789855Y00915123D02*
D03*
X00767839Y00961045D02*
D03*
X00766508Y00918480D02*
D03*
X00771144Y00893064D02*
D03*
X00789642Y00872308D02*
D03*
X00785687Y00829630D02*
D03*
X00787280Y00812492D02*
D03*
X00787225Y00795245D02*
D03*
X00748336Y00829190D02*
D03*
X00743630Y00863189D02*
D03*
X00713105Y00853405D02*
D03*
X00687031Y00860285D02*
D03*
X00692743Y00832024D02*
D03*
X00677944Y00822813D02*
D03*
X00659986Y00822331D02*
D03*
X00658694Y00789203D02*
D03*
X00672756Y00772505D02*
D03*
X00634086Y00768989D02*
D03*
X00608051Y00787775D02*
D03*
X00585311Y00834573D02*
D03*
X00622662Y00839297D02*
D03*
X00631450Y00860828D02*
D03*
X00658114Y00882904D02*
D03*
X00659144Y00891891D02*
D03*
X00651718Y00901860D02*
D03*
X00680048Y00915986D02*
D03*
X00686200Y00891710D02*
D03*
X00722114D02*
D03*
X00761569Y00890873D02*
D03*
X00730760Y00916651D02*
D03*
X00726341Y00933838D02*
D03*
X00736911Y00961346D02*
D03*
X00715709Y00990568D02*
D03*
X00711884Y00948296D02*
D03*
X00700341Y00921966D02*
D03*
X00651353Y00969601D02*
D03*
X00657922Y00990243D02*
D03*
X00658940Y00949721D02*
D03*
X00644686Y00950332D02*
D03*
X00655071Y00924064D02*
D03*
X00619651Y00888093D02*
D03*
X00606842Y00898179D02*
D03*
X00585439Y00928456D02*
D03*
X00604450Y00943977D02*
D03*
X00597245Y00961710D02*
D03*
X00606952Y00988920D02*
D03*
X00603505Y00999973D02*
D03*
X00607015Y01009995D02*
D03*
X00631164Y01016247D02*
D03*
X00646112Y01008570D02*
D03*
X00684038Y01006271D02*
D03*
X00701295Y01028932D02*
D03*
X00730760Y01008035D02*
D03*
X00749764Y00997599D02*
D03*
X00758951Y01010009D02*
D03*
X00769099Y01010013D02*
D03*
X00788653Y00997269D02*
D03*
X00765511Y01033207D02*
D03*
X00795816Y01047469D02*
D03*
X00711329Y01077238D02*
D03*
X00726146Y01045715D02*
D03*
X00677150Y01043958D02*
D03*
X00673602Y01022416D02*
D03*
X00652114Y01040190D02*
D03*
X00657335Y01077479D02*
D03*
X00599572Y01078100D02*
D03*
X00581887Y01057352D02*
D03*
X00565097Y01016494D02*
D03*
X00582015Y01015835D02*
D03*
X00581646Y00985942D02*
D03*
X00559108Y00977385D02*
D03*
X00559668Y00955060D02*
D03*
X00546333Y00968647D02*
D03*
X00533679Y00988700D02*
D03*
X00516761Y01010781D02*
D03*
X00514774Y00966033D02*
D03*
X00531701Y00944209D02*
D03*
X00541359Y00927414D02*
D03*
X00555540Y00914109D02*
D03*
X00547370Y00894588D02*
D03*
X00554990Y00888093D02*
D03*
X00534416Y00888700D02*
D03*
X00537354Y00875181D02*
D03*
X00544703Y00869098D02*
D03*
X00577401Y00861488D02*
D03*
X00557627Y00819633D02*
D03*
X00577511Y00795794D02*
D03*
X00559165Y00786786D02*
D03*
X00592007Y00755119D02*
D03*
X00543675Y00785687D02*
D03*
X00545036Y00756283D02*
D03*
X00513135Y00786786D02*
D03*
X00512476Y00828860D02*
D03*
X00512779Y00863528D02*
D03*
X00516890Y00883700D02*
D03*
X00515443Y00906638D02*
D03*
X00575204Y00896861D02*
D03*
X00549406Y01055363D02*
D03*
X00548361Y01077102D02*
D03*
X00999870Y00755119D02*
D03*
X01035867Y00754620D02*
D03*
D33*
X00931264Y00765219D02*
D03*
X00971264D02*
D03*
D34*
X00850464Y00859718D02*
D03*
X00875864D02*
D03*
X00901264D02*
D03*
X00825064D02*
D03*
X00901264Y01003718D02*
D03*
X00875864D02*
D03*
X00850464D02*
D03*
X00825064D02*
D03*
M02*
