M48
;Layer_Color=9474304
;FILE_FORMAT=4:4
METRIC
;TYPE=PLATED
T1F00S00C0.2500
T2F00S00C0.6000
T4F00S00C0.9000
T5F00S00C3.0000
%
T01
X00823789Y00756033
X00861782Y00755285
X00865356Y00776152
X00845682Y00791512
X00909252Y00775736
X00909751Y00755535
X00958884Y00770665
X00953896Y00776318
X00999870Y00755119
X01035867Y00754620
X01051961Y00789352
X01076104Y00789425
X01090866Y00784040
X01104667Y00780142
X01101632Y00792279
X01136657Y00784367
X01133600Y00758553
X01107530Y00755119
X01092624Y00757894
X01166776Y00761958
X01172709Y00791070
X00780414Y00786127
X00783219Y00756033
X00745700Y00787005
X00690333Y00786566
X00672756Y00772505
X00674810Y00756033
X00658694Y00789203
X00634086Y00768989
X00608051Y00787775
X00592007Y00755119
X00545036Y00756283
X00543675Y00785687
X00559165Y00786786
X00513135
X00512476Y00828860
X00512779Y00863528
X00516890Y00883700
X00534416Y00888700
X00537354Y00875181
X00544703Y00869098
X00547370Y00894588
X00554990Y00888093
X00555540Y00914109
X00541359Y00927414
X00531701Y00944209
X00514774Y00966033
X00546333Y00968647
X00559108Y00977385
X00559668Y00955060
X00597245Y00961710
X00604450Y00943977
X00585439Y00928456
X00575204Y00896861
X00606842Y00898179
X00619651Y00888093
X00631450Y00860828
X00622662Y00839297
X00585311Y00834573
X00577401Y00861488
X00557627Y00819633
X00577511Y00795794
X00659986Y00822331
X00677944Y00822813
X00692743Y00832024
X00716698Y00830728
X00713105Y00853405
X00687031Y00860285
X00686200Y00891710
X00659144Y00891891
X00658114Y00882904
X00651718Y00901860
X00655071Y00924064
X00658940Y00949721
X00644686Y00950332
X00651353Y00969601
X00657922Y00990243
X00646112Y01008570
X00631164Y01016247
X00607015Y01009995
X00603505Y00999973
X00606952Y00988920
X00581646Y00985942
X00582015Y01015835
X00565097Y01016494
X00516761Y01010781
X00533679Y00988700
X00549406Y01055363
X00548361Y01077102
X00599572Y01078100
X00581887Y01057352
X00652114Y01040190
X00677150Y01043958
X00673602Y01022416
X00684038Y01006271
X00701295Y01028932
X00726146Y01045715
X00730760Y01008035
X00749764Y00997599
X00758951Y01010009
X00769099Y01010013
X00765511Y01033207
X00788653Y00997269
X00767839Y00961045
X00736911Y00961346
X00726341Y00933838
X00730760Y00916651
X00722114Y00891710
X00761569Y00890873
X00771144Y00893064
X00766508Y00918480
X00789855Y00915123
X00789642Y00872308
X00790136Y00853084
X00785687Y00829630
X00787720Y00822104
X00787280Y00812492
X00787225Y00795245
X00746139Y00805461
X00748336Y00829190
X00743630Y00863189
X00700341Y00921966
X00680048Y00915986
X00711884Y00948296
X00715709Y00990568
X00711329Y01077238
X00657335Y01077479
X00690333Y00804583
X00515443Y00906638
X00814105Y00925082
X00844988Y00939763
X00858412Y00988700
X00881811Y00965851
X00907542Y00963826
X00898070Y00949592
X00927621Y00956183
X00950251Y00966949
X00942538Y00975506
X00933773Y00986284
X00950471Y01001773
X00951459Y01016055
X00993424Y01016164
X00994083Y01002323
X01003997Y01009412
X01013961Y01016580
X01010589Y01037104
X01010178Y01065339
X01006936Y01077435
X00923451Y01077721
X00907750Y01051750
X00918389Y01040840
X00865273Y01047174
X00831687Y01034870
X00833584Y01015395
X00795816Y01047469
X00801507Y00961017
X00821690Y00881634
X00833464Y00873664
X00849554Y00873303
X00905975Y00876567
X00924415Y00880544
X00918750Y00857283
X00913373Y00845557
X00911385Y00827840
X00924776Y00812690
X00896815
X00869950Y00798576
X00863550Y00793767
X00871306Y00830841
X00951364Y00831887
X00958302Y00811817
X01002103Y00820402
X00987822Y00839407
X00988481Y00860169
X00976122Y00872998
X00981710Y00882142
X00996960Y00880071
X01007376Y00892247
X00986846Y00906577
X00983492Y00940927
X01003421Y00942122
X01037037Y00942561
X01068070Y00947420
X01083975Y00940816
X01084751Y00926461
X01103884Y00927608
X01101632Y00920041
X01103884Y00911606
X01094601Y00883898
X01081528Y00861707
X01057815Y00878076
X01052629Y00901698
X01069554Y00906638
X01057815Y00924965
X01031877Y00905511
X01041022Y00863777
X01043975Y00842518
X01051975Y00831088
X01060766Y00830838
X01094821Y00830289
X01100094Y00823807
X01108553Y00813920
X01130085Y00822599
X01150999Y00822934
X01161770Y00839315
X01173148Y00856654
X01174027Y00870496
X01172489Y00893126
X01172709Y00916745
X01150957Y00914877
X01153484Y00934322
X01155954Y00943499
X01171830Y00941572
X01170072Y00959479
X01153813Y00974419
X01170292Y00999247
X01142080Y01018182
X01125822Y01027708
X01117340Y01008931
X01073366Y01009253
X01037197Y00999953
X01048242Y00974200
X01020339Y00973870
X00987932Y00973101
X00949262Y00933443
X00948933Y00913669
X00926870Y00919584
X00912724Y00905011
X00905011Y00912001
X00879098Y00904649
X00950976Y00866648
X01019350Y00856654
X01026889Y00832684
X01044116Y00795019
X01129096Y00859510
X01134969Y00886209
X01133094Y00919499
X01129030Y00935482
X01098042Y00947420
X01110202Y00960150
X01102394Y00973582
X01092200Y00972566
X01126319Y01066128
X01130558Y01077186
X01167631Y01077479
X01165702Y01049518
X01172709Y00816996
X00811943Y00794366
X01203801Y00796520
X01203967Y00832435
X01204299Y00880820
X01203884Y00918231
X01204127Y00957062
X01203798Y01015725
T02
X00692709Y00763412
X00705409
X00718109
X00730809
X00743509
Y00776112
X00730809
X00718109
X00705409
X00692709
X00939730Y00815406
Y00828107
Y00840807
Y00853506
Y00866207
X00945145Y01051040
X00932445
Y01063740
X00945145
X00957845
Y01051040
X00970545
Y01063740
X00983245
Y01051040
T04
X00566539Y00771357
X00591939
X00617339
X00601351Y01030716
X00575951
X00550551
X00525151
X01188095Y00991180
Y00965780
Y00940380
Y00914980
Y00889580
Y00864180
Y00838780
Y00813380
T05
X01187750Y00771750
X00527750
Y01061750
X01187750
M30
