G04 Layer_Color=65535*
%FSAX44Y44*%
%MOMM*%
G71*
G01*
G75*
%ADD17C,0.2000*%
%ADD30C,0.2500*%
%ADD31C,0.6000*%
%ADD32C,0.2540*%
%ADD33C,0.1800*%
%ADD34C,0.1524*%
%ADD35C,0.1000*%
%ADD36C,0.1500*%
G36*
X00541945Y01074584D02*
X00541745D01*
Y01084584D01*
X00541945D01*
Y01074584D01*
D02*
G37*
G36*
X00542745D02*
X00542345D01*
Y01084584D01*
X00542745D01*
Y01074584D01*
D02*
G37*
G36*
X00541545D02*
X00540745D01*
Y01084584D01*
X00541545D01*
Y01074584D01*
D02*
G37*
G36*
X00539745D02*
X00539545D01*
Y01084584D01*
X00539745D01*
Y01074584D01*
D02*
G37*
G36*
X00540345D02*
X00540145D01*
Y01084584D01*
X00540345D01*
Y01074584D01*
D02*
G37*
G36*
X00543345D02*
X00542945D01*
Y01084584D01*
X00543345D01*
Y01074584D01*
D02*
G37*
G36*
X00546545D02*
X00545745D01*
Y01084584D01*
X00546545D01*
Y01074584D01*
D02*
G37*
G36*
X00547145D02*
X00546745D01*
Y01084584D01*
X00547145D01*
Y01074584D01*
D02*
G37*
G36*
X00545545D02*
X00545345D01*
Y01084584D01*
X00545545D01*
Y01074584D01*
D02*
G37*
G36*
X00544345D02*
X00543545D01*
Y01084584D01*
X00544345D01*
Y01074584D01*
D02*
G37*
G36*
X00545145D02*
X00544545D01*
Y01084584D01*
X00545145D01*
Y01074584D01*
D02*
G37*
G36*
X00539345D02*
X00538945D01*
Y01084584D01*
X00539345D01*
Y01074584D01*
D02*
G37*
G36*
X00533145D02*
X00532745D01*
Y01084584D01*
X00533145D01*
Y01074584D01*
D02*
G37*
G36*
X00533745D02*
X00533545D01*
Y01084584D01*
X00533745D01*
Y01074584D01*
D02*
G37*
G36*
X00532545D02*
X00532345D01*
Y01084584D01*
X00532545D01*
Y01074584D01*
D02*
G37*
G36*
X00530545D02*
X00530345D01*
Y01084584D01*
X00530545D01*
Y01074584D01*
D02*
G37*
G36*
X00531545D02*
X00531345D01*
Y01084584D01*
X00531545D01*
Y01074584D01*
D02*
G37*
G36*
X00534945D02*
X00534145D01*
Y01084584D01*
X00534945D01*
Y01074584D01*
D02*
G37*
G36*
X00537745D02*
X00536945D01*
Y01084584D01*
X00537745D01*
Y01074584D01*
D02*
G37*
G36*
X00538145D02*
X00537945D01*
Y01084584D01*
X00538145D01*
Y01074584D01*
D02*
G37*
G36*
X00536545D02*
X00536345D01*
Y01084584D01*
X00536545D01*
Y01074584D01*
D02*
G37*
G36*
X00535545D02*
X00535345D01*
Y01084584D01*
X00535545D01*
Y01074584D01*
D02*
G37*
G36*
X00535945D02*
X00535745D01*
Y01084584D01*
X00535945D01*
Y01074584D01*
D02*
G37*
G36*
X00559145D02*
X00558345D01*
Y01084584D01*
X00559145D01*
Y01074584D01*
D02*
G37*
G36*
X00559745D02*
X00559545D01*
Y01084584D01*
X00559745D01*
Y01074584D01*
D02*
G37*
G36*
X00557945D02*
X00557745D01*
Y01084584D01*
X00557945D01*
Y01074584D01*
D02*
G37*
G36*
X00556745D02*
X00556545D01*
Y01084584D01*
X00556745D01*
Y01074584D01*
D02*
G37*
G36*
X00557545D02*
X00557145D01*
Y01084584D01*
X00557545D01*
Y01074584D01*
D02*
G37*
G36*
X00560345D02*
X00559945D01*
Y01084584D01*
X00560345D01*
Y01074584D01*
D02*
G37*
G36*
X00562945D02*
X00562545D01*
Y01084584D01*
X00562945D01*
Y01074584D01*
D02*
G37*
G36*
X00563545D02*
X00563345D01*
Y01084584D01*
X00563545D01*
Y01074584D01*
D02*
G37*
G36*
X00562345D02*
X00562145D01*
Y01084584D01*
X00562345D01*
Y01074584D01*
D02*
G37*
G36*
X00560945D02*
X00560745D01*
Y01084584D01*
X00560945D01*
Y01074584D01*
D02*
G37*
G36*
X00561345D02*
X00561145D01*
Y01084584D01*
X00561345D01*
Y01074584D01*
D02*
G37*
G36*
X00555745D02*
X00555545D01*
Y01084584D01*
X00555745D01*
Y01074584D01*
D02*
G37*
G36*
X00549945D02*
X00549345D01*
Y01084584D01*
X00549945D01*
Y01074584D01*
D02*
G37*
G36*
X00550545D02*
X00550145D01*
Y01084584D01*
X00550545D01*
Y01074584D01*
D02*
G37*
G36*
X00549145D02*
X00548945D01*
Y01084584D01*
X00549145D01*
Y01074584D01*
D02*
G37*
G36*
X00547745D02*
X00547345D01*
Y01084584D01*
X00547745D01*
Y01074584D01*
D02*
G37*
G36*
X00548545D02*
X00548145D01*
Y01084584D01*
X00548545D01*
Y01074584D01*
D02*
G37*
G36*
X00551345D02*
X00551145D01*
Y01084584D01*
X00551345D01*
Y01074584D01*
D02*
G37*
G36*
X00554945D02*
X00554145D01*
Y01084584D01*
X00554945D01*
Y01074584D01*
D02*
G37*
G36*
X00555345D02*
X00555145D01*
Y01084584D01*
X00555345D01*
Y01074584D01*
D02*
G37*
G36*
X00553545D02*
X00553345D01*
Y01084584D01*
X00553545D01*
Y01074584D01*
D02*
G37*
G36*
X00552345D02*
X00551545D01*
Y01084584D01*
X00552345D01*
Y01074584D01*
D02*
G37*
G36*
X00553145D02*
X00552545D01*
Y01084584D01*
X00553145D01*
Y01074584D01*
D02*
G37*
G36*
X00529945D02*
X00529545D01*
Y01084584D01*
X00529945D01*
Y01074584D01*
D02*
G37*
G36*
X00631530Y01073599D02*
X00631568Y01073596D01*
X00631613Y01073589D01*
X00631665Y01073582D01*
X00631716Y01073572D01*
X00631775Y01073558D01*
X00631834Y01073541D01*
X00631896Y01073520D01*
X00631955Y01073496D01*
X00632017Y01073465D01*
X00632076Y01073430D01*
X00632131Y01073392D01*
X00632183Y01073347D01*
X00632186Y01073344D01*
X00632193Y01073337D01*
X00632207Y01073320D01*
X00632224Y01073302D01*
X00632245Y01073278D01*
X00632269Y01073247D01*
X00632293Y01073213D01*
X00632317Y01073171D01*
X00632342Y01073130D01*
X00632366Y01073081D01*
X00632390Y01073029D01*
X00632411Y01072974D01*
X00632428Y01072912D01*
X00632442Y01072850D01*
X00632449Y01072784D01*
X00632452Y01072715D01*
Y01072712D01*
Y01072708D01*
Y01072698D01*
Y01072684D01*
X00632449Y01072646D01*
X00632442Y01072598D01*
X00632431Y01072539D01*
X00632418Y01072477D01*
X00632400Y01072408D01*
X00632373Y01072339D01*
Y01072335D01*
X00632369Y01072332D01*
X00632366Y01072321D01*
X00632359Y01072308D01*
X00632338Y01072270D01*
X00632310Y01072221D01*
X00632272Y01072162D01*
X00632228Y01072097D01*
X00632176Y01072028D01*
X00632110Y01071952D01*
X00632107Y01071948D01*
X00632103Y01071941D01*
X00632089Y01071931D01*
X00632076Y01071914D01*
X00632055Y01071893D01*
X00632031Y01071869D01*
X00632003Y01071838D01*
X00631968Y01071807D01*
X00631927Y01071769D01*
X00631882Y01071727D01*
X00631834Y01071679D01*
X00631778Y01071630D01*
X00631720Y01071575D01*
X00631654Y01071520D01*
X00631582Y01071458D01*
X00631506Y01071392D01*
X00631502Y01071389D01*
X00631492Y01071378D01*
X00631471Y01071365D01*
X00631450Y01071344D01*
X00631419Y01071320D01*
X00631388Y01071292D01*
X00631316Y01071230D01*
X00631240Y01071164D01*
X00631167Y01071095D01*
X00631133Y01071064D01*
X00631101Y01071036D01*
X00631074Y01071009D01*
X00631053Y01070988D01*
X00631050Y01070984D01*
X00631036Y01070971D01*
X00631019Y01070950D01*
X00630994Y01070922D01*
X00630967Y01070891D01*
X00630939Y01070857D01*
X00630884Y01070781D01*
X00632456D01*
Y01070404D01*
X00630345D01*
Y01070411D01*
Y01070428D01*
Y01070456D01*
X00630348Y01070490D01*
X00630352Y01070532D01*
X00630362Y01070577D01*
X00630373Y01070625D01*
X00630390Y01070674D01*
Y01070677D01*
X00630393Y01070684D01*
X00630397Y01070694D01*
X00630404Y01070712D01*
X00630414Y01070729D01*
X00630424Y01070753D01*
X00630452Y01070808D01*
X00630487Y01070874D01*
X00630532Y01070947D01*
X00630583Y01071022D01*
X00630645Y01071098D01*
X00630649Y01071102D01*
X00630652Y01071109D01*
X00630663Y01071119D01*
X00630680Y01071136D01*
X00630697Y01071154D01*
X00630722Y01071178D01*
X00630746Y01071206D01*
X00630777Y01071237D01*
X00630811Y01071271D01*
X00630849Y01071306D01*
X00630891Y01071347D01*
X00630939Y01071389D01*
X00630988Y01071434D01*
X00631043Y01071479D01*
X00631098Y01071527D01*
X00631160Y01071579D01*
X00631167Y01071582D01*
X00631184Y01071599D01*
X00631209Y01071620D01*
X00631243Y01071651D01*
X00631285Y01071686D01*
X00631333Y01071727D01*
X00631388Y01071772D01*
X00631443Y01071824D01*
X00631561Y01071931D01*
X00631675Y01072045D01*
X00631730Y01072100D01*
X00631782Y01072156D01*
X00631827Y01072207D01*
X00631865Y01072256D01*
X00631868Y01072259D01*
X00631872Y01072266D01*
X00631882Y01072280D01*
X00631893Y01072297D01*
X00631910Y01072321D01*
X00631924Y01072346D01*
X00631958Y01072408D01*
X00631993Y01072480D01*
X00632024Y01072560D01*
X00632044Y01072643D01*
X00632048Y01072684D01*
X00632051Y01072726D01*
Y01072729D01*
Y01072736D01*
Y01072750D01*
X00632048Y01072764D01*
Y01072784D01*
X00632041Y01072808D01*
X00632031Y01072860D01*
X00632010Y01072922D01*
X00631979Y01072988D01*
X00631962Y01073023D01*
X00631937Y01073054D01*
X00631913Y01073085D01*
X00631882Y01073116D01*
X00631879Y01073119D01*
X00631875Y01073123D01*
X00631865Y01073130D01*
X00631851Y01073140D01*
X00631834Y01073154D01*
X00631813Y01073168D01*
X00631765Y01073199D01*
X00631699Y01073226D01*
X00631627Y01073254D01*
X00631540Y01073271D01*
X00631492Y01073278D01*
X00631416D01*
X00631395Y01073275D01*
X00631371D01*
X00631343Y01073268D01*
X00631281Y01073258D01*
X00631209Y01073237D01*
X00631133Y01073206D01*
X00631095Y01073185D01*
X00631057Y01073164D01*
X00631022Y01073137D01*
X00630988Y01073105D01*
X00630984Y01073102D01*
X00630981Y01073099D01*
X00630974Y01073088D01*
X00630960Y01073074D01*
X00630950Y01073057D01*
X00630936Y01073036D01*
X00630918Y01073012D01*
X00630905Y01072985D01*
X00630887Y01072953D01*
X00630873Y01072919D01*
X00630846Y01072836D01*
X00630825Y01072746D01*
X00630822Y01072694D01*
X00630818Y01072639D01*
X00630418Y01072681D01*
Y01072688D01*
X00630421Y01072701D01*
X00630424Y01072722D01*
X00630428Y01072753D01*
X00630435Y01072791D01*
X00630445Y01072836D01*
X00630456Y01072884D01*
X00630473Y01072936D01*
X00630490Y01072988D01*
X00630511Y01073047D01*
X00630538Y01073102D01*
X00630566Y01073157D01*
X00630601Y01073216D01*
X00630639Y01073268D01*
X00630680Y01073320D01*
X00630728Y01073365D01*
X00630732Y01073368D01*
X00630742Y01073375D01*
X00630756Y01073385D01*
X00630777Y01073403D01*
X00630804Y01073420D01*
X00630839Y01073441D01*
X00630877Y01073461D01*
X00630922Y01073485D01*
X00630970Y01073506D01*
X00631026Y01073527D01*
X00631084Y01073548D01*
X00631150Y01073565D01*
X00631219Y01073582D01*
X00631292Y01073593D01*
X00631371Y01073599D01*
X00631454Y01073603D01*
X00631499D01*
X00631530Y01073599D01*
D02*
G37*
G36*
X00533905Y01070404D02*
X00533556D01*
Y01070743D01*
X00533553Y01070739D01*
X00533542Y01070725D01*
X00533529Y01070708D01*
X00533508Y01070680D01*
X00533480Y01070653D01*
X00533446Y01070618D01*
X00533408Y01070584D01*
X00533363Y01070549D01*
X00533311Y01070511D01*
X00533256Y01070477D01*
X00533197Y01070442D01*
X00533131Y01070415D01*
X00533059Y01070387D01*
X00532986Y01070370D01*
X00532907Y01070356D01*
X00532820Y01070352D01*
X00532786D01*
X00532748Y01070356D01*
X00532696Y01070363D01*
X00532637Y01070370D01*
X00532572Y01070384D01*
X00532506Y01070404D01*
X00532437Y01070428D01*
X00532434D01*
X00532430Y01070432D01*
X00532409Y01070442D01*
X00532378Y01070460D01*
X00532337Y01070484D01*
X00532295Y01070511D01*
X00532250Y01070546D01*
X00532209Y01070584D01*
X00532174Y01070625D01*
X00532171Y01070632D01*
X00532161Y01070646D01*
X00532147Y01070674D01*
X00532130Y01070708D01*
X00532109Y01070750D01*
X00532088Y01070798D01*
X00532071Y01070853D01*
X00532053Y01070915D01*
Y01070922D01*
X00532050Y01070936D01*
X00532047Y01070967D01*
X00532043Y01071005D01*
X00532040Y01071057D01*
X00532036Y01071119D01*
X00532033Y01071195D01*
Y01071282D01*
Y01072715D01*
X00532423D01*
Y01071434D01*
Y01071430D01*
Y01071420D01*
Y01071406D01*
Y01071385D01*
Y01071358D01*
Y01071330D01*
X00532427Y01071268D01*
Y01071199D01*
X00532434Y01071130D01*
X00532437Y01071067D01*
X00532440Y01071040D01*
X00532444Y01071019D01*
X00532447Y01071012D01*
X00532451Y01070995D01*
X00532461Y01070964D01*
X00532478Y01070929D01*
X00532499Y01070891D01*
X00532527Y01070853D01*
X00532561Y01070812D01*
X00532603Y01070777D01*
X00532610Y01070774D01*
X00532623Y01070763D01*
X00532651Y01070750D01*
X00532686Y01070736D01*
X00532727Y01070719D01*
X00532779Y01070705D01*
X00532838Y01070694D01*
X00532900Y01070691D01*
X00532931D01*
X00532962Y01070694D01*
X00533007Y01070701D01*
X00533059Y01070712D01*
X00533114Y01070729D01*
X00533169Y01070750D01*
X00533228Y01070781D01*
X00533231D01*
X00533235Y01070784D01*
X00533252Y01070798D01*
X00533280Y01070819D01*
X00533314Y01070846D01*
X00533349Y01070881D01*
X00533387Y01070922D01*
X00533421Y01070971D01*
X00533449Y01071026D01*
Y01071029D01*
X00533452Y01071033D01*
X00533456Y01071043D01*
X00533459Y01071054D01*
X00533463Y01071071D01*
X00533470Y01071092D01*
X00533477Y01071112D01*
X00533484Y01071140D01*
X00533494Y01071206D01*
X00533504Y01071282D01*
X00533511Y01071371D01*
X00533515Y01071475D01*
Y01072715D01*
X00533905D01*
Y01070404D01*
D02*
G37*
G36*
X00622762Y01073589D02*
X00622800D01*
X00622845Y01073586D01*
X00622896Y01073582D01*
X00623000Y01073572D01*
X00623107Y01073555D01*
X00623211Y01073534D01*
X00623256Y01073520D01*
X00623301Y01073506D01*
X00623304D01*
X00623311Y01073503D01*
X00623321Y01073496D01*
X00623339Y01073489D01*
X00623380Y01073468D01*
X00623428Y01073437D01*
X00623487Y01073396D01*
X00623546Y01073340D01*
X00623605Y01073278D01*
X00623656Y01073202D01*
Y01073199D01*
X00623663Y01073192D01*
X00623670Y01073182D01*
X00623677Y01073164D01*
X00623687Y01073143D01*
X00623698Y01073119D01*
X00623712Y01073092D01*
X00623725Y01073061D01*
X00623750Y01072988D01*
X00623770Y01072909D01*
X00623784Y01072819D01*
X00623791Y01072722D01*
Y01072719D01*
Y01072708D01*
Y01072688D01*
X00623788Y01072667D01*
X00623784Y01072636D01*
X00623781Y01072601D01*
X00623774Y01072563D01*
X00623763Y01072522D01*
X00623736Y01072432D01*
X00623718Y01072384D01*
X00623698Y01072335D01*
X00623674Y01072287D01*
X00623643Y01072238D01*
X00623608Y01072194D01*
X00623570Y01072149D01*
X00623567Y01072145D01*
X00623560Y01072138D01*
X00623546Y01072128D01*
X00623529Y01072111D01*
X00623504Y01072093D01*
X00623477Y01072073D01*
X00623442Y01072048D01*
X00623401Y01072024D01*
X00623356Y01072000D01*
X00623307Y01071976D01*
X00623252Y01071952D01*
X00623190Y01071928D01*
X00623124Y01071907D01*
X00623052Y01071886D01*
X00622972Y01071869D01*
X00622889Y01071855D01*
X00622893D01*
X00622896Y01071852D01*
X00622917Y01071841D01*
X00622948Y01071824D01*
X00622986Y01071803D01*
X00623028Y01071779D01*
X00623069Y01071755D01*
X00623111Y01071724D01*
X00623145Y01071696D01*
X00623148Y01071693D01*
X00623152Y01071689D01*
X00623162Y01071679D01*
X00623176Y01071665D01*
X00623193Y01071648D01*
X00623214Y01071627D01*
X00623259Y01071579D01*
X00623311Y01071516D01*
X00623370Y01071444D01*
X00623432Y01071361D01*
X00623494Y01071271D01*
X00624047Y01070404D01*
X00623518D01*
X00623097Y01071067D01*
X00623093Y01071071D01*
X00623090Y01071081D01*
X00623079Y01071095D01*
X00623066Y01071116D01*
X00623052Y01071140D01*
X00623031Y01071168D01*
X00622990Y01071230D01*
X00622941Y01071302D01*
X00622893Y01071375D01*
X00622841Y01071444D01*
X00622793Y01071506D01*
Y01071510D01*
X00622786Y01071513D01*
X00622772Y01071530D01*
X00622751Y01071558D01*
X00622720Y01071589D01*
X00622689Y01071624D01*
X00622651Y01071658D01*
X00622613Y01071693D01*
X00622579Y01071717D01*
X00622575Y01071720D01*
X00622561Y01071727D01*
X00622544Y01071738D01*
X00622520Y01071751D01*
X00622489Y01071765D01*
X00622458Y01071779D01*
X00622423Y01071793D01*
X00622385Y01071803D01*
X00622382D01*
X00622371Y01071807D01*
X00622354Y01071810D01*
X00622330Y01071814D01*
X00622295D01*
X00622254Y01071817D01*
X00622206Y01071821D01*
X00621663D01*
Y01070404D01*
X00621242D01*
Y01073593D01*
X00622724D01*
X00622762Y01073589D01*
D02*
G37*
G36*
X00613781Y01070404D02*
X00613335D01*
Y01070850D01*
X00613781D01*
Y01070404D01*
D02*
G37*
G36*
X00616611Y01073599D02*
X00616649Y01073596D01*
X00616694Y01073589D01*
X00616746Y01073582D01*
X00616797Y01073572D01*
X00616856Y01073558D01*
X00616915Y01073541D01*
X00616977Y01073520D01*
X00617036Y01073496D01*
X00617098Y01073465D01*
X00617157Y01073430D01*
X00617212Y01073392D01*
X00617264Y01073347D01*
X00617267Y01073344D01*
X00617274Y01073337D01*
X00617288Y01073320D01*
X00617305Y01073302D01*
X00617326Y01073278D01*
X00617350Y01073247D01*
X00617374Y01073213D01*
X00617399Y01073171D01*
X00617423Y01073130D01*
X00617447Y01073081D01*
X00617471Y01073029D01*
X00617492Y01072974D01*
X00617509Y01072912D01*
X00617523Y01072850D01*
X00617530Y01072784D01*
X00617533Y01072715D01*
Y01072712D01*
Y01072708D01*
Y01072698D01*
Y01072684D01*
X00617530Y01072646D01*
X00617523Y01072598D01*
X00617513Y01072539D01*
X00617499Y01072477D01*
X00617481Y01072408D01*
X00617454Y01072339D01*
Y01072335D01*
X00617450Y01072332D01*
X00617447Y01072321D01*
X00617440Y01072308D01*
X00617419Y01072270D01*
X00617392Y01072221D01*
X00617354Y01072162D01*
X00617309Y01072097D01*
X00617257Y01072028D01*
X00617191Y01071952D01*
X00617188Y01071948D01*
X00617184Y01071941D01*
X00617171Y01071931D01*
X00617157Y01071914D01*
X00617136Y01071893D01*
X00617112Y01071869D01*
X00617084Y01071838D01*
X00617050Y01071807D01*
X00617008Y01071769D01*
X00616963Y01071727D01*
X00616915Y01071679D01*
X00616860Y01071630D01*
X00616801Y01071575D01*
X00616735Y01071520D01*
X00616663Y01071458D01*
X00616587Y01071392D01*
X00616583Y01071389D01*
X00616573Y01071378D01*
X00616552Y01071365D01*
X00616532Y01071344D01*
X00616501Y01071320D01*
X00616469Y01071292D01*
X00616397Y01071230D01*
X00616321Y01071164D01*
X00616248Y01071095D01*
X00616214Y01071064D01*
X00616183Y01071036D01*
X00616155Y01071009D01*
X00616134Y01070988D01*
X00616131Y01070984D01*
X00616117Y01070971D01*
X00616100Y01070950D01*
X00616076Y01070922D01*
X00616048Y01070891D01*
X00616020Y01070857D01*
X00615965Y01070781D01*
X00617537D01*
Y01070404D01*
X00615426D01*
Y01070411D01*
Y01070428D01*
Y01070456D01*
X00615430Y01070490D01*
X00615433Y01070532D01*
X00615443Y01070577D01*
X00615454Y01070625D01*
X00615471Y01070674D01*
Y01070677D01*
X00615475Y01070684D01*
X00615478Y01070694D01*
X00615485Y01070712D01*
X00615495Y01070729D01*
X00615506Y01070753D01*
X00615533Y01070808D01*
X00615568Y01070874D01*
X00615613Y01070947D01*
X00615664Y01071022D01*
X00615727Y01071098D01*
X00615730Y01071102D01*
X00615734Y01071109D01*
X00615744Y01071119D01*
X00615761Y01071136D01*
X00615779Y01071154D01*
X00615803Y01071178D01*
X00615827Y01071206D01*
X00615858Y01071237D01*
X00615892Y01071271D01*
X00615930Y01071306D01*
X00615972Y01071347D01*
X00616020Y01071389D01*
X00616069Y01071434D01*
X00616124Y01071479D01*
X00616179Y01071527D01*
X00616241Y01071579D01*
X00616248Y01071582D01*
X00616266Y01071599D01*
X00616290Y01071620D01*
X00616324Y01071651D01*
X00616366Y01071686D01*
X00616414Y01071727D01*
X00616469Y01071772D01*
X00616525Y01071824D01*
X00616642Y01071931D01*
X00616756Y01072045D01*
X00616811Y01072100D01*
X00616863Y01072156D01*
X00616908Y01072207D01*
X00616946Y01072256D01*
X00616950Y01072259D01*
X00616953Y01072266D01*
X00616963Y01072280D01*
X00616974Y01072297D01*
X00616991Y01072321D01*
X00617005Y01072346D01*
X00617039Y01072408D01*
X00617074Y01072480D01*
X00617105Y01072560D01*
X00617126Y01072643D01*
X00617129Y01072684D01*
X00617133Y01072726D01*
Y01072729D01*
Y01072736D01*
Y01072750D01*
X00617129Y01072764D01*
Y01072784D01*
X00617122Y01072808D01*
X00617112Y01072860D01*
X00617091Y01072922D01*
X00617060Y01072988D01*
X00617043Y01073023D01*
X00617019Y01073054D01*
X00616994Y01073085D01*
X00616963Y01073116D01*
X00616960Y01073119D01*
X00616956Y01073123D01*
X00616946Y01073130D01*
X00616932Y01073140D01*
X00616915Y01073154D01*
X00616894Y01073168D01*
X00616846Y01073199D01*
X00616780Y01073226D01*
X00616708Y01073254D01*
X00616621Y01073271D01*
X00616573Y01073278D01*
X00616497D01*
X00616476Y01073275D01*
X00616452D01*
X00616424Y01073268D01*
X00616362Y01073258D01*
X00616290Y01073237D01*
X00616214Y01073206D01*
X00616176Y01073185D01*
X00616138Y01073164D01*
X00616103Y01073137D01*
X00616069Y01073105D01*
X00616065Y01073102D01*
X00616062Y01073099D01*
X00616055Y01073088D01*
X00616041Y01073074D01*
X00616031Y01073057D01*
X00616017Y01073036D01*
X00616000Y01073012D01*
X00615986Y01072985D01*
X00615969Y01072953D01*
X00615955Y01072919D01*
X00615927Y01072836D01*
X00615906Y01072746D01*
X00615903Y01072694D01*
X00615899Y01072639D01*
X00615499Y01072681D01*
Y01072688D01*
X00615502Y01072701D01*
X00615506Y01072722D01*
X00615509Y01072753D01*
X00615516Y01072791D01*
X00615526Y01072836D01*
X00615537Y01072884D01*
X00615554Y01072936D01*
X00615571Y01072988D01*
X00615592Y01073047D01*
X00615620Y01073102D01*
X00615647Y01073157D01*
X00615682Y01073216D01*
X00615720Y01073268D01*
X00615761Y01073320D01*
X00615810Y01073365D01*
X00615813Y01073368D01*
X00615823Y01073375D01*
X00615837Y01073385D01*
X00615858Y01073403D01*
X00615886Y01073420D01*
X00615920Y01073441D01*
X00615958Y01073461D01*
X00616003Y01073485D01*
X00616051Y01073506D01*
X00616107Y01073527D01*
X00616165Y01073548D01*
X00616231Y01073565D01*
X00616300Y01073582D01*
X00616373Y01073593D01*
X00616452Y01073599D01*
X00616535Y01073603D01*
X00616580D01*
X00616611Y01073599D01*
D02*
G37*
G36*
X00560759Y01070404D02*
X00560410D01*
Y01070743D01*
X00560407Y01070739D01*
X00560396Y01070725D01*
X00560382Y01070708D01*
X00560362Y01070680D01*
X00560334Y01070653D01*
X00560299Y01070618D01*
X00560261Y01070584D01*
X00560217Y01070549D01*
X00560165Y01070511D01*
X00560109Y01070477D01*
X00560051Y01070442D01*
X00559985Y01070415D01*
X00559913Y01070387D01*
X00559840Y01070370D01*
X00559761Y01070356D01*
X00559674Y01070352D01*
X00559640D01*
X00559602Y01070356D01*
X00559550Y01070363D01*
X00559491Y01070370D01*
X00559426Y01070384D01*
X00559360Y01070404D01*
X00559291Y01070428D01*
X00559287D01*
X00559284Y01070432D01*
X00559263Y01070442D01*
X00559232Y01070460D01*
X00559191Y01070484D01*
X00559149Y01070511D01*
X00559104Y01070546D01*
X00559063Y01070584D01*
X00559028Y01070625D01*
X00559025Y01070632D01*
X00559015Y01070646D01*
X00559001Y01070674D01*
X00558983Y01070708D01*
X00558963Y01070750D01*
X00558942Y01070798D01*
X00558925Y01070853D01*
X00558907Y01070915D01*
Y01070922D01*
X00558904Y01070936D01*
X00558900Y01070967D01*
X00558897Y01071005D01*
X00558894Y01071057D01*
X00558890Y01071119D01*
X00558887Y01071195D01*
Y01071282D01*
Y01072715D01*
X00559277D01*
Y01071434D01*
Y01071430D01*
Y01071420D01*
Y01071406D01*
Y01071385D01*
Y01071358D01*
Y01071330D01*
X00559280Y01071268D01*
Y01071199D01*
X00559287Y01071130D01*
X00559291Y01071067D01*
X00559294Y01071040D01*
X00559298Y01071019D01*
X00559301Y01071012D01*
X00559305Y01070995D01*
X00559315Y01070964D01*
X00559332Y01070929D01*
X00559353Y01070891D01*
X00559381Y01070853D01*
X00559415Y01070812D01*
X00559457Y01070777D01*
X00559464Y01070774D01*
X00559477Y01070763D01*
X00559505Y01070750D01*
X00559539Y01070736D01*
X00559581Y01070719D01*
X00559633Y01070705D01*
X00559692Y01070694D01*
X00559754Y01070691D01*
X00559785D01*
X00559816Y01070694D01*
X00559861Y01070701D01*
X00559913Y01070712D01*
X00559968Y01070729D01*
X00560023Y01070750D01*
X00560082Y01070781D01*
X00560085D01*
X00560089Y01070784D01*
X00560106Y01070798D01*
X00560134Y01070819D01*
X00560168Y01070846D01*
X00560203Y01070881D01*
X00560241Y01070922D01*
X00560275Y01070971D01*
X00560303Y01071026D01*
Y01071029D01*
X00560306Y01071033D01*
X00560310Y01071043D01*
X00560313Y01071054D01*
X00560317Y01071071D01*
X00560324Y01071092D01*
X00560331Y01071112D01*
X00560337Y01071140D01*
X00560348Y01071206D01*
X00560358Y01071282D01*
X00560365Y01071371D01*
X00560369Y01071475D01*
Y01072715D01*
X00560759D01*
Y01070404D01*
D02*
G37*
G36*
X00628653D02*
X00628280D01*
X00627406Y01072715D01*
X00627821D01*
X00628318Y01071330D01*
Y01071327D01*
X00628321Y01071320D01*
X00628325Y01071309D01*
X00628332Y01071292D01*
X00628339Y01071271D01*
X00628346Y01071247D01*
X00628366Y01071188D01*
X00628391Y01071119D01*
X00628415Y01071040D01*
X00628439Y01070953D01*
X00628467Y01070864D01*
Y01070867D01*
X00628470Y01070871D01*
X00628474Y01070881D01*
X00628477Y01070895D01*
X00628480Y01070915D01*
X00628487Y01070936D01*
X00628505Y01070988D01*
X00628525Y01071050D01*
X00628549Y01071126D01*
X00628577Y01071209D01*
X00628612Y01071302D01*
X00629126Y01072715D01*
X00629531D01*
X00628653Y01070404D01*
D02*
G37*
G36*
X00573019D02*
X00572583D01*
X00570911Y01072905D01*
Y01070404D01*
X00570507D01*
Y01073593D01*
X00570939D01*
X00572615Y01071088D01*
Y01073593D01*
X00573019D01*
Y01070404D01*
D02*
G37*
G36*
X00552410D02*
X00552003D01*
Y01073074D01*
X00551070Y01070404D01*
X00550690D01*
X00549771Y01073119D01*
Y01070404D01*
X00549364D01*
Y01073593D01*
X00549996D01*
X00550752Y01071333D01*
Y01071330D01*
X00550756Y01071320D01*
X00550763Y01071302D01*
X00550770Y01071282D01*
X00550776Y01071257D01*
X00550787Y01071226D01*
X00550811Y01071157D01*
X00550835Y01071081D01*
X00550859Y01071002D01*
X00550884Y01070929D01*
X00550894Y01070895D01*
X00550904Y01070864D01*
Y01070867D01*
X00550908Y01070871D01*
X00550911Y01070881D01*
X00550915Y01070895D01*
X00550922Y01070915D01*
X00550928Y01070936D01*
X00550935Y01070964D01*
X00550946Y01070991D01*
X00550956Y01071026D01*
X00550970Y01071064D01*
X00550984Y01071105D01*
X00550998Y01071154D01*
X00551015Y01071202D01*
X00551032Y01071257D01*
X00551053Y01071313D01*
X00551074Y01071375D01*
X00551841Y01073593D01*
X00552410D01*
Y01070404D01*
D02*
G37*
G36*
X00607786D02*
X00607351D01*
X00606114Y01073593D01*
X00606573D01*
X00607402Y01071275D01*
Y01071271D01*
X00607406Y01071261D01*
X00607413Y01071247D01*
X00607420Y01071226D01*
X00607426Y01071202D01*
X00607437Y01071174D01*
X00607447Y01071143D01*
X00607461Y01071105D01*
X00607485Y01071026D01*
X00607513Y01070940D01*
X00607541Y01070846D01*
X00607568Y01070753D01*
Y01070757D01*
X00607572Y01070763D01*
X00607575Y01070781D01*
X00607582Y01070798D01*
X00607589Y01070822D01*
X00607596Y01070850D01*
X00607606Y01070881D01*
X00607617Y01070915D01*
X00607641Y01070995D01*
X00607672Y01071085D01*
X00607706Y01071178D01*
X00607741Y01071275D01*
X00608601Y01073593D01*
X00609029D01*
X00607786Y01070404D01*
D02*
G37*
G36*
X00545118Y01070366D02*
Y01070363D01*
X00545111Y01070349D01*
X00545104Y01070332D01*
X00545094Y01070304D01*
X00545084Y01070273D01*
X00545070Y01070238D01*
X00545052Y01070200D01*
X00545039Y01070159D01*
X00545001Y01070073D01*
X00544966Y01069986D01*
X00544945Y01069945D01*
X00544928Y01069907D01*
X00544914Y01069872D01*
X00544897Y01069845D01*
Y01069841D01*
X00544894Y01069838D01*
X00544887Y01069827D01*
X00544880Y01069814D01*
X00544856Y01069779D01*
X00544828Y01069737D01*
X00544793Y01069689D01*
X00544752Y01069644D01*
X00544707Y01069599D01*
X00544659Y01069561D01*
X00544652Y01069558D01*
X00544635Y01069548D01*
X00544607Y01069530D01*
X00544569Y01069516D01*
X00544520Y01069499D01*
X00544465Y01069482D01*
X00544407Y01069472D01*
X00544337Y01069468D01*
X00544317D01*
X00544292Y01069472D01*
X00544265Y01069475D01*
X00544227Y01069478D01*
X00544182Y01069489D01*
X00544137Y01069499D01*
X00544085Y01069516D01*
X00544040Y01069883D01*
X00544047D01*
X00544061Y01069876D01*
X00544085Y01069872D01*
X00544116Y01069865D01*
X00544151Y01069858D01*
X00544189Y01069852D01*
X00544227Y01069848D01*
X00544261Y01069845D01*
X00544282D01*
X00544306Y01069848D01*
X00544337Y01069852D01*
X00544369Y01069855D01*
X00544403Y01069865D01*
X00544438Y01069876D01*
X00544469Y01069890D01*
X00544472Y01069893D01*
X00544482Y01069896D01*
X00544496Y01069907D01*
X00544514Y01069921D01*
X00544534Y01069938D01*
X00544558Y01069959D01*
X00544600Y01070010D01*
X00544603Y01070014D01*
X00544607Y01070024D01*
X00544617Y01070042D01*
X00544628Y01070069D01*
X00544645Y01070107D01*
X00544666Y01070159D01*
X00544676Y01070190D01*
X00544690Y01070225D01*
X00544704Y01070263D01*
X00544717Y01070304D01*
X00544721Y01070311D01*
X00544728Y01070328D01*
X00544738Y01070359D01*
X00544755Y01070401D01*
X00543881Y01072715D01*
X00544296D01*
X00544776Y01071375D01*
Y01071371D01*
X00544780Y01071365D01*
X00544786Y01071351D01*
X00544793Y01071330D01*
X00544800Y01071306D01*
X00544811Y01071278D01*
X00544821Y01071247D01*
X00544835Y01071212D01*
X00544859Y01071133D01*
X00544890Y01071040D01*
X00544918Y01070943D01*
X00544945Y01070839D01*
Y01070843D01*
X00544949Y01070853D01*
X00544952Y01070867D01*
X00544959Y01070884D01*
X00544963Y01070909D01*
X00544973Y01070940D01*
X00544980Y01070971D01*
X00544990Y01071005D01*
X00545014Y01071085D01*
X00545042Y01071174D01*
X00545073Y01071268D01*
X00545108Y01071365D01*
X00545605Y01072715D01*
X00545996D01*
X00545118Y01070366D01*
D02*
G37*
G36*
X00595752Y01072764D02*
X00595783D01*
X00595849Y01072757D01*
X00595925Y01072750D01*
X00596004Y01072736D01*
X00596084Y01072719D01*
X00596157Y01072694D01*
X00596160D01*
X00596163Y01072691D01*
X00596174Y01072688D01*
X00596188Y01072681D01*
X00596219Y01072667D01*
X00596260Y01072646D01*
X00596305Y01072622D01*
X00596350Y01072591D01*
X00596391Y01072556D01*
X00596429Y01072518D01*
X00596433Y01072515D01*
X00596443Y01072501D01*
X00596460Y01072477D01*
X00596478Y01072446D01*
X00596498Y01072408D01*
X00596519Y01072363D01*
X00596540Y01072311D01*
X00596554Y01072252D01*
Y01072249D01*
X00596557Y01072232D01*
X00596561Y01072207D01*
X00596564Y01072169D01*
X00596567Y01072121D01*
X00596571Y01072059D01*
Y01072021D01*
X00596574Y01071983D01*
Y01071941D01*
Y01071893D01*
Y01071371D01*
Y01071365D01*
Y01071347D01*
Y01071320D01*
Y01071285D01*
Y01071240D01*
Y01071192D01*
X00596578Y01071136D01*
Y01071081D01*
X00596581Y01070964D01*
Y01070905D01*
X00596585Y01070850D01*
X00596588Y01070798D01*
X00596592Y01070753D01*
X00596595Y01070712D01*
X00596599Y01070680D01*
Y01070674D01*
X00596602Y01070656D01*
X00596609Y01070629D01*
X00596619Y01070591D01*
X00596633Y01070549D01*
X00596650Y01070504D01*
X00596671Y01070452D01*
X00596695Y01070404D01*
X00596288D01*
X00596284Y01070411D01*
X00596277Y01070425D01*
X00596267Y01070452D01*
X00596257Y01070487D01*
X00596243Y01070528D01*
X00596229Y01070577D01*
X00596219Y01070632D01*
X00596212Y01070694D01*
X00596208Y01070691D01*
X00596201Y01070687D01*
X00596191Y01070677D01*
X00596174Y01070663D01*
X00596153Y01070649D01*
X00596132Y01070629D01*
X00596077Y01070591D01*
X00596011Y01070546D01*
X00595942Y01070501D01*
X00595866Y01070463D01*
X00595790Y01070428D01*
X00595787D01*
X00595780Y01070425D01*
X00595770Y01070422D01*
X00595756Y01070418D01*
X00595738Y01070411D01*
X00595714Y01070404D01*
X00595662Y01070390D01*
X00595597Y01070377D01*
X00595524Y01070363D01*
X00595445Y01070356D01*
X00595359Y01070352D01*
X00595321D01*
X00595296Y01070356D01*
X00595265Y01070359D01*
X00595227Y01070363D01*
X00595186Y01070366D01*
X00595144Y01070377D01*
X00595048Y01070397D01*
X00594951Y01070428D01*
X00594906Y01070449D01*
X00594858Y01070477D01*
X00594816Y01070504D01*
X00594775Y01070536D01*
X00594771Y01070539D01*
X00594764Y01070546D01*
X00594757Y01070556D01*
X00594744Y01070570D01*
X00594726Y01070587D01*
X00594709Y01070611D01*
X00594692Y01070636D01*
X00594674Y01070667D01*
X00594636Y01070732D01*
X00594602Y01070815D01*
X00594588Y01070860D01*
X00594581Y01070909D01*
X00594574Y01070960D01*
X00594571Y01071012D01*
Y01071016D01*
Y01071019D01*
Y01071040D01*
X00594574Y01071074D01*
X00594581Y01071116D01*
X00594588Y01071164D01*
X00594602Y01071216D01*
X00594623Y01071268D01*
X00594647Y01071323D01*
X00594650Y01071330D01*
X00594661Y01071347D01*
X00594678Y01071371D01*
X00594702Y01071406D01*
X00594730Y01071441D01*
X00594764Y01071479D01*
X00594802Y01071513D01*
X00594847Y01071548D01*
X00594854Y01071551D01*
X00594871Y01071561D01*
X00594896Y01071579D01*
X00594930Y01071596D01*
X00594972Y01071617D01*
X00595020Y01071637D01*
X00595075Y01071658D01*
X00595131Y01071675D01*
X00595137D01*
X00595151Y01071682D01*
X00595179Y01071686D01*
X00595217Y01071696D01*
X00595265Y01071703D01*
X00595327Y01071713D01*
X00595396Y01071724D01*
X00595479Y01071734D01*
X00595486D01*
X00595500Y01071738D01*
X00595524Y01071741D01*
X00595555Y01071745D01*
X00595597Y01071751D01*
X00595642Y01071758D01*
X00595690Y01071765D01*
X00595745Y01071772D01*
X00595859Y01071793D01*
X00595973Y01071817D01*
X00596029Y01071831D01*
X00596084Y01071845D01*
X00596132Y01071859D01*
X00596177Y01071872D01*
Y01071876D01*
Y01071886D01*
Y01071900D01*
X00596181Y01071914D01*
Y01071948D01*
Y01071962D01*
Y01071973D01*
Y01071976D01*
Y01071983D01*
Y01071997D01*
Y01072010D01*
X00596174Y01072052D01*
X00596167Y01072104D01*
X00596153Y01072159D01*
X00596132Y01072214D01*
X00596105Y01072266D01*
X00596067Y01072308D01*
X00596060Y01072315D01*
X00596053Y01072321D01*
X00596039Y01072328D01*
X00596022Y01072339D01*
X00596004Y01072349D01*
X00595956Y01072377D01*
X00595894Y01072401D01*
X00595818Y01072422D01*
X00595728Y01072435D01*
X00595625Y01072442D01*
X00595580D01*
X00595555Y01072439D01*
X00595531D01*
X00595469Y01072432D01*
X00595403Y01072418D01*
X00595338Y01072401D01*
X00595272Y01072377D01*
X00595217Y01072346D01*
X00595210Y01072342D01*
X00595196Y01072328D01*
X00595172Y01072301D01*
X00595144Y01072266D01*
X00595113Y01072221D01*
X00595079Y01072159D01*
X00595051Y01072090D01*
X00595037Y01072048D01*
X00595023Y01072004D01*
X00594640Y01072055D01*
Y01072059D01*
X00594643Y01072066D01*
X00594647Y01072080D01*
X00594650Y01072097D01*
X00594657Y01072118D01*
X00594664Y01072142D01*
X00594681Y01072197D01*
X00594706Y01072259D01*
X00594733Y01072325D01*
X00594768Y01072391D01*
X00594809Y01072449D01*
Y01072453D01*
X00594816Y01072456D01*
X00594833Y01072473D01*
X00594861Y01072501D01*
X00594899Y01072535D01*
X00594947Y01072573D01*
X00595006Y01072611D01*
X00595075Y01072650D01*
X00595155Y01072684D01*
X00595158D01*
X00595165Y01072688D01*
X00595179Y01072691D01*
X00595196Y01072698D01*
X00595217Y01072705D01*
X00595241Y01072712D01*
X00595272Y01072719D01*
X00595307Y01072726D01*
X00595341Y01072732D01*
X00595383Y01072739D01*
X00595472Y01072753D01*
X00595573Y01072764D01*
X00595680Y01072767D01*
X00595728D01*
X00595752Y01072764D01*
D02*
G37*
G36*
X00574797D02*
X00574831D01*
X00574873Y01072757D01*
X00574918Y01072750D01*
X00574970Y01072739D01*
X00575028Y01072729D01*
X00575087Y01072712D01*
X00575153Y01072691D01*
X00575215Y01072663D01*
X00575280Y01072636D01*
X00575346Y01072598D01*
X00575408Y01072556D01*
X00575471Y01072508D01*
X00575529Y01072453D01*
X00575533Y01072449D01*
X00575543Y01072439D01*
X00575557Y01072422D01*
X00575578Y01072394D01*
X00575598Y01072363D01*
X00575626Y01072325D01*
X00575654Y01072280D01*
X00575681Y01072228D01*
X00575709Y01072169D01*
X00575737Y01072104D01*
X00575764Y01072035D01*
X00575785Y01071959D01*
X00575806Y01071876D01*
X00575819Y01071786D01*
X00575830Y01071689D01*
X00575833Y01071589D01*
Y01071586D01*
Y01071568D01*
Y01071548D01*
X00575830Y01071516D01*
Y01071479D01*
X00575826Y01071434D01*
X00575823Y01071385D01*
X00575816Y01071333D01*
X00575802Y01071223D01*
X00575778Y01071105D01*
X00575743Y01070991D01*
X00575723Y01070940D01*
X00575699Y01070888D01*
Y01070884D01*
X00575692Y01070877D01*
X00575685Y01070864D01*
X00575674Y01070846D01*
X00575661Y01070826D01*
X00575643Y01070798D01*
X00575598Y01070743D01*
X00575543Y01070677D01*
X00575477Y01070611D01*
X00575398Y01070549D01*
X00575308Y01070490D01*
X00575305D01*
X00575298Y01070484D01*
X00575284Y01070477D01*
X00575263Y01070470D01*
X00575239Y01070460D01*
X00575211Y01070446D01*
X00575180Y01070435D01*
X00575142Y01070422D01*
X00575104Y01070408D01*
X00575059Y01070397D01*
X00574966Y01070373D01*
X00574863Y01070359D01*
X00574752Y01070352D01*
X00574731D01*
X00574707Y01070356D01*
X00574673D01*
X00574631Y01070363D01*
X00574583Y01070370D01*
X00574531Y01070380D01*
X00574472Y01070390D01*
X00574410Y01070408D01*
X00574348Y01070428D01*
X00574282Y01070452D01*
X00574216Y01070484D01*
X00574151Y01070518D01*
X00574089Y01070560D01*
X00574026Y01070608D01*
X00573968Y01070663D01*
X00573964Y01070667D01*
X00573954Y01070677D01*
X00573940Y01070694D01*
X00573923Y01070722D01*
X00573899Y01070753D01*
X00573875Y01070791D01*
X00573847Y01070839D01*
X00573819Y01070891D01*
X00573792Y01070953D01*
X00573764Y01071019D01*
X00573740Y01071092D01*
X00573716Y01071171D01*
X00573698Y01071257D01*
X00573685Y01071351D01*
X00573674Y01071451D01*
X00573671Y01071558D01*
Y01071561D01*
Y01071565D01*
Y01071586D01*
X00573674Y01071620D01*
X00573678Y01071662D01*
X00573681Y01071717D01*
X00573688Y01071779D01*
X00573702Y01071845D01*
X00573716Y01071917D01*
X00573733Y01071993D01*
X00573757Y01072073D01*
X00573788Y01072152D01*
X00573819Y01072232D01*
X00573861Y01072308D01*
X00573909Y01072380D01*
X00573964Y01072446D01*
X00574026Y01072508D01*
X00574030Y01072511D01*
X00574040Y01072518D01*
X00574058Y01072532D01*
X00574078Y01072549D01*
X00574109Y01072567D01*
X00574144Y01072591D01*
X00574182Y01072615D01*
X00574230Y01072639D01*
X00574279Y01072663D01*
X00574334Y01072684D01*
X00574393Y01072708D01*
X00574458Y01072726D01*
X00574527Y01072743D01*
X00574596Y01072757D01*
X00574673Y01072764D01*
X00574752Y01072767D01*
X00574773D01*
X00574797Y01072764D01*
D02*
G37*
G36*
X00610616Y01073599D02*
X00610640Y01073596D01*
X00610702Y01073589D01*
X00610771Y01073579D01*
X00610847Y01073558D01*
X00610923Y01073534D01*
X00610999Y01073499D01*
X00611003D01*
X00611010Y01073496D01*
X00611020Y01073489D01*
X00611034Y01073479D01*
X00611068Y01073458D01*
X00611113Y01073423D01*
X00611165Y01073382D01*
X00611217Y01073330D01*
X00611272Y01073268D01*
X00611320Y01073199D01*
Y01073195D01*
X00611328Y01073188D01*
X00611331Y01073178D01*
X00611341Y01073164D01*
X00611352Y01073147D01*
X00611366Y01073123D01*
X00611376Y01073095D01*
X00611393Y01073067D01*
X00611424Y01072998D01*
X00611455Y01072919D01*
X00611490Y01072826D01*
X00611517Y01072726D01*
Y01072722D01*
X00611521Y01072712D01*
X00611524Y01072698D01*
X00611528Y01072674D01*
X00611535Y01072646D01*
X00611542Y01072611D01*
X00611549Y01072573D01*
X00611555Y01072529D01*
X00611559Y01072477D01*
X00611566Y01072422D01*
X00611573Y01072359D01*
X00611580Y01072294D01*
X00611583Y01072221D01*
X00611586Y01072145D01*
X00611590Y01072062D01*
Y01071976D01*
Y01071969D01*
Y01071952D01*
Y01071921D01*
Y01071883D01*
X00611586Y01071834D01*
X00611583Y01071783D01*
X00611580Y01071720D01*
X00611576Y01071655D01*
X00611569Y01071582D01*
X00611562Y01071510D01*
X00611542Y01071358D01*
X00611511Y01071209D01*
X00611493Y01071136D01*
X00611473Y01071071D01*
Y01071067D01*
X00611466Y01071057D01*
X00611462Y01071036D01*
X00611452Y01071016D01*
X00611438Y01070984D01*
X00611424Y01070953D01*
X00611407Y01070915D01*
X00611386Y01070874D01*
X00611338Y01070788D01*
X00611279Y01070701D01*
X00611210Y01070615D01*
X00611169Y01070577D01*
X00611127Y01070539D01*
X00611124Y01070536D01*
X00611117Y01070532D01*
X00611103Y01070522D01*
X00611086Y01070511D01*
X00611065Y01070498D01*
X00611037Y01070480D01*
X00611006Y01070463D01*
X00610968Y01070446D01*
X00610930Y01070428D01*
X00610885Y01070411D01*
X00610840Y01070397D01*
X00610789Y01070380D01*
X00610733Y01070370D01*
X00610675Y01070359D01*
X00610616Y01070356D01*
X00610550Y01070352D01*
X00610530D01*
X00610505Y01070356D01*
X00610474Y01070359D01*
X00610436Y01070363D01*
X00610391Y01070370D01*
X00610343Y01070380D01*
X00610288Y01070394D01*
X00610232Y01070411D01*
X00610174Y01070432D01*
X00610112Y01070460D01*
X00610053Y01070490D01*
X00609994Y01070528D01*
X00609935Y01070573D01*
X00609880Y01070622D01*
X00609828Y01070680D01*
X00609825Y01070684D01*
X00609814Y01070698D01*
X00609801Y01070722D01*
X00609780Y01070757D01*
X00609756Y01070801D01*
X00609728Y01070853D01*
X00609700Y01070919D01*
X00609673Y01070991D01*
X00609642Y01071078D01*
X00609614Y01071171D01*
X00609586Y01071278D01*
X00609562Y01071396D01*
X00609542Y01071523D01*
X00609528Y01071662D01*
X00609517Y01071814D01*
X00609514Y01071976D01*
Y01071983D01*
Y01072000D01*
Y01072031D01*
X00609517Y01072069D01*
Y01072118D01*
X00609521Y01072173D01*
X00609524Y01072235D01*
X00609528Y01072301D01*
X00609535Y01072373D01*
X00609542Y01072446D01*
X00609562Y01072598D01*
X00609590Y01072746D01*
X00609607Y01072819D01*
X00609628Y01072884D01*
Y01072888D01*
X00609635Y01072898D01*
X00609642Y01072919D01*
X00609649Y01072943D01*
X00609662Y01072971D01*
X00609676Y01073005D01*
X00609693Y01073040D01*
X00609714Y01073081D01*
X00609763Y01073168D01*
X00609825Y01073254D01*
X00609894Y01073340D01*
X00609932Y01073378D01*
X00609973Y01073416D01*
X00609977Y01073420D01*
X00609984Y01073423D01*
X00609997Y01073434D01*
X00610015Y01073444D01*
X00610036Y01073461D01*
X00610063Y01073475D01*
X00610094Y01073492D01*
X00610132Y01073510D01*
X00610170Y01073527D01*
X00610215Y01073544D01*
X00610263Y01073561D01*
X00610312Y01073575D01*
X00610367Y01073586D01*
X00610426Y01073596D01*
X00610488Y01073599D01*
X00610550Y01073603D01*
X00610592D01*
X00610616Y01073599D01*
D02*
G37*
G36*
X00565856Y01072764D02*
X00565887D01*
X00565928Y01072757D01*
X00565973Y01072750D01*
X00566025Y01072739D01*
X00566081Y01072729D01*
X00566139Y01072712D01*
X00566198Y01072691D01*
X00566264Y01072663D01*
X00566326Y01072632D01*
X00566388Y01072598D01*
X00566450Y01072553D01*
X00566512Y01072505D01*
X00566567Y01072449D01*
X00566571Y01072446D01*
X00566581Y01072435D01*
X00566595Y01072418D01*
X00566613Y01072391D01*
X00566637Y01072359D01*
X00566661Y01072321D01*
X00566688Y01072273D01*
X00566716Y01072221D01*
X00566740Y01072162D01*
X00566768Y01072097D01*
X00566792Y01072024D01*
X00566816Y01071945D01*
X00566833Y01071859D01*
X00566847Y01071765D01*
X00566858Y01071668D01*
X00566861Y01071565D01*
Y01071558D01*
Y01071541D01*
Y01071506D01*
X00566858Y01071461D01*
X00565134D01*
Y01071458D01*
Y01071444D01*
X00565137Y01071423D01*
X00565141Y01071399D01*
X00565144Y01071365D01*
X00565151Y01071330D01*
X00565158Y01071289D01*
X00565168Y01071244D01*
X00565196Y01071150D01*
X00565234Y01071050D01*
X00565258Y01071005D01*
X00565283Y01070957D01*
X00565314Y01070915D01*
X00565348Y01070874D01*
X00565352Y01070871D01*
X00565359Y01070867D01*
X00565369Y01070857D01*
X00565383Y01070843D01*
X00565403Y01070829D01*
X00565424Y01070812D01*
X00565452Y01070791D01*
X00565483Y01070774D01*
X00565552Y01070736D01*
X00565635Y01070705D01*
X00565680Y01070691D01*
X00565728Y01070684D01*
X00565780Y01070677D01*
X00565832Y01070674D01*
X00565853D01*
X00565866Y01070677D01*
X00565908Y01070680D01*
X00565960Y01070687D01*
X00566015Y01070701D01*
X00566077Y01070722D01*
X00566139Y01070746D01*
X00566198Y01070784D01*
X00566201D01*
X00566205Y01070791D01*
X00566222Y01070805D01*
X00566250Y01070833D01*
X00566284Y01070874D01*
X00566322Y01070922D01*
X00566364Y01070988D01*
X00566405Y01071064D01*
X00566440Y01071150D01*
X00566847Y01071098D01*
Y01071095D01*
X00566844Y01071081D01*
X00566837Y01071064D01*
X00566827Y01071040D01*
X00566816Y01071009D01*
X00566802Y01070974D01*
X00566785Y01070936D01*
X00566768Y01070895D01*
X00566720Y01070808D01*
X00566657Y01070715D01*
X00566619Y01070670D01*
X00566581Y01070625D01*
X00566540Y01070584D01*
X00566492Y01070546D01*
X00566488Y01070542D01*
X00566481Y01070539D01*
X00566464Y01070528D01*
X00566447Y01070515D01*
X00566419Y01070501D01*
X00566388Y01070484D01*
X00566353Y01070466D01*
X00566312Y01070449D01*
X00566267Y01070432D01*
X00566215Y01070415D01*
X00566163Y01070397D01*
X00566105Y01070384D01*
X00566043Y01070370D01*
X00565977Y01070359D01*
X00565904Y01070356D01*
X00565832Y01070352D01*
X00565811D01*
X00565783Y01070356D01*
X00565749D01*
X00565704Y01070363D01*
X00565656Y01070370D01*
X00565600Y01070380D01*
X00565542Y01070390D01*
X00565479Y01070408D01*
X00565414Y01070428D01*
X00565345Y01070452D01*
X00565279Y01070484D01*
X00565210Y01070518D01*
X00565148Y01070560D01*
X00565086Y01070608D01*
X00565027Y01070663D01*
X00565023Y01070667D01*
X00565013Y01070677D01*
X00564999Y01070694D01*
X00564982Y01070722D01*
X00564958Y01070753D01*
X00564934Y01070791D01*
X00564906Y01070836D01*
X00564882Y01070888D01*
X00564854Y01070947D01*
X00564827Y01071012D01*
X00564802Y01071085D01*
X00564778Y01071164D01*
X00564761Y01071247D01*
X00564747Y01071337D01*
X00564737Y01071434D01*
X00564733Y01071537D01*
Y01071544D01*
Y01071561D01*
X00564737Y01071592D01*
Y01071634D01*
X00564744Y01071682D01*
X00564751Y01071738D01*
X00564757Y01071803D01*
X00564771Y01071869D01*
X00564785Y01071941D01*
X00564806Y01072014D01*
X00564830Y01072090D01*
X00564858Y01072166D01*
X00564892Y01072238D01*
X00564934Y01072311D01*
X00564978Y01072380D01*
X00565030Y01072442D01*
X00565034Y01072446D01*
X00565044Y01072456D01*
X00565061Y01072473D01*
X00565086Y01072494D01*
X00565113Y01072518D01*
X00565151Y01072546D01*
X00565193Y01072573D01*
X00565241Y01072605D01*
X00565293Y01072636D01*
X00565352Y01072663D01*
X00565417Y01072691D01*
X00565486Y01072715D01*
X00565562Y01072736D01*
X00565638Y01072753D01*
X00565725Y01072764D01*
X00565811Y01072767D01*
X00565832D01*
X00565856Y01072764D01*
D02*
G37*
G36*
X00527067D02*
X00527098D01*
X00527140Y01072757D01*
X00527184Y01072750D01*
X00527236Y01072739D01*
X00527292Y01072729D01*
X00527350Y01072712D01*
X00527409Y01072691D01*
X00527475Y01072663D01*
X00527537Y01072632D01*
X00527599Y01072598D01*
X00527661Y01072553D01*
X00527723Y01072505D01*
X00527779Y01072449D01*
X00527782Y01072446D01*
X00527792Y01072435D01*
X00527806Y01072418D01*
X00527823Y01072391D01*
X00527848Y01072359D01*
X00527872Y01072321D01*
X00527900Y01072273D01*
X00527927Y01072221D01*
X00527951Y01072162D01*
X00527979Y01072097D01*
X00528003Y01072024D01*
X00528027Y01071945D01*
X00528045Y01071859D01*
X00528058Y01071765D01*
X00528069Y01071668D01*
X00528072Y01071565D01*
Y01071558D01*
Y01071541D01*
Y01071506D01*
X00528069Y01071461D01*
X00526345D01*
Y01071458D01*
Y01071444D01*
X00526348Y01071423D01*
X00526352Y01071399D01*
X00526355Y01071365D01*
X00526362Y01071330D01*
X00526369Y01071289D01*
X00526380Y01071244D01*
X00526407Y01071150D01*
X00526445Y01071050D01*
X00526469Y01071005D01*
X00526494Y01070957D01*
X00526525Y01070915D01*
X00526559Y01070874D01*
X00526563Y01070871D01*
X00526570Y01070867D01*
X00526580Y01070857D01*
X00526594Y01070843D01*
X00526614Y01070829D01*
X00526635Y01070812D01*
X00526663Y01070791D01*
X00526694Y01070774D01*
X00526763Y01070736D01*
X00526846Y01070705D01*
X00526891Y01070691D01*
X00526939Y01070684D01*
X00526991Y01070677D01*
X00527043Y01070674D01*
X00527064D01*
X00527077Y01070677D01*
X00527119Y01070680D01*
X00527171Y01070687D01*
X00527226Y01070701D01*
X00527288Y01070722D01*
X00527350Y01070746D01*
X00527409Y01070784D01*
X00527412D01*
X00527416Y01070791D01*
X00527433Y01070805D01*
X00527461Y01070833D01*
X00527495Y01070874D01*
X00527533Y01070922D01*
X00527575Y01070988D01*
X00527616Y01071064D01*
X00527651Y01071150D01*
X00528058Y01071098D01*
Y01071095D01*
X00528055Y01071081D01*
X00528048Y01071064D01*
X00528038Y01071040D01*
X00528027Y01071009D01*
X00528013Y01070974D01*
X00527996Y01070936D01*
X00527979Y01070895D01*
X00527931Y01070808D01*
X00527868Y01070715D01*
X00527830Y01070670D01*
X00527792Y01070625D01*
X00527751Y01070584D01*
X00527703Y01070546D01*
X00527699Y01070542D01*
X00527692Y01070539D01*
X00527675Y01070528D01*
X00527658Y01070515D01*
X00527630Y01070501D01*
X00527599Y01070484D01*
X00527565Y01070466D01*
X00527523Y01070449D01*
X00527478Y01070432D01*
X00527426Y01070415D01*
X00527374Y01070397D01*
X00527316Y01070384D01*
X00527254Y01070370D01*
X00527188Y01070359D01*
X00527115Y01070356D01*
X00527043Y01070352D01*
X00527022D01*
X00526995Y01070356D01*
X00526960D01*
X00526915Y01070363D01*
X00526867Y01070370D01*
X00526811Y01070380D01*
X00526753Y01070390D01*
X00526690Y01070408D01*
X00526625Y01070428D01*
X00526556Y01070452D01*
X00526490Y01070484D01*
X00526421Y01070518D01*
X00526359Y01070560D01*
X00526297Y01070608D01*
X00526238Y01070663D01*
X00526235Y01070667D01*
X00526224Y01070677D01*
X00526210Y01070694D01*
X00526193Y01070722D01*
X00526169Y01070753D01*
X00526145Y01070791D01*
X00526117Y01070836D01*
X00526093Y01070888D01*
X00526065Y01070947D01*
X00526038Y01071012D01*
X00526013Y01071085D01*
X00525989Y01071164D01*
X00525972Y01071247D01*
X00525958Y01071337D01*
X00525948Y01071434D01*
X00525944Y01071537D01*
Y01071544D01*
Y01071561D01*
X00525948Y01071592D01*
Y01071634D01*
X00525955Y01071682D01*
X00525962Y01071738D01*
X00525969Y01071803D01*
X00525982Y01071869D01*
X00525996Y01071941D01*
X00526017Y01072014D01*
X00526041Y01072090D01*
X00526069Y01072166D01*
X00526103Y01072238D01*
X00526145Y01072311D01*
X00526190Y01072380D01*
X00526241Y01072442D01*
X00526245Y01072446D01*
X00526255Y01072456D01*
X00526273Y01072473D01*
X00526297Y01072494D01*
X00526324Y01072518D01*
X00526362Y01072546D01*
X00526404Y01072573D01*
X00526452Y01072605D01*
X00526504Y01072636D01*
X00526563Y01072663D01*
X00526628Y01072691D01*
X00526697Y01072715D01*
X00526773Y01072736D01*
X00526849Y01072753D01*
X00526936Y01072764D01*
X00527022Y01072767D01*
X00527043D01*
X00527067Y01072764D01*
D02*
G37*
G36*
X00553910D02*
X00553945D01*
X00553987Y01072757D01*
X00554031Y01072750D01*
X00554083Y01072739D01*
X00554142Y01072729D01*
X00554201Y01072712D01*
X00554266Y01072691D01*
X00554328Y01072663D01*
X00554394Y01072636D01*
X00554460Y01072598D01*
X00554522Y01072556D01*
X00554584Y01072508D01*
X00554643Y01072453D01*
X00554646Y01072449D01*
X00554657Y01072439D01*
X00554670Y01072422D01*
X00554691Y01072394D01*
X00554712Y01072363D01*
X00554740Y01072325D01*
X00554767Y01072280D01*
X00554795Y01072228D01*
X00554823Y01072169D01*
X00554850Y01072104D01*
X00554878Y01072035D01*
X00554898Y01071959D01*
X00554919Y01071876D01*
X00554933Y01071786D01*
X00554943Y01071689D01*
X00554947Y01071589D01*
Y01071586D01*
Y01071568D01*
Y01071548D01*
X00554943Y01071516D01*
Y01071479D01*
X00554940Y01071434D01*
X00554936Y01071385D01*
X00554930Y01071333D01*
X00554916Y01071223D01*
X00554892Y01071105D01*
X00554857Y01070991D01*
X00554836Y01070940D01*
X00554812Y01070888D01*
Y01070884D01*
X00554805Y01070877D01*
X00554798Y01070864D01*
X00554788Y01070846D01*
X00554774Y01070826D01*
X00554757Y01070798D01*
X00554712Y01070743D01*
X00554657Y01070677D01*
X00554591Y01070611D01*
X00554512Y01070549D01*
X00554422Y01070490D01*
X00554418D01*
X00554411Y01070484D01*
X00554398Y01070477D01*
X00554377Y01070470D01*
X00554353Y01070460D01*
X00554325Y01070446D01*
X00554294Y01070435D01*
X00554256Y01070422D01*
X00554218Y01070408D01*
X00554173Y01070397D01*
X00554080Y01070373D01*
X00553976Y01070359D01*
X00553866Y01070352D01*
X00553845D01*
X00553821Y01070356D01*
X00553786D01*
X00553745Y01070363D01*
X00553696Y01070370D01*
X00553644Y01070380D01*
X00553586Y01070390D01*
X00553524Y01070408D01*
X00553461Y01070428D01*
X00553396Y01070452D01*
X00553330Y01070484D01*
X00553265Y01070518D01*
X00553202Y01070560D01*
X00553140Y01070608D01*
X00553082Y01070663D01*
X00553078Y01070667D01*
X00553068Y01070677D01*
X00553054Y01070694D01*
X00553037Y01070722D01*
X00553012Y01070753D01*
X00552988Y01070791D01*
X00552961Y01070839D01*
X00552933Y01070891D01*
X00552905Y01070953D01*
X00552878Y01071019D01*
X00552854Y01071092D01*
X00552829Y01071171D01*
X00552812Y01071257D01*
X00552798Y01071351D01*
X00552788Y01071451D01*
X00552784Y01071558D01*
Y01071561D01*
Y01071565D01*
Y01071586D01*
X00552788Y01071620D01*
X00552791Y01071662D01*
X00552795Y01071717D01*
X00552802Y01071779D01*
X00552816Y01071845D01*
X00552829Y01071917D01*
X00552847Y01071993D01*
X00552871Y01072073D01*
X00552902Y01072152D01*
X00552933Y01072232D01*
X00552974Y01072308D01*
X00553023Y01072380D01*
X00553078Y01072446D01*
X00553140Y01072508D01*
X00553144Y01072511D01*
X00553154Y01072518D01*
X00553171Y01072532D01*
X00553192Y01072549D01*
X00553223Y01072567D01*
X00553258Y01072591D01*
X00553296Y01072615D01*
X00553344Y01072639D01*
X00553392Y01072663D01*
X00553448Y01072684D01*
X00553506Y01072708D01*
X00553572Y01072726D01*
X00553641Y01072743D01*
X00553710Y01072757D01*
X00553786Y01072764D01*
X00553866Y01072767D01*
X00553886D01*
X00553910Y01072764D01*
D02*
G37*
G36*
X00625531D02*
X00625562D01*
X00625604Y01072757D01*
X00625649Y01072750D01*
X00625700Y01072739D01*
X00625756Y01072729D01*
X00625815Y01072712D01*
X00625873Y01072691D01*
X00625939Y01072663D01*
X00626001Y01072632D01*
X00626063Y01072598D01*
X00626125Y01072553D01*
X00626188Y01072505D01*
X00626243Y01072449D01*
X00626246Y01072446D01*
X00626257Y01072435D01*
X00626270Y01072418D01*
X00626288Y01072391D01*
X00626312Y01072359D01*
X00626336Y01072321D01*
X00626364Y01072273D01*
X00626391Y01072221D01*
X00626415Y01072162D01*
X00626443Y01072097D01*
X00626467Y01072024D01*
X00626492Y01071945D01*
X00626509Y01071859D01*
X00626523Y01071765D01*
X00626533Y01071668D01*
X00626536Y01071565D01*
Y01071558D01*
Y01071541D01*
Y01071506D01*
X00626533Y01071461D01*
X00624809D01*
Y01071458D01*
Y01071444D01*
X00624813Y01071423D01*
X00624816Y01071399D01*
X00624820Y01071365D01*
X00624827Y01071330D01*
X00624833Y01071289D01*
X00624844Y01071244D01*
X00624871Y01071150D01*
X00624909Y01071050D01*
X00624934Y01071005D01*
X00624958Y01070957D01*
X00624989Y01070915D01*
X00625023Y01070874D01*
X00625027Y01070871D01*
X00625034Y01070867D01*
X00625044Y01070857D01*
X00625058Y01070843D01*
X00625079Y01070829D01*
X00625099Y01070812D01*
X00625127Y01070791D01*
X00625158Y01070774D01*
X00625227Y01070736D01*
X00625310Y01070705D01*
X00625355Y01070691D01*
X00625403Y01070684D01*
X00625455Y01070677D01*
X00625507Y01070674D01*
X00625528D01*
X00625542Y01070677D01*
X00625583Y01070680D01*
X00625635Y01070687D01*
X00625690Y01070701D01*
X00625752Y01070722D01*
X00625815Y01070746D01*
X00625873Y01070784D01*
X00625877D01*
X00625880Y01070791D01*
X00625897Y01070805D01*
X00625925Y01070833D01*
X00625960Y01070874D01*
X00625998Y01070922D01*
X00626039Y01070988D01*
X00626081Y01071064D01*
X00626115Y01071150D01*
X00626523Y01071098D01*
Y01071095D01*
X00626519Y01071081D01*
X00626512Y01071064D01*
X00626502Y01071040D01*
X00626492Y01071009D01*
X00626478Y01070974D01*
X00626460Y01070936D01*
X00626443Y01070895D01*
X00626395Y01070808D01*
X00626333Y01070715D01*
X00626295Y01070670D01*
X00626257Y01070625D01*
X00626215Y01070584D01*
X00626167Y01070546D01*
X00626163Y01070542D01*
X00626157Y01070539D01*
X00626139Y01070528D01*
X00626122Y01070515D01*
X00626094Y01070501D01*
X00626063Y01070484D01*
X00626029Y01070466D01*
X00625987Y01070449D01*
X00625942Y01070432D01*
X00625891Y01070415D01*
X00625839Y01070397D01*
X00625780Y01070384D01*
X00625718Y01070370D01*
X00625652Y01070359D01*
X00625580Y01070356D01*
X00625507Y01070352D01*
X00625486D01*
X00625459Y01070356D01*
X00625424D01*
X00625379Y01070363D01*
X00625331Y01070370D01*
X00625276Y01070380D01*
X00625217Y01070390D01*
X00625155Y01070408D01*
X00625089Y01070428D01*
X00625020Y01070452D01*
X00624954Y01070484D01*
X00624885Y01070518D01*
X00624823Y01070560D01*
X00624761Y01070608D01*
X00624702Y01070663D01*
X00624699Y01070667D01*
X00624688Y01070677D01*
X00624674Y01070694D01*
X00624657Y01070722D01*
X00624633Y01070753D01*
X00624609Y01070791D01*
X00624581Y01070836D01*
X00624557Y01070888D01*
X00624529Y01070947D01*
X00624502Y01071012D01*
X00624478Y01071085D01*
X00624453Y01071164D01*
X00624436Y01071247D01*
X00624422Y01071337D01*
X00624412Y01071434D01*
X00624408Y01071537D01*
Y01071544D01*
Y01071561D01*
X00624412Y01071592D01*
Y01071634D01*
X00624419Y01071682D01*
X00624426Y01071738D01*
X00624433Y01071803D01*
X00624446Y01071869D01*
X00624460Y01071941D01*
X00624481Y01072014D01*
X00624505Y01072090D01*
X00624533Y01072166D01*
X00624567Y01072238D01*
X00624609Y01072311D01*
X00624654Y01072380D01*
X00624706Y01072442D01*
X00624709Y01072446D01*
X00624719Y01072456D01*
X00624737Y01072473D01*
X00624761Y01072494D01*
X00624789Y01072518D01*
X00624827Y01072546D01*
X00624868Y01072573D01*
X00624916Y01072605D01*
X00624968Y01072636D01*
X00625027Y01072663D01*
X00625093Y01072691D01*
X00625162Y01072715D01*
X00625238Y01072736D01*
X00625314Y01072753D01*
X00625400Y01072764D01*
X00625486Y01072767D01*
X00625507D01*
X00625531Y01072764D01*
D02*
G37*
G36*
X00583817D02*
X00583848D01*
X00583914Y01072757D01*
X00583990Y01072750D01*
X00584069Y01072736D01*
X00584149Y01072719D01*
X00584221Y01072694D01*
X00584225D01*
X00584228Y01072691D01*
X00584239Y01072688D01*
X00584253Y01072681D01*
X00584284Y01072667D01*
X00584325Y01072646D01*
X00584370Y01072622D01*
X00584415Y01072591D01*
X00584456Y01072556D01*
X00584494Y01072518D01*
X00584498Y01072515D01*
X00584508Y01072501D01*
X00584525Y01072477D01*
X00584543Y01072446D01*
X00584563Y01072408D01*
X00584584Y01072363D01*
X00584605Y01072311D01*
X00584619Y01072252D01*
Y01072249D01*
X00584622Y01072232D01*
X00584626Y01072207D01*
X00584629Y01072169D01*
X00584632Y01072121D01*
X00584636Y01072059D01*
Y01072021D01*
X00584639Y01071983D01*
Y01071941D01*
Y01071893D01*
Y01071371D01*
Y01071365D01*
Y01071347D01*
Y01071320D01*
Y01071285D01*
Y01071240D01*
Y01071192D01*
X00584643Y01071136D01*
Y01071081D01*
X00584646Y01070964D01*
Y01070905D01*
X00584650Y01070850D01*
X00584653Y01070798D01*
X00584657Y01070753D01*
X00584660Y01070712D01*
X00584664Y01070680D01*
Y01070674D01*
X00584667Y01070656D01*
X00584674Y01070629D01*
X00584684Y01070591D01*
X00584698Y01070549D01*
X00584715Y01070504D01*
X00584736Y01070452D01*
X00584760Y01070404D01*
X00584353D01*
X00584349Y01070411D01*
X00584342Y01070425D01*
X00584332Y01070452D01*
X00584322Y01070487D01*
X00584308Y01070528D01*
X00584294Y01070577D01*
X00584284Y01070632D01*
X00584277Y01070694D01*
X00584273Y01070691D01*
X00584266Y01070687D01*
X00584256Y01070677D01*
X00584239Y01070663D01*
X00584218Y01070649D01*
X00584197Y01070629D01*
X00584142Y01070591D01*
X00584076Y01070546D01*
X00584007Y01070501D01*
X00583931Y01070463D01*
X00583855Y01070428D01*
X00583852D01*
X00583845Y01070425D01*
X00583834Y01070422D01*
X00583821Y01070418D01*
X00583803Y01070411D01*
X00583779Y01070404D01*
X00583727Y01070390D01*
X00583662Y01070377D01*
X00583589Y01070363D01*
X00583510Y01070356D01*
X00583423Y01070352D01*
X00583385D01*
X00583361Y01070356D01*
X00583330Y01070359D01*
X00583292Y01070363D01*
X00583251Y01070366D01*
X00583209Y01070377D01*
X00583112Y01070397D01*
X00583016Y01070428D01*
X00582971Y01070449D01*
X00582923Y01070477D01*
X00582881Y01070504D01*
X00582840Y01070536D01*
X00582836Y01070539D01*
X00582829Y01070546D01*
X00582822Y01070556D01*
X00582809Y01070570D01*
X00582791Y01070587D01*
X00582774Y01070611D01*
X00582757Y01070636D01*
X00582739Y01070667D01*
X00582701Y01070732D01*
X00582667Y01070815D01*
X00582653Y01070860D01*
X00582646Y01070909D01*
X00582639Y01070960D01*
X00582636Y01071012D01*
Y01071016D01*
Y01071019D01*
Y01071040D01*
X00582639Y01071074D01*
X00582646Y01071116D01*
X00582653Y01071164D01*
X00582667Y01071216D01*
X00582688Y01071268D01*
X00582712Y01071323D01*
X00582715Y01071330D01*
X00582726Y01071347D01*
X00582743Y01071371D01*
X00582767Y01071406D01*
X00582795Y01071441D01*
X00582829Y01071479D01*
X00582867Y01071513D01*
X00582912Y01071548D01*
X00582919Y01071551D01*
X00582936Y01071561D01*
X00582961Y01071579D01*
X00582995Y01071596D01*
X00583037Y01071617D01*
X00583085Y01071637D01*
X00583140Y01071658D01*
X00583195Y01071675D01*
X00583202D01*
X00583216Y01071682D01*
X00583244Y01071686D01*
X00583282Y01071696D01*
X00583330Y01071703D01*
X00583392Y01071713D01*
X00583461Y01071724D01*
X00583544Y01071734D01*
X00583551D01*
X00583565Y01071738D01*
X00583589Y01071741D01*
X00583620Y01071745D01*
X00583662Y01071751D01*
X00583707Y01071758D01*
X00583755Y01071765D01*
X00583810Y01071772D01*
X00583924Y01071793D01*
X00584038Y01071817D01*
X00584094Y01071831D01*
X00584149Y01071845D01*
X00584197Y01071859D01*
X00584242Y01071872D01*
Y01071876D01*
Y01071886D01*
Y01071900D01*
X00584246Y01071914D01*
Y01071948D01*
Y01071962D01*
Y01071973D01*
Y01071976D01*
Y01071983D01*
Y01071997D01*
Y01072010D01*
X00584239Y01072052D01*
X00584232Y01072104D01*
X00584218Y01072159D01*
X00584197Y01072214D01*
X00584170Y01072266D01*
X00584132Y01072308D01*
X00584125Y01072315D01*
X00584118Y01072321D01*
X00584104Y01072328D01*
X00584087Y01072339D01*
X00584069Y01072349D01*
X00584021Y01072377D01*
X00583959Y01072401D01*
X00583883Y01072422D01*
X00583793Y01072435D01*
X00583689Y01072442D01*
X00583644D01*
X00583620Y01072439D01*
X00583596D01*
X00583534Y01072432D01*
X00583468Y01072418D01*
X00583403Y01072401D01*
X00583337Y01072377D01*
X00583282Y01072346D01*
X00583275Y01072342D01*
X00583261Y01072328D01*
X00583237Y01072301D01*
X00583209Y01072266D01*
X00583178Y01072221D01*
X00583144Y01072159D01*
X00583116Y01072090D01*
X00583102Y01072048D01*
X00583088Y01072004D01*
X00582705Y01072055D01*
Y01072059D01*
X00582708Y01072066D01*
X00582712Y01072080D01*
X00582715Y01072097D01*
X00582722Y01072118D01*
X00582729Y01072142D01*
X00582746Y01072197D01*
X00582771Y01072259D01*
X00582798Y01072325D01*
X00582833Y01072391D01*
X00582874Y01072449D01*
Y01072453D01*
X00582881Y01072456D01*
X00582898Y01072473D01*
X00582926Y01072501D01*
X00582964Y01072535D01*
X00583012Y01072573D01*
X00583071Y01072611D01*
X00583140Y01072650D01*
X00583220Y01072684D01*
X00583223D01*
X00583230Y01072688D01*
X00583244Y01072691D01*
X00583261Y01072698D01*
X00583282Y01072705D01*
X00583306Y01072712D01*
X00583337Y01072719D01*
X00583372Y01072726D01*
X00583406Y01072732D01*
X00583448Y01072739D01*
X00583537Y01072753D01*
X00583638Y01072764D01*
X00583745Y01072767D01*
X00583793D01*
X00583817Y01072764D01*
D02*
G37*
G36*
X00586875Y01070404D02*
X00586485D01*
Y01073593D01*
X00586875D01*
Y01070404D01*
D02*
G37*
G36*
X00563005D02*
X00562615D01*
Y01073593D01*
X00563005D01*
Y01070404D01*
D02*
G37*
G36*
X00542071Y01072715D02*
X00542468D01*
Y01072411D01*
X00542071D01*
Y01071057D01*
Y01071054D01*
Y01071050D01*
Y01071029D01*
Y01071002D01*
X00542074Y01070967D01*
Y01070933D01*
X00542081Y01070898D01*
X00542084Y01070867D01*
X00542091Y01070843D01*
Y01070839D01*
X00542095Y01070836D01*
X00542108Y01070815D01*
X00542129Y01070791D01*
X00542157Y01070767D01*
X00542160D01*
X00542167Y01070763D01*
X00542178Y01070760D01*
X00542191Y01070753D01*
X00542212Y01070750D01*
X00542233Y01070743D01*
X00542261Y01070739D01*
X00542319D01*
X00542340Y01070743D01*
X00542364D01*
X00542395Y01070746D01*
X00542430Y01070750D01*
X00542468Y01070753D01*
X00542519Y01070408D01*
X00542513D01*
X00542492Y01070401D01*
X00542461Y01070397D01*
X00542419Y01070390D01*
X00542374Y01070384D01*
X00542326Y01070380D01*
X00542223Y01070373D01*
X00542188D01*
X00542150Y01070377D01*
X00542102Y01070380D01*
X00542046Y01070390D01*
X00541991Y01070401D01*
X00541939Y01070418D01*
X00541891Y01070439D01*
X00541887Y01070442D01*
X00541874Y01070452D01*
X00541853Y01070466D01*
X00541825Y01070487D01*
X00541798Y01070511D01*
X00541770Y01070542D01*
X00541746Y01070577D01*
X00541725Y01070615D01*
X00541722Y01070622D01*
X00541718Y01070639D01*
X00541715Y01070653D01*
X00541711Y01070670D01*
X00541708Y01070691D01*
X00541704Y01070715D01*
X00541697Y01070743D01*
X00541694Y01070777D01*
X00541690Y01070815D01*
X00541687Y01070857D01*
X00541684Y01070905D01*
Y01070957D01*
X00541680Y01071016D01*
Y01071078D01*
Y01072411D01*
X00541390D01*
Y01072715D01*
X00541680D01*
Y01073285D01*
X00542071Y01073520D01*
Y01072715D01*
D02*
G37*
G36*
X00539149Y01070404D02*
X00538759D01*
Y01072715D01*
X00539149D01*
Y01070404D01*
D02*
G37*
G36*
X00524345Y01074584D02*
X00524145D01*
Y01084584D01*
X00524345D01*
Y01074584D01*
D02*
G37*
G36*
X00525145D02*
X00524745D01*
Y01084584D01*
X00525145D01*
Y01074584D01*
D02*
G37*
G36*
X00523345D02*
X00523145D01*
Y01084584D01*
X00523345D01*
Y01074584D01*
D02*
G37*
G36*
X00539149Y01073147D02*
X00538759D01*
Y01073593D01*
X00539149D01*
Y01073147D01*
D02*
G37*
G36*
X00522945Y01074584D02*
X00522545D01*
Y01084584D01*
X00522945D01*
Y01074584D01*
D02*
G37*
G36*
X00525945D02*
X00525345D01*
Y01084584D01*
X00525945D01*
Y01074584D01*
D02*
G37*
G36*
X00528945D02*
X00528345D01*
Y01084584D01*
X00528945D01*
Y01074584D01*
D02*
G37*
G36*
X00529345D02*
X00529145D01*
Y01084584D01*
X00529345D01*
Y01074584D01*
D02*
G37*
G36*
X00528145D02*
X00527345D01*
Y01084584D01*
X00528145D01*
Y01074584D01*
D02*
G37*
G36*
X00526345D02*
X00526145D01*
Y01084584D01*
X00526345D01*
Y01074584D01*
D02*
G37*
G36*
X00527145D02*
X00526945D01*
Y01084584D01*
X00527145D01*
Y01074584D01*
D02*
G37*
G36*
X00524085Y01073644D02*
X00524123Y01073641D01*
X00524161Y01073637D01*
X00524206Y01073634D01*
X00524303Y01073620D01*
X00524410Y01073599D01*
X00524517Y01073568D01*
X00524620Y01073530D01*
X00524624D01*
X00524631Y01073523D01*
X00524648Y01073520D01*
X00524665Y01073510D01*
X00524686Y01073496D01*
X00524714Y01073482D01*
X00524772Y01073447D01*
X00524841Y01073399D01*
X00524911Y01073340D01*
X00524976Y01073275D01*
X00525035Y01073195D01*
X00525038Y01073192D01*
X00525042Y01073185D01*
X00525049Y01073175D01*
X00525059Y01073157D01*
X00525070Y01073137D01*
X00525083Y01073112D01*
X00525094Y01073081D01*
X00525111Y01073050D01*
X00525139Y01072978D01*
X00525163Y01072891D01*
X00525183Y01072798D01*
X00525194Y01072694D01*
X00524790Y01072663D01*
Y01072667D01*
X00524786Y01072677D01*
Y01072691D01*
X00524783Y01072712D01*
X00524776Y01072739D01*
X00524769Y01072767D01*
X00524748Y01072833D01*
X00524721Y01072905D01*
X00524679Y01072981D01*
X00524631Y01073054D01*
X00524600Y01073085D01*
X00524565Y01073116D01*
X00524562Y01073119D01*
X00524558Y01073123D01*
X00524544Y01073130D01*
X00524531Y01073140D01*
X00524510Y01073150D01*
X00524486Y01073164D01*
X00524458Y01073178D01*
X00524427Y01073195D01*
X00524389Y01073209D01*
X00524347Y01073223D01*
X00524303Y01073237D01*
X00524254Y01073247D01*
X00524199Y01073258D01*
X00524140Y01073264D01*
X00524078Y01073271D01*
X00523978D01*
X00523950Y01073268D01*
X00523919D01*
X00523885Y01073264D01*
X00523843Y01073261D01*
X00523802Y01073254D01*
X00523708Y01073237D01*
X00523619Y01073213D01*
X00523532Y01073178D01*
X00523491Y01073154D01*
X00523456Y01073130D01*
X00523453D01*
X00523449Y01073123D01*
X00523429Y01073105D01*
X00523401Y01073074D01*
X00523370Y01073033D01*
X00523339Y01072985D01*
X00523311Y01072926D01*
X00523290Y01072864D01*
X00523287Y01072829D01*
X00523284Y01072791D01*
Y01072788D01*
Y01072784D01*
X00523287Y01072764D01*
X00523290Y01072732D01*
X00523297Y01072694D01*
X00523315Y01072650D01*
X00523335Y01072601D01*
X00523363Y01072556D01*
X00523405Y01072511D01*
X00523411Y01072508D01*
X00523418Y01072501D01*
X00523432Y01072491D01*
X00523449Y01072480D01*
X00523470Y01072470D01*
X00523498Y01072456D01*
X00523529Y01072439D01*
X00523567Y01072422D01*
X00523612Y01072404D01*
X00523663Y01072387D01*
X00523722Y01072366D01*
X00523791Y01072346D01*
X00523864Y01072325D01*
X00523947Y01072301D01*
X00524040Y01072280D01*
X00524047D01*
X00524064Y01072277D01*
X00524088Y01072270D01*
X00524123Y01072259D01*
X00524164Y01072252D01*
X00524213Y01072238D01*
X00524265Y01072228D01*
X00524320Y01072211D01*
X00524437Y01072180D01*
X00524555Y01072149D01*
X00524610Y01072131D01*
X00524658Y01072114D01*
X00524707Y01072097D01*
X00524745Y01072080D01*
X00524748D01*
X00524759Y01072073D01*
X00524772Y01072066D01*
X00524790Y01072055D01*
X00524814Y01072045D01*
X00524841Y01072028D01*
X00524900Y01071990D01*
X00524969Y01071945D01*
X00525035Y01071890D01*
X00525101Y01071824D01*
X00525128Y01071789D01*
X00525156Y01071755D01*
Y01071751D01*
X00525163Y01071745D01*
X00525170Y01071734D01*
X00525177Y01071720D01*
X00525187Y01071703D01*
X00525197Y01071679D01*
X00525225Y01071624D01*
X00525249Y01071558D01*
X00525270Y01071482D01*
X00525284Y01071396D01*
X00525291Y01071302D01*
Y01071299D01*
Y01071292D01*
Y01071278D01*
X00525287Y01071261D01*
Y01071237D01*
X00525284Y01071212D01*
X00525273Y01071147D01*
X00525256Y01071074D01*
X00525228Y01070995D01*
X00525190Y01070912D01*
X00525170Y01070867D01*
X00525142Y01070826D01*
Y01070822D01*
X00525135Y01070815D01*
X00525128Y01070805D01*
X00525114Y01070788D01*
X00525083Y01070750D01*
X00525035Y01070698D01*
X00524976Y01070642D01*
X00524904Y01070584D01*
X00524821Y01070528D01*
X00524724Y01070477D01*
X00524721D01*
X00524710Y01070470D01*
X00524696Y01070466D01*
X00524676Y01070456D01*
X00524651Y01070449D01*
X00524620Y01070439D01*
X00524586Y01070425D01*
X00524544Y01070415D01*
X00524503Y01070404D01*
X00524455Y01070390D01*
X00524351Y01070373D01*
X00524237Y01070359D01*
X00524113Y01070352D01*
X00524071D01*
X00524040Y01070356D01*
X00524002D01*
X00523961Y01070359D01*
X00523912Y01070363D01*
X00523857Y01070370D01*
X00523743Y01070384D01*
X00523622Y01070404D01*
X00523501Y01070435D01*
X00523384Y01070477D01*
X00523380D01*
X00523370Y01070484D01*
X00523356Y01070490D01*
X00523335Y01070501D01*
X00523311Y01070515D01*
X00523284Y01070528D01*
X00523218Y01070570D01*
X00523145Y01070622D01*
X00523069Y01070687D01*
X00522993Y01070763D01*
X00522928Y01070853D01*
X00522924Y01070857D01*
X00522921Y01070864D01*
X00522914Y01070877D01*
X00522904Y01070898D01*
X00522890Y01070922D01*
X00522876Y01070950D01*
X00522859Y01070984D01*
X00522845Y01071022D01*
X00522828Y01071060D01*
X00522814Y01071105D01*
X00522786Y01071206D01*
X00522765Y01071313D01*
X00522758Y01071371D01*
X00522755Y01071430D01*
X00523152Y01071465D01*
Y01071461D01*
Y01071454D01*
X00523156Y01071441D01*
X00523159Y01071423D01*
X00523163Y01071403D01*
X00523166Y01071382D01*
X00523180Y01071323D01*
X00523197Y01071261D01*
X00523218Y01071195D01*
X00523246Y01071130D01*
X00523280Y01071067D01*
X00523284Y01071060D01*
X00523301Y01071043D01*
X00523325Y01071016D01*
X00523360Y01070981D01*
X00523405Y01070940D01*
X00523460Y01070902D01*
X00523525Y01070860D01*
X00523601Y01070822D01*
X00523605D01*
X00523612Y01070819D01*
X00523622Y01070815D01*
X00523639Y01070808D01*
X00523660Y01070801D01*
X00523684Y01070791D01*
X00523712Y01070784D01*
X00523743Y01070777D01*
X00523815Y01070760D01*
X00523902Y01070743D01*
X00523992Y01070732D01*
X00524092Y01070729D01*
X00524133D01*
X00524154Y01070732D01*
X00524178D01*
X00524234Y01070739D01*
X00524299Y01070746D01*
X00524372Y01070757D01*
X00524444Y01070774D01*
X00524513Y01070798D01*
X00524517D01*
X00524520Y01070801D01*
X00524531Y01070805D01*
X00524544Y01070812D01*
X00524576Y01070829D01*
X00524617Y01070850D01*
X00524662Y01070877D01*
X00524710Y01070912D01*
X00524752Y01070950D01*
X00524790Y01070995D01*
X00524793Y01071002D01*
X00524804Y01071016D01*
X00524821Y01071043D01*
X00524838Y01071078D01*
X00524852Y01071119D01*
X00524869Y01071164D01*
X00524879Y01071216D01*
X00524883Y01071268D01*
Y01071271D01*
Y01071275D01*
Y01071292D01*
X00524879Y01071323D01*
X00524873Y01071358D01*
X00524862Y01071399D01*
X00524845Y01071444D01*
X00524824Y01071489D01*
X00524793Y01071530D01*
X00524790Y01071534D01*
X00524776Y01071548D01*
X00524755Y01071568D01*
X00524724Y01071596D01*
X00524686Y01071624D01*
X00524634Y01071655D01*
X00524576Y01071686D01*
X00524506Y01071717D01*
X00524500Y01071720D01*
X00524493Y01071724D01*
X00524479Y01071727D01*
X00524465Y01071731D01*
X00524444Y01071738D01*
X00524417Y01071748D01*
X00524389Y01071755D01*
X00524351Y01071765D01*
X00524313Y01071779D01*
X00524265Y01071789D01*
X00524213Y01071803D01*
X00524154Y01071821D01*
X00524092Y01071834D01*
X00524019Y01071855D01*
X00523940Y01071872D01*
X00523936D01*
X00523923Y01071876D01*
X00523898Y01071883D01*
X00523871Y01071890D01*
X00523833Y01071900D01*
X00523791Y01071910D01*
X00523750Y01071924D01*
X00523702Y01071938D01*
X00523598Y01071969D01*
X00523498Y01072004D01*
X00523449Y01072021D01*
X00523405Y01072038D01*
X00523363Y01072055D01*
X00523329Y01072073D01*
X00523325D01*
X00523318Y01072080D01*
X00523308Y01072086D01*
X00523290Y01072093D01*
X00523249Y01072118D01*
X00523201Y01072152D01*
X00523142Y01072197D01*
X00523087Y01072245D01*
X00523031Y01072304D01*
X00522986Y01072366D01*
Y01072370D01*
X00522983Y01072373D01*
X00522976Y01072384D01*
X00522969Y01072397D01*
X00522952Y01072435D01*
X00522931Y01072484D01*
X00522910Y01072542D01*
X00522893Y01072611D01*
X00522879Y01072688D01*
X00522876Y01072767D01*
Y01072770D01*
Y01072777D01*
Y01072791D01*
X00522879Y01072808D01*
Y01072829D01*
X00522883Y01072853D01*
X00522893Y01072915D01*
X00522910Y01072985D01*
X00522931Y01073057D01*
X00522966Y01073137D01*
X00523011Y01073216D01*
Y01073220D01*
X00523018Y01073226D01*
X00523024Y01073237D01*
X00523035Y01073251D01*
X00523069Y01073289D01*
X00523114Y01073337D01*
X00523170Y01073389D01*
X00523239Y01073441D01*
X00523318Y01073492D01*
X00523411Y01073537D01*
X00523415D01*
X00523422Y01073541D01*
X00523439Y01073548D01*
X00523456Y01073555D01*
X00523480Y01073561D01*
X00523512Y01073572D01*
X00523546Y01073582D01*
X00523584Y01073593D01*
X00523625Y01073603D01*
X00523671Y01073613D01*
X00523767Y01073631D01*
X00523878Y01073644D01*
X00523995Y01073648D01*
X00524054D01*
X00524085Y01073644D01*
D02*
G37*
G36*
X00530179Y01072764D02*
X00530210Y01072760D01*
X00530248Y01072757D01*
X00530289Y01072750D01*
X00530334Y01072743D01*
X00530431Y01072719D01*
X00530534Y01072684D01*
X00530586Y01072663D01*
X00530638Y01072639D01*
X00530686Y01072608D01*
X00530731Y01072573D01*
X00530735Y01072570D01*
X00530742Y01072563D01*
X00530756Y01072553D01*
X00530769Y01072539D01*
X00530790Y01072518D01*
X00530811Y01072494D01*
X00530835Y01072467D01*
X00530859Y01072435D01*
X00530887Y01072397D01*
X00530911Y01072359D01*
X00530939Y01072315D01*
X00530963Y01072266D01*
X00530984Y01072214D01*
X00531004Y01072159D01*
X00531025Y01072097D01*
X00531039Y01072035D01*
X00530659Y01071976D01*
Y01071979D01*
X00530655Y01071986D01*
X00530652Y01071997D01*
X00530648Y01072014D01*
X00530635Y01072055D01*
X00530614Y01072107D01*
X00530586Y01072162D01*
X00530555Y01072221D01*
X00530514Y01072277D01*
X00530465Y01072325D01*
X00530458Y01072332D01*
X00530441Y01072346D01*
X00530410Y01072363D01*
X00530372Y01072387D01*
X00530324Y01072408D01*
X00530268Y01072429D01*
X00530203Y01072442D01*
X00530134Y01072446D01*
X00530106D01*
X00530085Y01072442D01*
X00530058Y01072439D01*
X00530030Y01072435D01*
X00529961Y01072418D01*
X00529885Y01072394D01*
X00529847Y01072377D01*
X00529805Y01072356D01*
X00529767Y01072332D01*
X00529726Y01072301D01*
X00529688Y01072270D01*
X00529654Y01072232D01*
X00529650Y01072228D01*
X00529647Y01072221D01*
X00529636Y01072211D01*
X00529626Y01072190D01*
X00529612Y01072169D01*
X00529595Y01072142D01*
X00529577Y01072107D01*
X00529564Y01072069D01*
X00529546Y01072024D01*
X00529529Y01071976D01*
X00529512Y01071921D01*
X00529498Y01071859D01*
X00529488Y01071793D01*
X00529477Y01071724D01*
X00529474Y01071644D01*
X00529470Y01071561D01*
Y01071558D01*
Y01071541D01*
Y01071516D01*
X00529474Y01071485D01*
X00529477Y01071447D01*
X00529481Y01071403D01*
X00529484Y01071354D01*
X00529491Y01071302D01*
X00529512Y01071192D01*
X00529546Y01071078D01*
X00529564Y01071026D01*
X00529588Y01070974D01*
X00529616Y01070926D01*
X00529647Y01070884D01*
X00529650Y01070881D01*
X00529654Y01070874D01*
X00529664Y01070864D01*
X00529678Y01070853D01*
X00529698Y01070836D01*
X00529719Y01070819D01*
X00529743Y01070798D01*
X00529771Y01070781D01*
X00529840Y01070739D01*
X00529920Y01070708D01*
X00529964Y01070694D01*
X00530009Y01070684D01*
X00530061Y01070677D01*
X00530113Y01070674D01*
X00530134D01*
X00530151Y01070677D01*
X00530172D01*
X00530192Y01070680D01*
X00530248Y01070691D01*
X00530306Y01070708D01*
X00530372Y01070732D01*
X00530434Y01070767D01*
X00530496Y01070812D01*
X00530500Y01070815D01*
X00530503Y01070819D01*
X00530521Y01070839D01*
X00530548Y01070874D01*
X00530562Y01070895D01*
X00530579Y01070919D01*
X00530597Y01070950D01*
X00530614Y01070981D01*
X00530628Y01071016D01*
X00530645Y01071057D01*
X00530659Y01071098D01*
X00530673Y01071147D01*
X00530683Y01071195D01*
X00530693Y01071251D01*
X00531077Y01071199D01*
Y01071195D01*
X00531073Y01071181D01*
X00531070Y01071161D01*
X00531063Y01071133D01*
X00531053Y01071098D01*
X00531042Y01071060D01*
X00531028Y01071019D01*
X00531011Y01070971D01*
X00530970Y01070874D01*
X00530942Y01070822D01*
X00530911Y01070770D01*
X00530880Y01070719D01*
X00530842Y01070667D01*
X00530797Y01070622D01*
X00530752Y01070577D01*
X00530749Y01070573D01*
X00530742Y01070566D01*
X00530724Y01070556D01*
X00530707Y01070542D01*
X00530680Y01070525D01*
X00530652Y01070504D01*
X00530614Y01070487D01*
X00530576Y01070466D01*
X00530531Y01070442D01*
X00530483Y01070425D01*
X00530431Y01070404D01*
X00530376Y01070387D01*
X00530313Y01070373D01*
X00530251Y01070363D01*
X00530186Y01070356D01*
X00530116Y01070352D01*
X00530096D01*
X00530071Y01070356D01*
X00530037D01*
X00529999Y01070363D01*
X00529951Y01070370D01*
X00529899Y01070377D01*
X00529843Y01070390D01*
X00529785Y01070408D01*
X00529723Y01070428D01*
X00529660Y01070452D01*
X00529595Y01070484D01*
X00529533Y01070518D01*
X00529470Y01070560D01*
X00529412Y01070604D01*
X00529356Y01070660D01*
X00529353Y01070663D01*
X00529343Y01070674D01*
X00529329Y01070691D01*
X00529311Y01070719D01*
X00529291Y01070750D01*
X00529267Y01070788D01*
X00529239Y01070836D01*
X00529215Y01070888D01*
X00529187Y01070947D01*
X00529160Y01071012D01*
X00529135Y01071085D01*
X00529115Y01071164D01*
X00529097Y01071251D01*
X00529084Y01071344D01*
X00529073Y01071444D01*
X00529070Y01071548D01*
Y01071551D01*
Y01071565D01*
Y01071586D01*
X00529073Y01071610D01*
Y01071644D01*
X00529077Y01071682D01*
X00529080Y01071724D01*
X00529084Y01071772D01*
X00529101Y01071872D01*
X00529122Y01071983D01*
X00529149Y01072097D01*
X00529191Y01072204D01*
Y01072207D01*
X00529198Y01072218D01*
X00529204Y01072232D01*
X00529215Y01072249D01*
X00529229Y01072273D01*
X00529243Y01072301D01*
X00529284Y01072363D01*
X00529336Y01072429D01*
X00529401Y01072501D01*
X00529477Y01072567D01*
X00529567Y01072625D01*
X00529571D01*
X00529577Y01072632D01*
X00529591Y01072639D01*
X00529612Y01072646D01*
X00529636Y01072660D01*
X00529664Y01072670D01*
X00529695Y01072684D01*
X00529729Y01072698D01*
X00529771Y01072708D01*
X00529812Y01072722D01*
X00529906Y01072746D01*
X00530009Y01072760D01*
X00530116Y01072767D01*
X00530154D01*
X00530179Y01072764D01*
D02*
G37*
G36*
X00592838D02*
X00592869Y01072760D01*
X00592907Y01072757D01*
X00592948Y01072750D01*
X00592993Y01072743D01*
X00593090Y01072719D01*
X00593193Y01072684D01*
X00593245Y01072663D01*
X00593297Y01072639D01*
X00593345Y01072608D01*
X00593390Y01072573D01*
X00593394Y01072570D01*
X00593401Y01072563D01*
X00593414Y01072553D01*
X00593428Y01072539D01*
X00593449Y01072518D01*
X00593470Y01072494D01*
X00593494Y01072467D01*
X00593518Y01072435D01*
X00593546Y01072397D01*
X00593570Y01072359D01*
X00593598Y01072315D01*
X00593622Y01072266D01*
X00593643Y01072214D01*
X00593663Y01072159D01*
X00593684Y01072097D01*
X00593698Y01072035D01*
X00593318Y01071976D01*
Y01071979D01*
X00593314Y01071986D01*
X00593311Y01071997D01*
X00593307Y01072014D01*
X00593294Y01072055D01*
X00593273Y01072107D01*
X00593245Y01072162D01*
X00593214Y01072221D01*
X00593173Y01072277D01*
X00593124Y01072325D01*
X00593117Y01072332D01*
X00593100Y01072346D01*
X00593069Y01072363D01*
X00593031Y01072387D01*
X00592983Y01072408D01*
X00592927Y01072429D01*
X00592862Y01072442D01*
X00592793Y01072446D01*
X00592765D01*
X00592744Y01072442D01*
X00592717Y01072439D01*
X00592689Y01072435D01*
X00592620Y01072418D01*
X00592544Y01072394D01*
X00592506Y01072377D01*
X00592465Y01072356D01*
X00592427Y01072332D01*
X00592385Y01072301D01*
X00592347Y01072270D01*
X00592313Y01072232D01*
X00592309Y01072228D01*
X00592306Y01072221D01*
X00592295Y01072211D01*
X00592285Y01072190D01*
X00592271Y01072169D01*
X00592254Y01072142D01*
X00592237Y01072107D01*
X00592223Y01072069D01*
X00592206Y01072024D01*
X00592188Y01071976D01*
X00592171Y01071921D01*
X00592157Y01071859D01*
X00592147Y01071793D01*
X00592136Y01071724D01*
X00592133Y01071644D01*
X00592130Y01071561D01*
Y01071558D01*
Y01071541D01*
Y01071516D01*
X00592133Y01071485D01*
X00592136Y01071447D01*
X00592140Y01071403D01*
X00592143Y01071354D01*
X00592150Y01071302D01*
X00592171Y01071192D01*
X00592206Y01071078D01*
X00592223Y01071026D01*
X00592247Y01070974D01*
X00592275Y01070926D01*
X00592306Y01070884D01*
X00592309Y01070881D01*
X00592313Y01070874D01*
X00592323Y01070864D01*
X00592337Y01070853D01*
X00592357Y01070836D01*
X00592378Y01070819D01*
X00592402Y01070798D01*
X00592430Y01070781D01*
X00592499Y01070739D01*
X00592579Y01070708D01*
X00592623Y01070694D01*
X00592668Y01070684D01*
X00592720Y01070677D01*
X00592772Y01070674D01*
X00592793D01*
X00592810Y01070677D01*
X00592831D01*
X00592851Y01070680D01*
X00592907Y01070691D01*
X00592965Y01070708D01*
X00593031Y01070732D01*
X00593093Y01070767D01*
X00593155Y01070812D01*
X00593159Y01070815D01*
X00593162Y01070819D01*
X00593180Y01070839D01*
X00593207Y01070874D01*
X00593221Y01070895D01*
X00593238Y01070919D01*
X00593256Y01070950D01*
X00593273Y01070981D01*
X00593287Y01071016D01*
X00593304Y01071057D01*
X00593318Y01071098D01*
X00593332Y01071147D01*
X00593342Y01071195D01*
X00593352Y01071251D01*
X00593736Y01071199D01*
Y01071195D01*
X00593732Y01071181D01*
X00593729Y01071161D01*
X00593722Y01071133D01*
X00593712Y01071098D01*
X00593701Y01071060D01*
X00593687Y01071019D01*
X00593670Y01070971D01*
X00593629Y01070874D01*
X00593601Y01070822D01*
X00593570Y01070770D01*
X00593539Y01070719D01*
X00593501Y01070667D01*
X00593456Y01070622D01*
X00593411Y01070577D01*
X00593408Y01070573D01*
X00593401Y01070566D01*
X00593383Y01070556D01*
X00593366Y01070542D01*
X00593339Y01070525D01*
X00593311Y01070504D01*
X00593273Y01070487D01*
X00593235Y01070466D01*
X00593190Y01070442D01*
X00593142Y01070425D01*
X00593090Y01070404D01*
X00593035Y01070387D01*
X00592972Y01070373D01*
X00592910Y01070363D01*
X00592845Y01070356D01*
X00592775Y01070352D01*
X00592755D01*
X00592730Y01070356D01*
X00592696D01*
X00592658Y01070363D01*
X00592610Y01070370D01*
X00592558Y01070377D01*
X00592503Y01070390D01*
X00592444Y01070408D01*
X00592382Y01070428D01*
X00592319Y01070452D01*
X00592254Y01070484D01*
X00592192Y01070518D01*
X00592130Y01070560D01*
X00592071Y01070604D01*
X00592015Y01070660D01*
X00592012Y01070663D01*
X00592002Y01070674D01*
X00591988Y01070691D01*
X00591971Y01070719D01*
X00591950Y01070750D01*
X00591926Y01070788D01*
X00591898Y01070836D01*
X00591874Y01070888D01*
X00591846Y01070947D01*
X00591819Y01071012D01*
X00591794Y01071085D01*
X00591774Y01071164D01*
X00591756Y01071251D01*
X00591743Y01071344D01*
X00591732Y01071444D01*
X00591729Y01071548D01*
Y01071551D01*
Y01071565D01*
Y01071586D01*
X00591732Y01071610D01*
Y01071644D01*
X00591736Y01071682D01*
X00591739Y01071724D01*
X00591743Y01071772D01*
X00591760Y01071872D01*
X00591781Y01071983D01*
X00591808Y01072097D01*
X00591850Y01072204D01*
Y01072207D01*
X00591857Y01072218D01*
X00591864Y01072232D01*
X00591874Y01072249D01*
X00591888Y01072273D01*
X00591902Y01072301D01*
X00591943Y01072363D01*
X00591995Y01072429D01*
X00592060Y01072501D01*
X00592136Y01072567D01*
X00592226Y01072625D01*
X00592230D01*
X00592237Y01072632D01*
X00592250Y01072639D01*
X00592271Y01072646D01*
X00592295Y01072660D01*
X00592323Y01072670D01*
X00592354Y01072684D01*
X00592389Y01072698D01*
X00592430Y01072708D01*
X00592472Y01072722D01*
X00592565Y01072746D01*
X00592668Y01072760D01*
X00592775Y01072767D01*
X00592813D01*
X00592838Y01072764D01*
D02*
G37*
G36*
X00620120Y01071361D02*
X00618914D01*
Y01071755D01*
X00620120D01*
Y01071361D01*
D02*
G37*
G36*
X00569396D02*
X00568190D01*
Y01071755D01*
X00569396D01*
Y01071361D01*
D02*
G37*
G36*
X00605201D02*
X00603995D01*
Y01071755D01*
X00605201D01*
Y01071361D01*
D02*
G37*
G36*
X00581637Y01072764D02*
X00581668Y01072760D01*
X00581699Y01072757D01*
X00581737Y01072750D01*
X00581778Y01072743D01*
X00581861Y01072719D01*
X00581951Y01072684D01*
X00581992Y01072663D01*
X00582034Y01072639D01*
X00582075Y01072608D01*
X00582110Y01072573D01*
X00582113Y01072570D01*
X00582117Y01072563D01*
X00582127Y01072553D01*
X00582137Y01072539D01*
X00582155Y01072518D01*
X00582169Y01072494D01*
X00582186Y01072463D01*
X00582203Y01072429D01*
X00582220Y01072391D01*
X00582238Y01072349D01*
X00582255Y01072301D01*
X00582269Y01072249D01*
X00582279Y01072190D01*
X00582290Y01072128D01*
X00582293Y01072062D01*
X00582296Y01071990D01*
Y01070404D01*
X00581906D01*
Y01071859D01*
Y01071862D01*
Y01071869D01*
Y01071883D01*
Y01071897D01*
X00581903Y01071938D01*
Y01071990D01*
X00581896Y01072045D01*
X00581889Y01072100D01*
X00581882Y01072152D01*
X00581868Y01072197D01*
Y01072200D01*
X00581861Y01072214D01*
X00581851Y01072232D01*
X00581837Y01072256D01*
X00581816Y01072283D01*
X00581796Y01072311D01*
X00581764Y01072339D01*
X00581730Y01072363D01*
X00581726Y01072366D01*
X00581713Y01072373D01*
X00581692Y01072384D01*
X00581664Y01072397D01*
X00581630Y01072408D01*
X00581588Y01072418D01*
X00581543Y01072425D01*
X00581495Y01072429D01*
X00581471D01*
X00581454Y01072425D01*
X00581433D01*
X00581409Y01072422D01*
X00581353Y01072408D01*
X00581288Y01072391D01*
X00581219Y01072359D01*
X00581153Y01072321D01*
X00581119Y01072294D01*
X00581087Y01072266D01*
Y01072263D01*
X00581081Y01072259D01*
X00581074Y01072249D01*
X00581063Y01072235D01*
X00581049Y01072218D01*
X00581036Y01072197D01*
X00581022Y01072169D01*
X00581008Y01072142D01*
X00580991Y01072107D01*
X00580977Y01072069D01*
X00580963Y01072024D01*
X00580949Y01071979D01*
X00580939Y01071928D01*
X00580932Y01071869D01*
X00580928Y01071810D01*
X00580925Y01071745D01*
Y01070404D01*
X00580535D01*
Y01071903D01*
Y01071907D01*
Y01071914D01*
Y01071928D01*
Y01071948D01*
X00580531Y01071969D01*
Y01071993D01*
X00580524Y01072052D01*
X00580510Y01072114D01*
X00580493Y01072180D01*
X00580469Y01072242D01*
X00580438Y01072297D01*
X00580434Y01072304D01*
X00580421Y01072318D01*
X00580396Y01072339D01*
X00580365Y01072363D01*
X00580321Y01072387D01*
X00580269Y01072408D01*
X00580203Y01072422D01*
X00580127Y01072429D01*
X00580099D01*
X00580068Y01072425D01*
X00580027Y01072418D01*
X00579978Y01072408D01*
X00579927Y01072391D01*
X00579875Y01072370D01*
X00579820Y01072339D01*
X00579813Y01072335D01*
X00579795Y01072321D01*
X00579771Y01072304D01*
X00579744Y01072273D01*
X00579709Y01072238D01*
X00579674Y01072194D01*
X00579643Y01072142D01*
X00579616Y01072083D01*
Y01072080D01*
X00579612Y01072076D01*
X00579609Y01072066D01*
X00579605Y01072052D01*
X00579602Y01072035D01*
X00579595Y01072014D01*
X00579592Y01071990D01*
X00579585Y01071962D01*
X00579578Y01071928D01*
X00579574Y01071893D01*
X00579567Y01071855D01*
X00579564Y01071810D01*
X00579561Y01071765D01*
X00579557Y01071713D01*
X00579554Y01071662D01*
Y01071603D01*
Y01070404D01*
X00579163D01*
Y01072715D01*
X00579512D01*
Y01072394D01*
X00579519Y01072397D01*
X00579533Y01072418D01*
X00579557Y01072449D01*
X00579592Y01072487D01*
X00579633Y01072532D01*
X00579681Y01072577D01*
X00579737Y01072622D01*
X00579802Y01072663D01*
X00579806D01*
X00579809Y01072667D01*
X00579820Y01072674D01*
X00579833Y01072681D01*
X00579851Y01072688D01*
X00579871Y01072698D01*
X00579920Y01072715D01*
X00579982Y01072736D01*
X00580051Y01072750D01*
X00580131Y01072764D01*
X00580213Y01072767D01*
X00580255D01*
X00580279Y01072764D01*
X00580303Y01072760D01*
X00580362Y01072753D01*
X00580428Y01072739D01*
X00580497Y01072722D01*
X00580566Y01072694D01*
X00580631Y01072660D01*
X00580635D01*
X00580638Y01072656D01*
X00580659Y01072639D01*
X00580687Y01072615D01*
X00580725Y01072584D01*
X00580763Y01072539D01*
X00580801Y01072491D01*
X00580835Y01072432D01*
X00580866Y01072363D01*
X00580870Y01072366D01*
X00580880Y01072380D01*
X00580894Y01072401D01*
X00580918Y01072425D01*
X00580942Y01072456D01*
X00580977Y01072491D01*
X00581015Y01072529D01*
X00581060Y01072567D01*
X00581108Y01072601D01*
X00581163Y01072639D01*
X00581222Y01072674D01*
X00581284Y01072705D01*
X00581353Y01072729D01*
X00581426Y01072750D01*
X00581502Y01072764D01*
X00581581Y01072767D01*
X00581616D01*
X00581637Y01072764D01*
D02*
G37*
G36*
X00557772Y01070404D02*
X00557409D01*
Y01070694D01*
X00557406Y01070691D01*
X00557399Y01070680D01*
X00557385Y01070663D01*
X00557368Y01070642D01*
X00557343Y01070615D01*
X00557316Y01070587D01*
X00557285Y01070556D01*
X00557247Y01070525D01*
X00557202Y01070490D01*
X00557153Y01070460D01*
X00557102Y01070432D01*
X00557043Y01070408D01*
X00556977Y01070384D01*
X00556912Y01070366D01*
X00556839Y01070356D01*
X00556760Y01070352D01*
X00556732D01*
X00556711Y01070356D01*
X00556687D01*
X00556659Y01070359D01*
X00556628Y01070366D01*
X00556594Y01070373D01*
X00556514Y01070390D01*
X00556428Y01070418D01*
X00556342Y01070456D01*
X00556297Y01070477D01*
X00556252Y01070504D01*
X00556248Y01070508D01*
X00556241Y01070511D01*
X00556231Y01070522D01*
X00556214Y01070532D01*
X00556193Y01070549D01*
X00556172Y01070566D01*
X00556120Y01070615D01*
X00556062Y01070674D01*
X00556003Y01070746D01*
X00555944Y01070833D01*
X00555892Y01070929D01*
Y01070933D01*
X00555886Y01070943D01*
X00555882Y01070957D01*
X00555872Y01070978D01*
X00555865Y01071002D01*
X00555854Y01071033D01*
X00555841Y01071071D01*
X00555830Y01071109D01*
X00555820Y01071154D01*
X00555806Y01071202D01*
X00555796Y01071254D01*
X00555789Y01071309D01*
X00555775Y01071427D01*
X00555768Y01071554D01*
Y01071558D01*
Y01071572D01*
Y01071589D01*
X00555772Y01071613D01*
Y01071644D01*
X00555775Y01071679D01*
X00555779Y01071720D01*
X00555782Y01071765D01*
X00555796Y01071862D01*
X00555816Y01071966D01*
X00555844Y01072076D01*
X00555882Y01072183D01*
Y01072187D01*
X00555889Y01072197D01*
X00555896Y01072211D01*
X00555903Y01072232D01*
X00555917Y01072252D01*
X00555930Y01072280D01*
X00555969Y01072342D01*
X00556017Y01072415D01*
X00556076Y01072484D01*
X00556145Y01072553D01*
X00556228Y01072615D01*
X00556231Y01072618D01*
X00556238Y01072622D01*
X00556252Y01072629D01*
X00556269Y01072639D01*
X00556290Y01072650D01*
X00556317Y01072663D01*
X00556345Y01072677D01*
X00556380Y01072691D01*
X00556456Y01072719D01*
X00556542Y01072743D01*
X00556639Y01072760D01*
X00556690Y01072767D01*
X00556777D01*
X00556818Y01072764D01*
X00556867Y01072757D01*
X00556925Y01072746D01*
X00556988Y01072729D01*
X00557053Y01072708D01*
X00557115Y01072677D01*
X00557119D01*
X00557122Y01072674D01*
X00557143Y01072660D01*
X00557171Y01072643D01*
X00557209Y01072615D01*
X00557250Y01072580D01*
X00557295Y01072542D01*
X00557340Y01072498D01*
X00557381Y01072446D01*
Y01073593D01*
X00557772D01*
Y01070404D01*
D02*
G37*
G36*
X00602528D02*
X00602165D01*
Y01070694D01*
X00602162Y01070691D01*
X00602155Y01070680D01*
X00602141Y01070663D01*
X00602124Y01070642D01*
X00602100Y01070615D01*
X00602072Y01070587D01*
X00602041Y01070556D01*
X00602003Y01070525D01*
X00601958Y01070490D01*
X00601910Y01070460D01*
X00601858Y01070432D01*
X00601799Y01070408D01*
X00601734Y01070384D01*
X00601668Y01070366D01*
X00601595Y01070356D01*
X00601516Y01070352D01*
X00601488D01*
X00601468Y01070356D01*
X00601443D01*
X00601416Y01070359D01*
X00601385Y01070366D01*
X00601350Y01070373D01*
X00601271Y01070390D01*
X00601184Y01070418D01*
X00601098Y01070456D01*
X00601053Y01070477D01*
X00601008Y01070504D01*
X00601005Y01070508D01*
X00600998Y01070511D01*
X00600988Y01070522D01*
X00600970Y01070532D01*
X00600950Y01070549D01*
X00600929Y01070566D01*
X00600877Y01070615D01*
X00600818Y01070674D01*
X00600760Y01070746D01*
X00600701Y01070833D01*
X00600649Y01070929D01*
Y01070933D01*
X00600642Y01070943D01*
X00600639Y01070957D01*
X00600628Y01070978D01*
X00600621Y01071002D01*
X00600611Y01071033D01*
X00600597Y01071071D01*
X00600587Y01071109D01*
X00600576Y01071154D01*
X00600563Y01071202D01*
X00600552Y01071254D01*
X00600545Y01071309D01*
X00600532Y01071427D01*
X00600525Y01071554D01*
Y01071558D01*
Y01071572D01*
Y01071589D01*
X00600528Y01071613D01*
Y01071644D01*
X00600532Y01071679D01*
X00600535Y01071720D01*
X00600538Y01071765D01*
X00600552Y01071862D01*
X00600573Y01071966D01*
X00600601Y01072076D01*
X00600639Y01072183D01*
Y01072187D01*
X00600645Y01072197D01*
X00600652Y01072211D01*
X00600659Y01072232D01*
X00600673Y01072252D01*
X00600687Y01072280D01*
X00600725Y01072342D01*
X00600773Y01072415D01*
X00600832Y01072484D01*
X00600901Y01072553D01*
X00600984Y01072615D01*
X00600988Y01072618D01*
X00600994Y01072622D01*
X00601008Y01072629D01*
X00601026Y01072639D01*
X00601046Y01072650D01*
X00601074Y01072663D01*
X00601101Y01072677D01*
X00601136Y01072691D01*
X00601212Y01072719D01*
X00601298Y01072743D01*
X00601395Y01072760D01*
X00601447Y01072767D01*
X00601533D01*
X00601575Y01072764D01*
X00601623Y01072757D01*
X00601682Y01072746D01*
X00601744Y01072729D01*
X00601810Y01072708D01*
X00601872Y01072677D01*
X00601875D01*
X00601879Y01072674D01*
X00601899Y01072660D01*
X00601927Y01072643D01*
X00601965Y01072615D01*
X00602006Y01072580D01*
X00602052Y01072542D01*
X00602096Y01072498D01*
X00602138Y01072446D01*
Y01073593D01*
X00602528D01*
Y01070404D01*
D02*
G37*
G36*
X00599064Y01072764D02*
X00599081D01*
X00599102Y01072760D01*
X00599154Y01072750D01*
X00599216Y01072736D01*
X00599282Y01072712D01*
X00599358Y01072681D01*
X00599434Y01072639D01*
X00599296Y01072277D01*
X00599289Y01072280D01*
X00599272Y01072290D01*
X00599244Y01072304D01*
X00599206Y01072321D01*
X00599164Y01072335D01*
X00599116Y01072349D01*
X00599064Y01072359D01*
X00599009Y01072363D01*
X00598988D01*
X00598964Y01072359D01*
X00598933Y01072353D01*
X00598895Y01072342D01*
X00598857Y01072328D01*
X00598819Y01072311D01*
X00598778Y01072283D01*
X00598774Y01072280D01*
X00598760Y01072270D01*
X00598743Y01072252D01*
X00598722Y01072228D01*
X00598698Y01072197D01*
X00598674Y01072162D01*
X00598653Y01072118D01*
X00598632Y01072069D01*
Y01072066D01*
X00598629Y01072059D01*
X00598625Y01072048D01*
X00598622Y01072035D01*
X00598619Y01072014D01*
X00598612Y01071990D01*
X00598601Y01071935D01*
X00598591Y01071865D01*
X00598581Y01071789D01*
X00598574Y01071703D01*
X00598570Y01071613D01*
Y01070404D01*
X00598180D01*
Y01072715D01*
X00598532D01*
Y01072366D01*
X00598539Y01072373D01*
X00598546Y01072387D01*
X00598556Y01072401D01*
X00598581Y01072446D01*
X00598615Y01072494D01*
X00598653Y01072549D01*
X00598695Y01072605D01*
X00598736Y01072650D01*
X00598760Y01072670D01*
X00598781Y01072688D01*
X00598788Y01072691D01*
X00598802Y01072701D01*
X00598826Y01072712D01*
X00598853Y01072729D01*
X00598891Y01072743D01*
X00598933Y01072753D01*
X00598981Y01072764D01*
X00599030Y01072767D01*
X00599050D01*
X00599064Y01072764D01*
D02*
G37*
G36*
X00536405D02*
X00536423D01*
X00536443Y01072760D01*
X00536495Y01072750D01*
X00536557Y01072736D01*
X00536623Y01072712D01*
X00536699Y01072681D01*
X00536775Y01072639D01*
X00536637Y01072277D01*
X00536630Y01072280D01*
X00536613Y01072290D01*
X00536585Y01072304D01*
X00536547Y01072321D01*
X00536505Y01072335D01*
X00536457Y01072349D01*
X00536405Y01072359D01*
X00536350Y01072363D01*
X00536329D01*
X00536305Y01072359D01*
X00536274Y01072353D01*
X00536236Y01072342D01*
X00536198Y01072328D01*
X00536160Y01072311D01*
X00536119Y01072283D01*
X00536115Y01072280D01*
X00536101Y01072270D01*
X00536084Y01072252D01*
X00536063Y01072228D01*
X00536039Y01072197D01*
X00536015Y01072162D01*
X00535994Y01072118D01*
X00535973Y01072069D01*
Y01072066D01*
X00535970Y01072059D01*
X00535966Y01072048D01*
X00535963Y01072035D01*
X00535960Y01072014D01*
X00535953Y01071990D01*
X00535942Y01071935D01*
X00535932Y01071865D01*
X00535922Y01071789D01*
X00535915Y01071703D01*
X00535911Y01071613D01*
Y01070404D01*
X00535521D01*
Y01072715D01*
X00535873D01*
Y01072366D01*
X00535880Y01072373D01*
X00535887Y01072387D01*
X00535897Y01072401D01*
X00535922Y01072446D01*
X00535956Y01072494D01*
X00535994Y01072549D01*
X00536036Y01072605D01*
X00536077Y01072650D01*
X00536101Y01072670D01*
X00536122Y01072688D01*
X00536129Y01072691D01*
X00536143Y01072701D01*
X00536167Y01072712D01*
X00536194Y01072729D01*
X00536232Y01072743D01*
X00536274Y01072753D01*
X00536322Y01072764D01*
X00536371Y01072767D01*
X00536391D01*
X00536405Y01072764D01*
D02*
G37*
G36*
X00578178D02*
X00578195D01*
X00578216Y01072760D01*
X00578268Y01072750D01*
X00578330Y01072736D01*
X00578396Y01072712D01*
X00578471Y01072681D01*
X00578548Y01072639D01*
X00578409Y01072277D01*
X00578402Y01072280D01*
X00578385Y01072290D01*
X00578358Y01072304D01*
X00578320Y01072321D01*
X00578278Y01072335D01*
X00578230Y01072349D01*
X00578178Y01072359D01*
X00578123Y01072363D01*
X00578102D01*
X00578078Y01072359D01*
X00578047Y01072353D01*
X00578009Y01072342D01*
X00577971Y01072328D01*
X00577933Y01072311D01*
X00577891Y01072283D01*
X00577888Y01072280D01*
X00577874Y01072270D01*
X00577857Y01072252D01*
X00577836Y01072228D01*
X00577812Y01072197D01*
X00577788Y01072162D01*
X00577767Y01072118D01*
X00577746Y01072069D01*
Y01072066D01*
X00577743Y01072059D01*
X00577739Y01072048D01*
X00577736Y01072035D01*
X00577732Y01072014D01*
X00577725Y01071990D01*
X00577715Y01071935D01*
X00577705Y01071865D01*
X00577694Y01071789D01*
X00577687Y01071703D01*
X00577684Y01071613D01*
Y01070404D01*
X00577294D01*
Y01072715D01*
X00577646D01*
Y01072366D01*
X00577653Y01072373D01*
X00577660Y01072387D01*
X00577670Y01072401D01*
X00577694Y01072446D01*
X00577729Y01072494D01*
X00577767Y01072549D01*
X00577808Y01072605D01*
X00577850Y01072650D01*
X00577874Y01072670D01*
X00577895Y01072688D01*
X00577901Y01072691D01*
X00577915Y01072701D01*
X00577939Y01072712D01*
X00577967Y01072729D01*
X00578005Y01072743D01*
X00578047Y01072753D01*
X00578095Y01072764D01*
X00578143Y01072767D01*
X00578164D01*
X00578178Y01072764D01*
D02*
G37*
G36*
X00564945Y01074584D02*
X00564345D01*
Y01084584D01*
X00564945D01*
Y01074584D01*
D02*
G37*
G36*
X00610945D02*
X00610545D01*
Y01084584D01*
X00610945D01*
Y01074584D01*
D02*
G37*
G36*
X00611945D02*
X00611345D01*
Y01084584D01*
X00611945D01*
Y01074584D01*
D02*
G37*
G36*
X00610345D02*
X00609745D01*
Y01084584D01*
X00610345D01*
Y01074584D01*
D02*
G37*
G36*
X00608545D02*
X00608345D01*
Y01084584D01*
X00608545D01*
Y01074584D01*
D02*
G37*
G36*
X00609345D02*
X00608945D01*
Y01084584D01*
X00609345D01*
Y01074584D01*
D02*
G37*
G36*
X00612545D02*
X00612345D01*
Y01084584D01*
X00612545D01*
Y01074584D01*
D02*
G37*
G36*
X00615345D02*
X00614945D01*
Y01084584D01*
X00615345D01*
Y01074584D01*
D02*
G37*
G36*
X00616145D02*
X00615945D01*
Y01084584D01*
X00616145D01*
Y01074584D01*
D02*
G37*
G36*
X00614545D02*
X00613945D01*
Y01084584D01*
X00614545D01*
Y01074584D01*
D02*
G37*
G36*
X00612945D02*
X00612745D01*
Y01084584D01*
X00612945D01*
Y01074584D01*
D02*
G37*
G36*
X00613745D02*
X00613345D01*
Y01084584D01*
X00613745D01*
Y01074584D01*
D02*
G37*
G36*
X00607945D02*
X00607545D01*
Y01084584D01*
X00607945D01*
Y01074584D01*
D02*
G37*
G36*
X00601945D02*
X00601745D01*
Y01084584D01*
X00601945D01*
Y01074584D01*
D02*
G37*
G36*
X00602745D02*
X00602345D01*
Y01084584D01*
X00602745D01*
Y01074584D01*
D02*
G37*
G36*
X00601545D02*
X00600745D01*
Y01084584D01*
X00601545D01*
Y01074584D01*
D02*
G37*
G36*
X00600145D02*
X00599545D01*
Y01084584D01*
X00600145D01*
Y01074584D01*
D02*
G37*
G36*
X00600545D02*
X00600345D01*
Y01084584D01*
X00600545D01*
Y01074584D01*
D02*
G37*
G36*
X00603545D02*
X00602945D01*
Y01084584D01*
X00603545D01*
Y01074584D01*
D02*
G37*
G36*
X00606345D02*
X00606145D01*
Y01084584D01*
X00606345D01*
Y01074584D01*
D02*
G37*
G36*
X00607345D02*
X00606745D01*
Y01084584D01*
X00607345D01*
Y01074584D01*
D02*
G37*
G36*
X00605545D02*
X00605145D01*
Y01084584D01*
X00605545D01*
Y01074584D01*
D02*
G37*
G36*
X00604545D02*
X00603945D01*
Y01084584D01*
X00604545D01*
Y01074584D01*
D02*
G37*
G36*
X00604945D02*
X00604745D01*
Y01084584D01*
X00604945D01*
Y01074584D01*
D02*
G37*
G36*
X00627944D02*
X00627744D01*
Y01084584D01*
X00627944D01*
Y01074584D01*
D02*
G37*
G36*
X00628344D02*
X00628144D01*
Y01084584D01*
X00628344D01*
Y01074584D01*
D02*
G37*
G36*
X00627345D02*
X00626744D01*
Y01084584D01*
X00627345D01*
Y01074584D01*
D02*
G37*
G36*
X00625745D02*
X00624944D01*
Y01084584D01*
X00625745D01*
Y01074584D01*
D02*
G37*
G36*
X00626344D02*
X00625945D01*
Y01084584D01*
X00626344D01*
Y01074584D01*
D02*
G37*
G36*
X00628945D02*
X00628745D01*
Y01084584D01*
X00628945D01*
Y01074584D01*
D02*
G37*
G36*
X00632345D02*
X00632145D01*
Y01084584D01*
X00632345D01*
Y01074584D01*
D02*
G37*
G36*
X00632944D02*
X00632545D01*
Y01084584D01*
X00632944D01*
Y01074584D01*
D02*
G37*
G36*
X00631945D02*
X00631344D01*
Y01084584D01*
X00631945D01*
Y01074584D01*
D02*
G37*
G36*
X00629944D02*
X00629145D01*
Y01084584D01*
X00629944D01*
Y01074584D01*
D02*
G37*
G36*
X00630745D02*
X00630345D01*
Y01084584D01*
X00630745D01*
Y01074584D01*
D02*
G37*
G36*
X00624744D02*
X00624544D01*
Y01084584D01*
X00624744D01*
Y01074584D01*
D02*
G37*
G36*
X00619145D02*
X00618545D01*
Y01084584D01*
X00619145D01*
Y01074584D01*
D02*
G37*
G36*
X00619545D02*
X00619345D01*
Y01084584D01*
X00619545D01*
Y01074584D01*
D02*
G37*
G36*
X00618345D02*
X00617545D01*
Y01084584D01*
X00618345D01*
Y01074584D01*
D02*
G37*
G36*
X00616945D02*
X00616345D01*
Y01084584D01*
X00616945D01*
Y01074584D01*
D02*
G37*
G36*
X00617345D02*
X00617145D01*
Y01084584D01*
X00617345D01*
Y01074584D01*
D02*
G37*
G36*
X00620145D02*
X00619745D01*
Y01084584D01*
X00620145D01*
Y01074584D01*
D02*
G37*
G36*
X00623344D02*
X00623144D01*
Y01084584D01*
X00623344D01*
Y01074584D01*
D02*
G37*
G36*
X00624344D02*
X00623745D01*
Y01084584D01*
X00624344D01*
Y01074584D01*
D02*
G37*
G36*
X00622745D02*
X00622545D01*
Y01084584D01*
X00622745D01*
Y01074584D01*
D02*
G37*
G36*
X00620745D02*
X00620545D01*
Y01084584D01*
X00620745D01*
Y01074584D01*
D02*
G37*
G36*
X00622345D02*
X00621545D01*
Y01084584D01*
X00622345D01*
Y01074584D01*
D02*
G37*
G36*
X00599345D02*
X00598945D01*
Y01084584D01*
X00599345D01*
Y01074584D01*
D02*
G37*
G36*
X00577345D02*
X00576545D01*
Y01084584D01*
X00577345D01*
Y01074584D01*
D02*
G37*
G36*
X00578345D02*
X00577545D01*
Y01084584D01*
X00578345D01*
Y01074584D01*
D02*
G37*
G36*
X00579145D02*
X00578545D01*
Y01084584D01*
X00579145D01*
Y01074584D01*
D02*
G37*
G36*
X00575145D02*
X00574945D01*
Y01084584D01*
X00575145D01*
Y01074584D01*
D02*
G37*
G36*
X00575545D02*
X00575345D01*
Y01084584D01*
X00575545D01*
Y01074584D01*
D02*
G37*
G36*
X00576145D02*
X00575945D01*
Y01084584D01*
X00576145D01*
Y01074584D01*
D02*
G37*
G36*
X00581145D02*
X00580745D01*
Y01084584D01*
X00581145D01*
Y01074584D01*
D02*
G37*
G36*
X00582345D02*
X00581945D01*
Y01084584D01*
X00582345D01*
Y01074584D01*
D02*
G37*
G36*
X00582945D02*
X00582745D01*
Y01084584D01*
X00582945D01*
Y01074584D01*
D02*
G37*
G36*
X00579545D02*
X00579345D01*
Y01084584D01*
X00579545D01*
Y01074584D01*
D02*
G37*
G36*
X00579945D02*
X00579745D01*
Y01084584D01*
X00579945D01*
Y01074584D01*
D02*
G37*
G36*
X00580545D02*
X00580345D01*
Y01084584D01*
X00580545D01*
Y01074584D01*
D02*
G37*
G36*
X00574745D02*
X00573945D01*
Y01084584D01*
X00574745D01*
Y01074584D01*
D02*
G37*
G36*
X00567545D02*
X00567145D01*
Y01084584D01*
X00567545D01*
Y01074584D01*
D02*
G37*
G36*
X00568345D02*
X00567745D01*
Y01084584D01*
X00568345D01*
Y01074584D01*
D02*
G37*
G36*
X00568945D02*
X00568745D01*
Y01084584D01*
X00568945D01*
Y01074584D01*
D02*
G37*
G36*
X00565345D02*
X00565145D01*
Y01084584D01*
X00565345D01*
Y01074584D01*
D02*
G37*
G36*
X00566345D02*
X00565545D01*
Y01084584D01*
X00566345D01*
Y01074584D01*
D02*
G37*
G36*
X00566745D02*
X00566545D01*
Y01084584D01*
X00566745D01*
Y01074584D01*
D02*
G37*
G36*
X00572145D02*
X00571345D01*
Y01084584D01*
X00572145D01*
Y01074584D01*
D02*
G37*
G36*
X00572945D02*
X00572345D01*
Y01084584D01*
X00572945D01*
Y01074584D01*
D02*
G37*
G36*
X00573345D02*
X00573145D01*
Y01084584D01*
X00573345D01*
Y01074584D01*
D02*
G37*
G36*
X00569745D02*
X00569145D01*
Y01084584D01*
X00569745D01*
Y01074584D01*
D02*
G37*
G36*
X00570745D02*
X00570345D01*
Y01084584D01*
X00570745D01*
Y01074584D01*
D02*
G37*
G36*
X00571145D02*
X00570945D01*
Y01084584D01*
X00571145D01*
Y01074584D01*
D02*
G37*
G36*
X00591945D02*
X00591745D01*
Y01084584D01*
X00591945D01*
Y01074584D01*
D02*
G37*
G36*
X00590945D02*
X00590745D01*
Y01084584D01*
X00590945D01*
Y01074584D01*
D02*
G37*
G36*
X00592545D02*
X00592145D01*
Y01084584D01*
X00592545D01*
Y01074584D01*
D02*
G37*
G36*
X00593745D02*
X00593545D01*
Y01084584D01*
X00593745D01*
Y01074584D01*
D02*
G37*
G36*
X00593145D02*
X00592945D01*
Y01084584D01*
X00593145D01*
Y01074584D01*
D02*
G37*
G36*
X00589745D02*
X00588945D01*
Y01084584D01*
X00589745D01*
Y01074584D01*
D02*
G37*
G36*
X00590545D02*
X00589945D01*
Y01084584D01*
X00590545D01*
Y01074584D01*
D02*
G37*
G36*
X00588745D02*
X00588545D01*
Y01084584D01*
X00588745D01*
Y01074584D01*
D02*
G37*
G36*
X00587345D02*
X00586945D01*
Y01084584D01*
X00587345D01*
Y01074584D01*
D02*
G37*
G36*
X00588145D02*
X00587745D01*
Y01084584D01*
X00588145D01*
Y01074584D01*
D02*
G37*
G36*
X00594345D02*
X00593945D01*
Y01084584D01*
X00594345D01*
Y01074584D01*
D02*
G37*
G36*
X00597145D02*
X00596345D01*
Y01084584D01*
X00597145D01*
Y01074584D01*
D02*
G37*
G36*
X00584745D02*
X00584145D01*
Y01084584D01*
X00584745D01*
Y01074584D01*
D02*
G37*
G36*
X00597545D02*
X00597345D01*
Y01084584D01*
X00597545D01*
Y01074584D01*
D02*
G37*
G36*
X00583345D02*
X00583145D01*
Y01084584D01*
X00583345D01*
Y01074584D01*
D02*
G37*
G36*
X00598545D02*
X00598345D01*
Y01084584D01*
X00598545D01*
Y01074584D01*
D02*
G37*
G36*
X00586745D02*
X00586345D01*
Y01084584D01*
X00586745D01*
Y01074584D01*
D02*
G37*
G36*
X00595345D02*
X00595145D01*
Y01084584D01*
X00595345D01*
Y01074584D01*
D02*
G37*
G36*
X00586145D02*
X00585345D01*
Y01084584D01*
X00586145D01*
Y01074584D01*
D02*
G37*
G36*
X00585145D02*
X00584945D01*
Y01084584D01*
X00585145D01*
Y01074584D01*
D02*
G37*
G36*
X00595945D02*
X00595745D01*
Y01084584D01*
X00595945D01*
Y01074584D01*
D02*
G37*
%LPC*%
G36*
X00622737Y01073240D02*
X00621663D01*
Y01072187D01*
X00622617D01*
X00622641Y01072190D01*
X00622668D01*
X00622734Y01072194D01*
X00622807Y01072200D01*
X00622882Y01072211D01*
X00622955Y01072225D01*
X00623021Y01072245D01*
X00623024D01*
X00623028Y01072249D01*
X00623048Y01072256D01*
X00623076Y01072270D01*
X00623114Y01072290D01*
X00623152Y01072318D01*
X00623193Y01072349D01*
X00623235Y01072391D01*
X00623269Y01072435D01*
X00623273Y01072442D01*
X00623283Y01072460D01*
X00623297Y01072484D01*
X00623314Y01072522D01*
X00623328Y01072563D01*
X00623342Y01072611D01*
X00623352Y01072667D01*
X00623356Y01072722D01*
Y01072726D01*
Y01072732D01*
Y01072743D01*
X00623352Y01072760D01*
Y01072777D01*
X00623349Y01072802D01*
X00623335Y01072853D01*
X00623314Y01072912D01*
X00623287Y01072974D01*
X00623245Y01073033D01*
X00623218Y01073064D01*
X00623190Y01073092D01*
X00623186Y01073095D01*
X00623183Y01073099D01*
X00623173Y01073105D01*
X00623159Y01073116D01*
X00623142Y01073126D01*
X00623117Y01073140D01*
X00623093Y01073154D01*
X00623062Y01073168D01*
X00623028Y01073182D01*
X00622990Y01073192D01*
X00622948Y01073206D01*
X00622903Y01073216D01*
X00622851Y01073226D01*
X00622796Y01073233D01*
X00622737Y01073240D01*
D02*
G37*
G36*
X00596181Y01071565D02*
X00596177D01*
X00596170Y01071561D01*
X00596157Y01071558D01*
X00596139Y01071551D01*
X00596119Y01071541D01*
X00596091Y01071534D01*
X00596056Y01071523D01*
X00596022Y01071513D01*
X00595977Y01071503D01*
X00595928Y01071489D01*
X00595877Y01071479D01*
X00595818Y01071465D01*
X00595756Y01071451D01*
X00595690Y01071441D01*
X00595618Y01071427D01*
X00595538Y01071416D01*
X00595528D01*
X00595514Y01071413D01*
X00595500Y01071409D01*
X00595455Y01071403D01*
X00595403Y01071392D01*
X00595348Y01071382D01*
X00595293Y01071368D01*
X00595241Y01071354D01*
X00595196Y01071337D01*
X00595193Y01071333D01*
X00595179Y01071330D01*
X00595162Y01071320D01*
X00595141Y01071306D01*
X00595113Y01071285D01*
X00595089Y01071264D01*
X00595065Y01071240D01*
X00595041Y01071209D01*
X00595037Y01071206D01*
X00595034Y01071195D01*
X00595023Y01071178D01*
X00595017Y01071154D01*
X00595006Y01071126D01*
X00594996Y01071095D01*
X00594992Y01071060D01*
X00594989Y01071022D01*
Y01071016D01*
X00594992Y01070998D01*
X00594996Y01070967D01*
X00595003Y01070933D01*
X00595017Y01070891D01*
X00595037Y01070846D01*
X00595068Y01070805D01*
X00595106Y01070763D01*
X00595113Y01070760D01*
X00595127Y01070746D01*
X00595155Y01070732D01*
X00595193Y01070712D01*
X00595241Y01070694D01*
X00595303Y01070677D01*
X00595372Y01070663D01*
X00595452Y01070660D01*
X00595490D01*
X00595510Y01070663D01*
X00595535Y01070667D01*
X00595587Y01070674D01*
X00595652Y01070684D01*
X00595718Y01070701D01*
X00595787Y01070725D01*
X00595856Y01070757D01*
X00595859D01*
X00595863Y01070760D01*
X00595884Y01070774D01*
X00595915Y01070798D01*
X00595956Y01070829D01*
X00595998Y01070867D01*
X00596039Y01070915D01*
X00596081Y01070967D01*
X00596115Y01071029D01*
X00596119Y01071036D01*
X00596125Y01071054D01*
X00596136Y01071085D01*
X00596146Y01071126D01*
X00596157Y01071181D01*
X00596167Y01071251D01*
X00596174Y01071330D01*
X00596177Y01071420D01*
X00596181Y01071565D01*
D02*
G37*
G36*
X00574752Y01072442D02*
X00574724D01*
X00574704Y01072439D01*
X00574679Y01072435D01*
X00574648Y01072432D01*
X00574583Y01072415D01*
X00574503Y01072387D01*
X00574465Y01072370D01*
X00574424Y01072349D01*
X00574382Y01072325D01*
X00574341Y01072294D01*
X00574303Y01072259D01*
X00574265Y01072221D01*
X00574261Y01072218D01*
X00574258Y01072211D01*
X00574248Y01072197D01*
X00574234Y01072180D01*
X00574220Y01072156D01*
X00574203Y01072128D01*
X00574185Y01072093D01*
X00574168Y01072055D01*
X00574151Y01072010D01*
X00574134Y01071962D01*
X00574116Y01071907D01*
X00574103Y01071848D01*
X00574089Y01071783D01*
X00574078Y01071713D01*
X00574075Y01071637D01*
X00574071Y01071558D01*
Y01071554D01*
Y01071537D01*
Y01071516D01*
X00574075Y01071485D01*
X00574078Y01071447D01*
X00574082Y01071406D01*
X00574089Y01071358D01*
X00574096Y01071309D01*
X00574120Y01071199D01*
X00574154Y01071088D01*
X00574175Y01071036D01*
X00574203Y01070984D01*
X00574230Y01070936D01*
X00574265Y01070891D01*
X00574268Y01070888D01*
X00574275Y01070881D01*
X00574286Y01070871D01*
X00574299Y01070857D01*
X00574320Y01070839D01*
X00574341Y01070822D01*
X00574369Y01070801D01*
X00574400Y01070784D01*
X00574469Y01070743D01*
X00574552Y01070708D01*
X00574596Y01070694D01*
X00574648Y01070684D01*
X00574697Y01070677D01*
X00574752Y01070674D01*
X00574780D01*
X00574800Y01070677D01*
X00574824Y01070680D01*
X00574856Y01070684D01*
X00574921Y01070701D01*
X00574997Y01070729D01*
X00575039Y01070746D01*
X00575080Y01070767D01*
X00575118Y01070791D01*
X00575160Y01070822D01*
X00575198Y01070857D01*
X00575236Y01070895D01*
X00575239Y01070898D01*
X00575243Y01070905D01*
X00575253Y01070919D01*
X00575267Y01070936D01*
X00575280Y01070960D01*
X00575298Y01070988D01*
X00575315Y01071022D01*
X00575336Y01071064D01*
X00575353Y01071105D01*
X00575370Y01071157D01*
X00575388Y01071212D01*
X00575401Y01071275D01*
X00575415Y01071340D01*
X00575426Y01071413D01*
X00575429Y01071489D01*
X00575433Y01071572D01*
Y01071575D01*
Y01071589D01*
Y01071613D01*
X00575429Y01071641D01*
X00575426Y01071679D01*
X00575422Y01071720D01*
X00575415Y01071765D01*
X00575408Y01071814D01*
X00575384Y01071917D01*
X00575370Y01071973D01*
X00575350Y01072028D01*
X00575325Y01072080D01*
X00575301Y01072131D01*
X00575270Y01072176D01*
X00575236Y01072221D01*
X00575232Y01072225D01*
X00575225Y01072232D01*
X00575215Y01072242D01*
X00575201Y01072256D01*
X00575180Y01072273D01*
X00575160Y01072290D01*
X00575132Y01072311D01*
X00575104Y01072332D01*
X00575032Y01072373D01*
X00574949Y01072408D01*
X00574904Y01072422D01*
X00574856Y01072432D01*
X00574804Y01072439D01*
X00574752Y01072442D01*
D02*
G37*
G36*
X00610547Y01073278D02*
X00610523D01*
X00610502Y01073275D01*
X00610481Y01073271D01*
X00610453Y01073268D01*
X00610391Y01073251D01*
X00610322Y01073223D01*
X00610288Y01073206D01*
X00610250Y01073182D01*
X00610215Y01073157D01*
X00610181Y01073126D01*
X00610146Y01073092D01*
X00610115Y01073050D01*
X00610112Y01073047D01*
X00610108Y01073036D01*
X00610098Y01073019D01*
X00610084Y01072991D01*
X00610070Y01072957D01*
X00610053Y01072915D01*
X00610032Y01072867D01*
X00610015Y01072805D01*
X00609997Y01072736D01*
X00609977Y01072660D01*
X00609959Y01072570D01*
X00609946Y01072473D01*
X00609932Y01072366D01*
X00609925Y01072245D01*
X00609918Y01072118D01*
X00609915Y01071976D01*
Y01071973D01*
Y01071966D01*
Y01071955D01*
Y01071941D01*
Y01071924D01*
Y01071900D01*
X00609918Y01071848D01*
X00609921Y01071786D01*
X00609925Y01071713D01*
X00609928Y01071634D01*
X00609939Y01071551D01*
X00609959Y01071375D01*
X00609973Y01071289D01*
X00609991Y01071202D01*
X00610011Y01071123D01*
X00610039Y01071050D01*
X00610067Y01070984D01*
X00610098Y01070929D01*
X00610101Y01070926D01*
X00610105Y01070919D01*
X00610115Y01070905D01*
X00610132Y01070888D01*
X00610149Y01070871D01*
X00610170Y01070850D01*
X00610222Y01070801D01*
X00610288Y01070753D01*
X00610367Y01070715D01*
X00610409Y01070698D01*
X00610453Y01070684D01*
X00610502Y01070677D01*
X00610550Y01070674D01*
X00610561D01*
X00610578Y01070677D01*
X00610595D01*
X00610619Y01070680D01*
X00610647Y01070687D01*
X00610709Y01070705D01*
X00610744Y01070719D01*
X00610778Y01070736D01*
X00610816Y01070757D01*
X00610854Y01070784D01*
X00610892Y01070812D01*
X00610930Y01070846D01*
X00610968Y01070888D01*
X00611003Y01070933D01*
X00611006Y01070936D01*
X00611010Y01070947D01*
X00611020Y01070960D01*
X00611030Y01070984D01*
X00611048Y01071016D01*
X00611062Y01071057D01*
X00611079Y01071105D01*
X00611096Y01071161D01*
X00611113Y01071226D01*
X00611131Y01071302D01*
X00611148Y01071385D01*
X00611162Y01071482D01*
X00611172Y01071589D01*
X00611182Y01071706D01*
X00611186Y01071834D01*
X00611189Y01071976D01*
Y01071979D01*
Y01071986D01*
Y01071997D01*
Y01072010D01*
Y01072028D01*
Y01072048D01*
X00611186Y01072104D01*
X00611182Y01072166D01*
X00611179Y01072238D01*
X00611175Y01072318D01*
X00611165Y01072401D01*
X00611144Y01072577D01*
X00611127Y01072663D01*
X00611110Y01072746D01*
X00611089Y01072826D01*
X00611065Y01072902D01*
X00611037Y01072964D01*
X00611003Y01073019D01*
X00610999Y01073023D01*
X00610996Y01073029D01*
X00610985Y01073043D01*
X00610972Y01073061D01*
X00610951Y01073078D01*
X00610930Y01073102D01*
X00610906Y01073126D01*
X00610878Y01073150D01*
X00610813Y01073195D01*
X00610733Y01073237D01*
X00610692Y01073254D01*
X00610644Y01073268D01*
X00610599Y01073275D01*
X00610547Y01073278D01*
D02*
G37*
G36*
X00565811Y01072446D02*
X00565783D01*
X00565766Y01072442D01*
X00565742Y01072439D01*
X00565718Y01072435D01*
X00565652Y01072422D01*
X00565583Y01072401D01*
X00565504Y01072370D01*
X00565466Y01072349D01*
X00565428Y01072325D01*
X00565390Y01072294D01*
X00565355Y01072263D01*
X00565352Y01072259D01*
X00565348Y01072256D01*
X00565338Y01072245D01*
X00565327Y01072232D01*
X00565314Y01072211D01*
X00565296Y01072190D01*
X00565279Y01072166D01*
X00565262Y01072135D01*
X00565244Y01072104D01*
X00565227Y01072066D01*
X00565193Y01071983D01*
X00565168Y01071890D01*
X00565162Y01071838D01*
X00565155Y01071783D01*
X00566447D01*
Y01071786D01*
Y01071796D01*
X00566443Y01071810D01*
X00566440Y01071831D01*
X00566436Y01071855D01*
X00566433Y01071883D01*
X00566419Y01071945D01*
X00566398Y01072017D01*
X00566374Y01072090D01*
X00566340Y01072159D01*
X00566298Y01072218D01*
X00566295Y01072221D01*
X00566291Y01072228D01*
X00566277Y01072238D01*
X00566264Y01072252D01*
X00566246Y01072270D01*
X00566222Y01072290D01*
X00566194Y01072311D01*
X00566167Y01072332D01*
X00566132Y01072353D01*
X00566094Y01072373D01*
X00566011Y01072411D01*
X00565966Y01072425D01*
X00565918Y01072435D01*
X00565866Y01072442D01*
X00565811Y01072446D01*
D02*
G37*
G36*
X00527022D02*
X00526995D01*
X00526977Y01072442D01*
X00526953Y01072439D01*
X00526929Y01072435D01*
X00526863Y01072422D01*
X00526794Y01072401D01*
X00526715Y01072370D01*
X00526677Y01072349D01*
X00526639Y01072325D01*
X00526601Y01072294D01*
X00526566Y01072263D01*
X00526563Y01072259D01*
X00526559Y01072256D01*
X00526549Y01072245D01*
X00526539Y01072232D01*
X00526525Y01072211D01*
X00526507Y01072190D01*
X00526490Y01072166D01*
X00526473Y01072135D01*
X00526456Y01072104D01*
X00526438Y01072066D01*
X00526404Y01071983D01*
X00526380Y01071890D01*
X00526373Y01071838D01*
X00526366Y01071783D01*
X00527658D01*
Y01071786D01*
Y01071796D01*
X00527654Y01071810D01*
X00527651Y01071831D01*
X00527647Y01071855D01*
X00527644Y01071883D01*
X00527630Y01071945D01*
X00527609Y01072017D01*
X00527585Y01072090D01*
X00527551Y01072159D01*
X00527509Y01072218D01*
X00527506Y01072221D01*
X00527502Y01072228D01*
X00527489Y01072238D01*
X00527475Y01072252D01*
X00527457Y01072270D01*
X00527433Y01072290D01*
X00527406Y01072311D01*
X00527378Y01072332D01*
X00527343Y01072353D01*
X00527305Y01072373D01*
X00527223Y01072411D01*
X00527178Y01072425D01*
X00527129Y01072435D01*
X00527077Y01072442D01*
X00527022Y01072446D01*
D02*
G37*
G36*
X00553866Y01072442D02*
X00553838D01*
X00553817Y01072439D01*
X00553793Y01072435D01*
X00553762Y01072432D01*
X00553696Y01072415D01*
X00553617Y01072387D01*
X00553579Y01072370D01*
X00553537Y01072349D01*
X00553496Y01072325D01*
X00553455Y01072294D01*
X00553416Y01072259D01*
X00553378Y01072221D01*
X00553375Y01072218D01*
X00553372Y01072211D01*
X00553361Y01072197D01*
X00553348Y01072180D01*
X00553334Y01072156D01*
X00553316Y01072128D01*
X00553299Y01072093D01*
X00553282Y01072055D01*
X00553265Y01072010D01*
X00553247Y01071962D01*
X00553230Y01071907D01*
X00553216Y01071848D01*
X00553202Y01071783D01*
X00553192Y01071713D01*
X00553189Y01071637D01*
X00553185Y01071558D01*
Y01071554D01*
Y01071537D01*
Y01071516D01*
X00553189Y01071485D01*
X00553192Y01071447D01*
X00553195Y01071406D01*
X00553202Y01071358D01*
X00553209Y01071309D01*
X00553233Y01071199D01*
X00553268Y01071088D01*
X00553289Y01071036D01*
X00553316Y01070984D01*
X00553344Y01070936D01*
X00553378Y01070891D01*
X00553382Y01070888D01*
X00553389Y01070881D01*
X00553399Y01070871D01*
X00553413Y01070857D01*
X00553434Y01070839D01*
X00553455Y01070822D01*
X00553482Y01070801D01*
X00553513Y01070784D01*
X00553582Y01070743D01*
X00553665Y01070708D01*
X00553710Y01070694D01*
X00553762Y01070684D01*
X00553810Y01070677D01*
X00553866Y01070674D01*
X00553893D01*
X00553914Y01070677D01*
X00553938Y01070680D01*
X00553969Y01070684D01*
X00554035Y01070701D01*
X00554111Y01070729D01*
X00554152Y01070746D01*
X00554194Y01070767D01*
X00554232Y01070791D01*
X00554273Y01070822D01*
X00554311Y01070857D01*
X00554349Y01070895D01*
X00554353Y01070898D01*
X00554356Y01070905D01*
X00554366Y01070919D01*
X00554380Y01070936D01*
X00554394Y01070960D01*
X00554411Y01070988D01*
X00554429Y01071022D01*
X00554449Y01071064D01*
X00554467Y01071105D01*
X00554484Y01071157D01*
X00554501Y01071212D01*
X00554515Y01071275D01*
X00554529Y01071340D01*
X00554539Y01071413D01*
X00554543Y01071489D01*
X00554546Y01071572D01*
Y01071575D01*
Y01071589D01*
Y01071613D01*
X00554543Y01071641D01*
X00554539Y01071679D01*
X00554536Y01071720D01*
X00554529Y01071765D01*
X00554522Y01071814D01*
X00554498Y01071917D01*
X00554484Y01071973D01*
X00554463Y01072028D01*
X00554439Y01072080D01*
X00554415Y01072131D01*
X00554384Y01072176D01*
X00554349Y01072221D01*
X00554346Y01072225D01*
X00554339Y01072232D01*
X00554328Y01072242D01*
X00554315Y01072256D01*
X00554294Y01072273D01*
X00554273Y01072290D01*
X00554246Y01072311D01*
X00554218Y01072332D01*
X00554145Y01072373D01*
X00554062Y01072408D01*
X00554018Y01072422D01*
X00553969Y01072432D01*
X00553917Y01072439D01*
X00553866Y01072442D01*
D02*
G37*
G36*
X00625486Y01072446D02*
X00625459D01*
X00625441Y01072442D01*
X00625417Y01072439D01*
X00625393Y01072435D01*
X00625327Y01072422D01*
X00625258Y01072401D01*
X00625179Y01072370D01*
X00625141Y01072349D01*
X00625103Y01072325D01*
X00625065Y01072294D01*
X00625030Y01072263D01*
X00625027Y01072259D01*
X00625023Y01072256D01*
X00625013Y01072245D01*
X00625003Y01072232D01*
X00624989Y01072211D01*
X00624972Y01072190D01*
X00624954Y01072166D01*
X00624937Y01072135D01*
X00624920Y01072104D01*
X00624902Y01072066D01*
X00624868Y01071983D01*
X00624844Y01071890D01*
X00624837Y01071838D01*
X00624830Y01071783D01*
X00626122D01*
Y01071786D01*
Y01071796D01*
X00626119Y01071810D01*
X00626115Y01071831D01*
X00626111Y01071855D01*
X00626108Y01071883D01*
X00626094Y01071945D01*
X00626074Y01072017D01*
X00626049Y01072090D01*
X00626015Y01072159D01*
X00625973Y01072218D01*
X00625970Y01072221D01*
X00625966Y01072228D01*
X00625953Y01072238D01*
X00625939Y01072252D01*
X00625922Y01072270D01*
X00625897Y01072290D01*
X00625870Y01072311D01*
X00625842Y01072332D01*
X00625808Y01072353D01*
X00625770Y01072373D01*
X00625687Y01072411D01*
X00625642Y01072425D01*
X00625593Y01072435D01*
X00625542Y01072442D01*
X00625486Y01072446D01*
D02*
G37*
G36*
X00584246Y01071565D02*
X00584242D01*
X00584235Y01071561D01*
X00584221Y01071558D01*
X00584204Y01071551D01*
X00584183Y01071541D01*
X00584156Y01071534D01*
X00584121Y01071523D01*
X00584087Y01071513D01*
X00584042Y01071503D01*
X00583993Y01071489D01*
X00583942Y01071479D01*
X00583883Y01071465D01*
X00583821Y01071451D01*
X00583755Y01071441D01*
X00583683Y01071427D01*
X00583603Y01071416D01*
X00583593D01*
X00583579Y01071413D01*
X00583565Y01071409D01*
X00583520Y01071403D01*
X00583468Y01071392D01*
X00583413Y01071382D01*
X00583358Y01071368D01*
X00583306Y01071354D01*
X00583261Y01071337D01*
X00583258Y01071333D01*
X00583244Y01071330D01*
X00583227Y01071320D01*
X00583206Y01071306D01*
X00583178Y01071285D01*
X00583154Y01071264D01*
X00583130Y01071240D01*
X00583106Y01071209D01*
X00583102Y01071206D01*
X00583099Y01071195D01*
X00583088Y01071178D01*
X00583082Y01071154D01*
X00583071Y01071126D01*
X00583061Y01071095D01*
X00583057Y01071060D01*
X00583054Y01071022D01*
Y01071016D01*
X00583057Y01070998D01*
X00583061Y01070967D01*
X00583068Y01070933D01*
X00583082Y01070891D01*
X00583102Y01070846D01*
X00583133Y01070805D01*
X00583171Y01070763D01*
X00583178Y01070760D01*
X00583192Y01070746D01*
X00583220Y01070732D01*
X00583258Y01070712D01*
X00583306Y01070694D01*
X00583368Y01070677D01*
X00583437Y01070663D01*
X00583517Y01070660D01*
X00583555D01*
X00583575Y01070663D01*
X00583600Y01070667D01*
X00583651Y01070674D01*
X00583717Y01070684D01*
X00583783Y01070701D01*
X00583852Y01070725D01*
X00583921Y01070757D01*
X00583924D01*
X00583928Y01070760D01*
X00583949Y01070774D01*
X00583980Y01070798D01*
X00584021Y01070829D01*
X00584062Y01070867D01*
X00584104Y01070915D01*
X00584145Y01070967D01*
X00584180Y01071029D01*
X00584183Y01071036D01*
X00584190Y01071054D01*
X00584201Y01071085D01*
X00584211Y01071126D01*
X00584221Y01071181D01*
X00584232Y01071251D01*
X00584239Y01071330D01*
X00584242Y01071420D01*
X00584246Y01071565D01*
D02*
G37*
G36*
X00556780Y01072442D02*
X00556756D01*
X00556735Y01072439D01*
X00556715Y01072435D01*
X00556687Y01072432D01*
X00556628Y01072415D01*
X00556559Y01072391D01*
X00556521Y01072373D01*
X00556483Y01072353D01*
X00556449Y01072328D01*
X00556411Y01072297D01*
X00556376Y01072266D01*
X00556342Y01072228D01*
X00556338Y01072225D01*
X00556335Y01072218D01*
X00556324Y01072204D01*
X00556314Y01072187D01*
X00556300Y01072166D01*
X00556286Y01072135D01*
X00556273Y01072104D01*
X00556255Y01072062D01*
X00556238Y01072021D01*
X00556224Y01071969D01*
X00556210Y01071914D01*
X00556197Y01071855D01*
X00556186Y01071786D01*
X00556176Y01071717D01*
X00556172Y01071637D01*
X00556169Y01071554D01*
Y01071551D01*
Y01071534D01*
Y01071513D01*
X00556172Y01071482D01*
X00556176Y01071444D01*
X00556179Y01071403D01*
X00556186Y01071358D01*
X00556193Y01071306D01*
X00556214Y01071199D01*
X00556248Y01071088D01*
X00556269Y01071036D01*
X00556293Y01070984D01*
X00556324Y01070936D01*
X00556355Y01070891D01*
X00556359Y01070888D01*
X00556362Y01070881D01*
X00556376Y01070871D01*
X00556390Y01070857D01*
X00556407Y01070839D01*
X00556428Y01070822D01*
X00556480Y01070784D01*
X00556545Y01070743D01*
X00556621Y01070708D01*
X00556663Y01070694D01*
X00556704Y01070684D01*
X00556749Y01070677D01*
X00556798Y01070674D01*
X00556822D01*
X00556842Y01070677D01*
X00556863Y01070680D01*
X00556891Y01070684D01*
X00556950Y01070701D01*
X00557019Y01070725D01*
X00557057Y01070743D01*
X00557091Y01070760D01*
X00557129Y01070784D01*
X00557167Y01070812D01*
X00557202Y01070843D01*
X00557236Y01070881D01*
X00557240Y01070884D01*
X00557243Y01070891D01*
X00557253Y01070902D01*
X00557264Y01070922D01*
X00557278Y01070943D01*
X00557295Y01070971D01*
X00557312Y01071002D01*
X00557329Y01071040D01*
X00557343Y01071081D01*
X00557361Y01071130D01*
X00557378Y01071185D01*
X00557392Y01071240D01*
X00557402Y01071302D01*
X00557412Y01071371D01*
X00557416Y01071444D01*
X00557419Y01071523D01*
Y01071530D01*
Y01071544D01*
Y01071568D01*
X00557416Y01071599D01*
X00557412Y01071641D01*
X00557409Y01071686D01*
X00557406Y01071734D01*
X00557395Y01071789D01*
X00557374Y01071900D01*
X00557340Y01072017D01*
X00557319Y01072073D01*
X00557295Y01072124D01*
X00557267Y01072173D01*
X00557233Y01072218D01*
X00557229Y01072221D01*
X00557226Y01072228D01*
X00557215Y01072238D01*
X00557202Y01072252D01*
X00557181Y01072270D01*
X00557160Y01072290D01*
X00557108Y01072332D01*
X00557043Y01072370D01*
X00556963Y01072408D01*
X00556922Y01072422D01*
X00556877Y01072432D01*
X00556829Y01072439D01*
X00556780Y01072442D01*
D02*
G37*
G36*
X00601537D02*
X00601513D01*
X00601492Y01072439D01*
X00601471Y01072435D01*
X00601443Y01072432D01*
X00601385Y01072415D01*
X00601316Y01072391D01*
X00601278Y01072373D01*
X00601240Y01072353D01*
X00601205Y01072328D01*
X00601167Y01072297D01*
X00601133Y01072266D01*
X00601098Y01072228D01*
X00601095Y01072225D01*
X00601091Y01072218D01*
X00601081Y01072204D01*
X00601070Y01072187D01*
X00601057Y01072166D01*
X00601043Y01072135D01*
X00601029Y01072104D01*
X00601012Y01072062D01*
X00600994Y01072021D01*
X00600981Y01071969D01*
X00600967Y01071914D01*
X00600953Y01071855D01*
X00600943Y01071786D01*
X00600932Y01071717D01*
X00600929Y01071637D01*
X00600925Y01071554D01*
Y01071551D01*
Y01071534D01*
Y01071513D01*
X00600929Y01071482D01*
X00600932Y01071444D01*
X00600936Y01071403D01*
X00600943Y01071358D01*
X00600950Y01071306D01*
X00600970Y01071199D01*
X00601005Y01071088D01*
X00601026Y01071036D01*
X00601050Y01070984D01*
X00601081Y01070936D01*
X00601112Y01070891D01*
X00601115Y01070888D01*
X00601119Y01070881D01*
X00601133Y01070871D01*
X00601146Y01070857D01*
X00601164Y01070839D01*
X00601184Y01070822D01*
X00601236Y01070784D01*
X00601302Y01070743D01*
X00601378Y01070708D01*
X00601419Y01070694D01*
X00601461Y01070684D01*
X00601506Y01070677D01*
X00601554Y01070674D01*
X00601578D01*
X00601599Y01070677D01*
X00601620Y01070680D01*
X00601647Y01070684D01*
X00601706Y01070701D01*
X00601775Y01070725D01*
X00601813Y01070743D01*
X00601848Y01070760D01*
X00601886Y01070784D01*
X00601924Y01070812D01*
X00601958Y01070843D01*
X00601993Y01070881D01*
X00601996Y01070884D01*
X00602000Y01070891D01*
X00602010Y01070902D01*
X00602020Y01070922D01*
X00602034Y01070943D01*
X00602052Y01070971D01*
X00602069Y01071002D01*
X00602086Y01071040D01*
X00602100Y01071081D01*
X00602117Y01071130D01*
X00602134Y01071185D01*
X00602148Y01071240D01*
X00602159Y01071302D01*
X00602169Y01071371D01*
X00602172Y01071444D01*
X00602176Y01071523D01*
Y01071530D01*
Y01071544D01*
Y01071568D01*
X00602172Y01071599D01*
X00602169Y01071641D01*
X00602165Y01071686D01*
X00602162Y01071734D01*
X00602152Y01071789D01*
X00602131Y01071900D01*
X00602096Y01072017D01*
X00602076Y01072073D01*
X00602052Y01072124D01*
X00602024Y01072173D01*
X00601989Y01072218D01*
X00601986Y01072221D01*
X00601982Y01072228D01*
X00601972Y01072238D01*
X00601958Y01072252D01*
X00601937Y01072270D01*
X00601917Y01072290D01*
X00601865Y01072332D01*
X00601799Y01072370D01*
X00601720Y01072408D01*
X00601678Y01072422D01*
X00601633Y01072432D01*
X00601585Y01072439D01*
X00601537Y01072442D01*
D02*
G37*
%LPD*%
D17*
X00716219Y00761379D02*
Y00786779D01*
X00563820D01*
Y00761379D01*
X00716219D01*
X00861074Y00909746D02*
Y00970746D01*
X00800074D01*
Y00909746D01*
X00861074D01*
X00890406Y00945648D02*
Y00953979D01*
X00895404D02*
X00893738Y00952313D01*
X00895404Y00953979D02*
Y00943982D01*
X00897070D01*
X00893738D01*
X00890406Y00945648D02*
X00888739Y00943982D01*
X00885407D01*
X00883741Y00945648D01*
Y00953979D01*
X00942766Y00939340D02*
X00973766D01*
Y00934340D01*
X00942766D01*
Y00939340D01*
X00970339Y00964336D02*
X00963675D01*
X00970339Y00971001D01*
Y00972667D01*
X00968673Y00974333D01*
X00965341D01*
X00963675Y00972667D01*
X00960343Y00974333D02*
Y00966003D01*
X00958677Y00964336D01*
X00955344D01*
X00953678Y00966003D01*
Y00974333D01*
X01025991Y00914637D02*
X01051391D01*
Y00838437D01*
X01025991D01*
Y00914637D01*
X00919718Y00811643D02*
X01011719D01*
Y00759643D01*
X00919718D01*
Y00811643D01*
Y00752643D02*
X01011719D01*
D30*
X00942266Y00924840D02*
G03*
X00942266Y00924840I-00001250J00000000D01*
G01*
X00790324Y00976496D02*
G03*
X00790324Y00976496I-00001250J00000000D01*
G01*
D31*
X00813074Y00960746D02*
G03*
X00813074Y00960746I-00003000J00000000D01*
G01*
D32*
X00560117Y00766263D02*
X00557578D01*
Y00781498D01*
X00555039Y00778959D01*
X00549960Y00781498D02*
Y00766263D01*
X00555039D02*
X00560117D01*
X00549960Y00773881D02*
Y00781498D01*
Y00773881D02*
X00539804D01*
Y00766263D01*
Y00781498D01*
X00576125Y00827756D02*
X00583745D01*
X00567235Y00897606D02*
Y00907766D01*
X00562155Y00902686D02*
X00572315D01*
X00578829Y00918994D02*
Y00929154D01*
X00573749Y00924074D02*
X00583909D01*
X00569939Y00999004D02*
X00562319D01*
X00860362Y01000379D02*
G03*
X00860362Y01000379I-00000010J00000000D01*
G01*
X00939743Y01048629D02*
Y01056249D01*
X01009593Y01065139D02*
X01019753D01*
X01014672Y01070219D02*
Y01060059D01*
X00962341Y00777613D02*
X00959802Y00775074D01*
Y00772535D01*
X00962341Y00769996D01*
X00967420D01*
X00969959Y00767457D01*
Y00764917D01*
X00967420Y00762378D01*
X00962341D01*
X00959802Y00764917D01*
X00954724D02*
Y00777613D01*
X00962341D02*
X00967420D01*
X00969959Y00775074D01*
X00975037Y00777613D02*
Y00762378D01*
X00982655D01*
X00985194Y00764917D01*
Y00767457D01*
X00982655Y00769996D01*
X00975037D01*
X00982655D01*
X00985194Y00772535D01*
Y00775074D01*
X00982655Y00777613D01*
X00975037D01*
X00944567D02*
Y00764917D01*
X00947106Y00762378D01*
X00952185D01*
X00954724Y00764917D01*
D33*
X00788725Y00803323D02*
Y00819323D01*
X00761725D01*
Y00803323D01*
X00788725D01*
X00788043Y00827229D02*
Y00843229D01*
X00761043D01*
Y00827229D01*
X00788043D01*
X00849246Y00851068D02*
X00876245D01*
Y00867068D01*
X00849246D01*
Y00851068D01*
X00883198Y00886927D02*
X00910198D01*
Y00902927D01*
X00883198D01*
Y00886927D01*
X00899427Y00909416D02*
Y00936415D01*
X00883427D01*
Y00909416D01*
X00899427D01*
X00939150Y00898540D02*
X00966150D01*
Y00914540D01*
X00939150D01*
Y00898540D01*
X00933040Y00926135D02*
Y00953135D01*
X00917040D01*
Y00926135D01*
X00933040D01*
X00910368Y00958340D02*
Y00974340D01*
X00883368D01*
Y00958340D01*
X00910368D01*
X00920397Y01003310D02*
Y01030310D01*
X00904397D01*
Y01003310D01*
X00920397D01*
X00984268Y00936211D02*
X01000268D01*
Y00909211D01*
X00984268D01*
Y00936211D01*
X01017959Y00950355D02*
X01033959D01*
Y00977355D01*
X01017959D01*
Y00950355D01*
X01047533Y00985665D02*
Y01001665D01*
X01020533D01*
Y00985665D01*
X01047533D01*
X00994082Y00858239D02*
X01021081D01*
Y00842239D01*
X00994082D01*
Y00858239D01*
X00858418Y01004536D02*
Y01031536D01*
X00842418D01*
Y01004536D01*
X00858418D01*
X00826730Y00997435D02*
Y01013435D01*
X00799730D01*
Y00997435D01*
X00826730D01*
X00775596Y00936182D02*
X00759596D01*
Y00909182D01*
X00775596D01*
Y00936182D01*
X00757207Y00958318D02*
X00741207D01*
Y00931318D01*
X00757207D01*
Y00958318D01*
X00748812Y00920930D02*
Y00904930D01*
X00721812D01*
Y00920930D01*
X00748812D01*
X00748335Y00897785D02*
X00721336D01*
Y00881785D01*
X00748335D01*
Y00897785D01*
X00781068Y00886206D02*
X00808068D01*
Y00870206D01*
X00781068D01*
Y00886206D01*
X00819209Y00880145D02*
X00846209D01*
Y00864145D01*
X00819209D01*
Y00880145D01*
X00714920Y00841785D02*
X00698920D01*
Y00814785D01*
X00714920D01*
Y00841785D01*
X00689306Y00842234D02*
X00673306D01*
Y00815234D01*
X00689306D01*
Y00842234D01*
D34*
X00900612Y00999880D02*
Y01030879D01*
X00862612D01*
Y00999880D01*
X00900612D01*
D35*
X00754607Y00808462D02*
Y00810461D01*
X00755274Y00811128D01*
X00756606D01*
X00757273Y00810461D01*
Y00808462D01*
X00758606D02*
X00754607D01*
X00757273Y00809795D02*
X00758606Y00811128D01*
Y00812461D02*
Y00813794D01*
Y00813127D01*
X00754607D01*
X00755274Y00812461D01*
X00754456Y00830121D02*
X00757122D01*
X00757788Y00830787D01*
Y00832120D01*
X00757122Y00832787D01*
Y00834120D02*
X00757788Y00834786D01*
Y00836119D01*
X00757122Y00836785D01*
X00756456D01*
X00755789Y00836119D01*
Y00834120D01*
X00757122D01*
X00755789D02*
X00754456Y00835452D01*
X00753790Y00836785D01*
X00754456Y00832787D02*
X00753790Y00832120D01*
Y00830787D01*
X00754456Y00830121D01*
X00773814Y00873560D02*
X00774480Y00872894D01*
X00777146D01*
X00777813Y00873560D01*
Y00874893D01*
X00777146Y00875560D01*
X00774480D02*
X00773814Y00874893D01*
Y00873560D01*
X00775813Y00876892D02*
Y00879558D01*
X00773814Y00878892D02*
X00775813Y00876892D01*
X00773814Y00878892D02*
X00777813D01*
X00821146Y00860444D02*
X00821812Y00861111D01*
X00823145D01*
X00823812Y00860444D01*
Y00857779D01*
X00823145Y00857112D01*
X00821812D01*
X00821146Y00857779D01*
Y00860444D01*
X00825811Y00861111D02*
X00826477D01*
Y00857112D01*
X00827144Y00857779D01*
X00828477D02*
X00829143Y00857112D01*
X00830476D01*
X00831143Y00857779D01*
Y00860444D01*
X00830476Y00861111D01*
X00829143D01*
X00828477Y00860444D01*
X00827144Y00861111D02*
X00825811D01*
X00880089Y00860621D02*
X00879423Y00859955D01*
Y00858622D01*
X00880089Y00857956D01*
Y00856623D02*
X00879423D01*
X00880089D02*
X00882755Y00853957D01*
X00883421D01*
Y00856623D01*
X00882755Y00857956D02*
X00883421Y00858622D01*
Y00859955D01*
X00882755Y00860621D01*
X00880089D01*
X00915720Y00892094D02*
X00916386Y00892760D01*
Y00894093D01*
X00915720Y00894760D01*
X00915053D01*
X00914387Y00894093D01*
Y00892094D01*
X00913054D02*
X00915720D01*
Y00896093D02*
X00916386Y00896759D01*
Y00898092D01*
X00915720Y00898758D01*
X00913054D01*
X00912388Y00898092D01*
Y00896759D01*
X00913054Y00896093D01*
Y00894760D02*
X00912388Y00894093D01*
Y00892760D01*
X00913054Y00892094D01*
X00932291Y00899426D02*
Y00900258D01*
X00937289D01*
X00936456Y00901092D01*
X00937289Y00904424D02*
X00936456Y00905257D01*
Y00906923D02*
X00937289Y00907756D01*
Y00909422D01*
X00936456Y00910255D01*
X00933124D01*
X00932291Y00909422D01*
Y00907756D01*
X00933124Y00906923D01*
X00932291Y00905257D02*
Y00903591D01*
Y00904424D01*
X00937289D01*
X00932291Y00901092D02*
Y00899426D01*
X00908846Y00930909D02*
X00908179Y00930242D01*
X00906846D01*
X00906180Y00930909D01*
Y00931575D01*
X00906846Y00932242D01*
X00906180Y00932908D01*
Y00933574D01*
X00906846Y00934241D01*
X00908179D01*
X00908846Y00933574D01*
Y00932908D01*
X00908179Y00932242D01*
X00908846Y00931575D01*
Y00930909D01*
X00908179Y00932242D02*
X00906846D01*
X00904847Y00933574D02*
X00904180Y00934241D01*
X00902847D01*
X00902181Y00933574D01*
Y00930909D01*
X00902847Y00930242D01*
X00904180D01*
X00904847Y00930909D01*
X00914485Y00962246D02*
X00913652Y00963079D01*
Y00964745D01*
X00914485Y00965578D01*
X00915318D01*
X00916151Y00964745D01*
X00916984Y00965578D01*
X00917817D01*
X00918650Y00964745D01*
Y00963079D01*
X00917817Y00962246D01*
X00916984D01*
X00916151Y00963079D01*
X00915318Y00962246D01*
X00914485D01*
X00916151Y00963079D02*
Y00964745D01*
X00918985Y00961189D02*
Y00957857D01*
X00919818Y00957024D01*
X00921484D01*
X00922317Y00957857D01*
X00923983Y00957024D02*
X00925649D01*
X00924817D01*
Y00962022D01*
X00923983Y00961189D01*
X00922317D02*
X00921484Y00962022D01*
X00919818D01*
X00918985Y00961189D01*
X00928149D02*
X00928982Y00962022D01*
X00930648D01*
X00931481Y00961189D01*
Y00960356D01*
X00928149Y00957024D01*
X00931481D01*
X00917817Y00967244D02*
X00916151D01*
X00915318Y00968077D01*
Y00970577D01*
Y00968911D02*
X00913652Y00967244D01*
Y00970577D02*
X00918650D01*
Y00968077D01*
X00917817Y00967244D01*
X00988794Y00944747D02*
Y00941414D01*
X00989628Y00940581D01*
X00991294D01*
X00992127Y00941414D01*
X00993793Y00940581D02*
X00995459D01*
X00994626D01*
Y00945580D01*
X00993793Y00944747D01*
X00992127D02*
X00991294Y00945580D01*
X00989628D01*
X00988794Y00944747D01*
X00997958D02*
X00998791Y00945580D01*
X01000457D01*
X01001290Y00944747D01*
Y00943913D01*
X01000457Y00943081D01*
X00999624D01*
X01000457D01*
X01001290Y00942247D01*
Y00941414D01*
X01000457Y00940581D01*
X00998791D01*
X00997958Y00941414D01*
X01006661Y00978055D02*
Y00983054D01*
X01009160D01*
X01009994Y00982221D01*
Y00980554D01*
X01009160Y00979721D01*
X01006661D01*
X01008327D02*
X01009994Y00978055D01*
X01011660Y00978888D02*
X01012493Y00978055D01*
X01014159D01*
X01014992Y00978888D01*
Y00979721D01*
X01014159Y00980554D01*
X01011660D01*
Y00978888D01*
Y00980554D02*
X01013326Y00982221D01*
X01014992Y00983054D01*
X01020670Y01008557D02*
X01024003D01*
X01025669D02*
X01029001D01*
X01030667D02*
X01033166D01*
X01033999Y01009390D01*
Y01012722D01*
X01033166Y01013556D01*
X01030667D01*
Y01008557D01*
X01035666D02*
X01037332D01*
X01036499D01*
Y01013556D01*
X01035666Y01012722D01*
X01029001Y01013556D02*
X01025669D01*
Y01008557D01*
Y01011056D02*
X01027335D01*
X01020670Y01013556D02*
Y01008557D01*
X00999546Y01076819D02*
X00996214D01*
X00999546Y01080151D01*
Y01080984D01*
X00998713Y01081817D01*
X00997047D01*
X00996214Y01080984D01*
X00993715Y01080151D02*
X00994548Y01079318D01*
Y01076819D01*
X00991215D02*
Y01080151D01*
X00993715D01*
X00989549Y01079318D02*
X00988716Y01080151D01*
X00987050D01*
X00986217Y01079318D01*
Y01077652D01*
X00987050Y01076819D01*
X00988716D01*
X00989549Y01077652D01*
Y01079318D01*
X00982885Y01080151D02*
X00982052D01*
X00982885D02*
Y01076819D01*
X00983718D01*
X00982052D01*
X00979553D02*
X00980386Y01077652D01*
X00979553Y01078485D01*
X00977887D01*
X00977053Y01079318D01*
X00977887Y01080151D01*
X00980386D01*
X00979553Y01076819D02*
X00977053D01*
X00975387D02*
Y01079318D01*
X00974554Y01080151D01*
X00972055D01*
Y01076819D01*
X00969556D02*
X00967890D01*
X00967057Y01077652D01*
Y01079318D01*
X00967890Y01080151D01*
X00969556D01*
X00970389Y01079318D01*
Y01078485D01*
X00967057D01*
X00963724Y01077652D02*
X00964557Y01076819D01*
X00963724Y01077652D02*
Y01080151D01*
X00962891D01*
X00964557D01*
X00963724D01*
Y01080984D01*
X00961225Y01080151D02*
X00957893Y01076819D01*
X00955394D02*
X00953728D01*
X00952895Y01077652D01*
Y01079318D01*
X00953728Y01080151D01*
X00955394D01*
X00956227Y01079318D01*
Y01078485D01*
X00952895D01*
X00959559D02*
X00961225Y01080151D01*
X00957893D02*
X00961225Y01076819D01*
X00959559Y01078485D01*
X00914611Y01037972D02*
X00913944Y01037306D01*
X00912611D02*
X00911945Y01037972D01*
X00910612D01*
X00909946Y01037306D01*
Y01034640D01*
X00910612Y01033973D01*
X00911945D01*
X00912611Y01034640D01*
X00913944Y01033973D02*
X00915277D01*
X00914611D01*
Y01037972D01*
X00853608Y01038342D02*
Y01039008D01*
X00852942Y01039675D01*
X00851609D01*
X00850943Y01039008D01*
X00849610D02*
X00848943Y01039675D01*
X00847610D01*
X00846944Y01039008D01*
Y01036342D01*
X00847610Y01035676D01*
X00848943D01*
X00849610Y01036342D01*
X00850943Y01035676D02*
X00853608Y01038342D01*
Y01035676D02*
X00850943D01*
X00815567Y01021059D02*
Y01020226D01*
X00812234Y01016893D01*
Y01016060D01*
X00810568D02*
X00808902Y01017727D01*
X00809735D02*
X00807236D01*
Y01016060D02*
Y01021059D01*
X00809735D01*
X00810568Y01020226D01*
Y01018560D01*
X00809735Y01017727D01*
X00812234Y01021059D02*
X00815567D01*
X00752466Y00964550D02*
X00749800D01*
Y00962550D01*
X00751133Y00963217D01*
X00751799D01*
X00752466Y00962550D01*
Y00961217D01*
X00751799Y00960551D01*
X00750466D01*
X00749800Y00961217D01*
X00748467D02*
X00747801Y00960551D01*
X00746468D01*
X00745801Y00961217D01*
Y00963883D01*
X00746468Y00964550D01*
X00747801D01*
X00748467Y00963883D01*
X00765226Y00938627D02*
X00764559Y00937961D01*
Y00935295D01*
X00765226Y00934628D01*
X00766558D01*
X00767225Y00935295D01*
X00768558D02*
X00769224Y00934628D01*
X00770557D01*
X00771224Y00935295D01*
Y00935961D01*
X00770557Y00936628D01*
X00769891D01*
X00770557D01*
X00771224Y00937294D01*
Y00937961D01*
X00770557Y00938627D01*
X00769224D01*
X00768558Y00937961D01*
X00767225D02*
X00766558Y00938627D01*
X00765226D01*
X00721678Y00916747D02*
X00718346D01*
Y00914248D01*
X00720012Y00915081D01*
X00720845D01*
X00721678Y00914248D01*
Y00912582D01*
X00720845Y00911749D01*
X00719179D01*
X00718346Y00912582D01*
X00716680Y00911749D02*
X00715014Y00913415D01*
X00715847D02*
X00713348D01*
Y00911749D02*
Y00916747D01*
X00715847D01*
X00716680Y00915914D01*
Y00914248D01*
X00715847Y00913415D01*
X00715811Y00892989D02*
Y00889657D01*
X00713312Y00892156D01*
X00718310D01*
Y00887991D02*
X00716644Y00886325D01*
Y00887158D02*
Y00884659D01*
X00718310D02*
X00713312D01*
Y00887158D01*
X00714145Y00887991D01*
X00715811D01*
X00716644Y00887158D01*
X00684570Y00812140D02*
Y00808141D01*
X00682571D01*
X00681905Y00808808D01*
Y00810141D01*
X00682571Y00810807D01*
X00684570D01*
X00683238D02*
X00681905Y00812140D01*
X00680572D02*
X00677906Y00809474D01*
Y00808808D01*
X00678572Y00808141D01*
X00679905D01*
X00680572Y00808808D01*
Y00812140D02*
X00677906D01*
X00702834Y00810656D02*
X00703501Y00811323D01*
X00704834D01*
X00705500Y00810656D01*
X00706833Y00811323D02*
X00708166Y00809990D01*
X00707499D02*
X00709499D01*
Y00811323D02*
Y00807324D01*
X00707499D01*
X00706833Y00807990D01*
Y00809323D01*
X00707499Y00809990D01*
X00705500Y00807990D02*
X00704834Y00807324D01*
X00703501D01*
X00702834Y00807990D01*
Y00808657D01*
X00703501Y00809323D01*
X00704167D01*
X00703501D01*
X00702834Y00809990D01*
Y00810656D01*
X00554140Y00941019D02*
X00553307Y00940186D01*
X00551641D01*
X00550808Y00941019D01*
Y00942685D01*
X00551641Y00943518D01*
X00552474D01*
Y00940186D01*
X00554140Y00941019D02*
Y00942685D01*
Y00945184D02*
X00550808Y00948517D01*
X00552474Y00946851D01*
X00554140Y00948517D01*
X00550808Y00945184D01*
Y00950183D02*
Y00951849D01*
Y00951016D01*
Y00950183D01*
Y00951016D02*
X00553307D01*
X00554140Y00951849D01*
Y00955181D02*
X00553307Y00954348D01*
X00551641D01*
X00550808Y00955181D01*
Y00956847D01*
X00551641Y00957681D01*
X00552474D01*
Y00954348D01*
X00554140Y00955181D02*
Y00956847D01*
Y00959347D02*
X00550808D01*
Y00961846D01*
X00551641Y00962679D01*
X00554140D01*
Y00964345D02*
Y00966844D01*
X00553307Y00967677D01*
X00552474Y00966844D01*
Y00965178D01*
X00551641Y00964345D01*
X00550808Y00965178D01*
Y00967677D01*
Y00969343D02*
Y00970176D01*
X00554140D01*
Y00971009D01*
Y00969343D01*
Y00974342D02*
Y00976008D01*
X00553307Y00976841D01*
X00551641D01*
X00550808Y00976008D01*
Y00974342D01*
X00551641Y00973509D01*
X00553307D01*
X00554140Y00974342D01*
Y00978507D02*
X00550808D01*
Y00981006D01*
X00551641Y00981839D01*
X00554140D01*
Y00984338D02*
X00553307Y00983505D01*
X00554140Y00984338D02*
Y00986005D01*
X00553307Y00986838D01*
X00552474D01*
X00551641Y00986005D01*
Y00985172D01*
Y00986005D01*
X00550808Y00986838D01*
X00549975D01*
X00549142Y00986005D01*
Y00984338D01*
X00549975Y00983505D01*
Y00951016D02*
X00550808D01*
X00550674Y00885787D02*
X00551507Y00884954D01*
X00550674Y00885787D02*
X00555673D01*
Y00886620D01*
Y00884954D01*
Y00883288D02*
X00553173D01*
X00552340Y00882455D01*
Y00879955D01*
X00555673D01*
Y00877456D02*
X00554840Y00878289D01*
X00553173D01*
X00552340Y00877456D01*
Y00875790D01*
X00553173Y00874957D01*
X00554840D01*
X00555673Y00875790D01*
Y00877456D01*
Y00872458D02*
Y00871625D01*
X00552340D01*
Y00870792D01*
Y00869126D02*
Y00866626D01*
X00553173Y00865793D01*
X00554007Y00866626D01*
Y00868292D01*
X00554840Y00869126D01*
X00555673Y00868292D01*
Y00865793D01*
Y00864127D02*
X00553173D01*
X00552340Y00863294D01*
Y00860795D01*
X00555673D01*
Y00858296D02*
Y00856630D01*
X00554840Y00855797D01*
X00553173D01*
X00552340Y00856630D01*
Y00858296D01*
X00553173Y00859129D01*
X00554007D01*
Y00855797D01*
X00554840Y00852464D02*
X00555673Y00853297D01*
X00554840Y00852464D02*
X00552340D01*
Y00851631D01*
Y00853297D01*
Y00852464D01*
X00551507D01*
X00552340Y00849965D02*
X00555673Y00846633D01*
Y00844134D02*
Y00842468D01*
X00554840Y00841635D01*
X00553173D01*
X00552340Y00842468D01*
Y00844134D01*
X00553173Y00844967D01*
X00554007D01*
Y00841635D01*
Y00848299D02*
X00552340Y00849965D01*
Y00846633D02*
X00555673Y00849965D01*
X00554007Y00848299D01*
X00555673Y00870792D02*
Y00872458D01*
X00994241Y00869351D02*
Y00866018D01*
X00995074Y00865185D01*
X00996740D01*
X00997573Y00866018D01*
X00999240Y00865185D02*
X01000906D01*
X01000072D01*
Y00870184D01*
X00999240Y00869351D01*
X00997573D02*
X00996740Y00870184D01*
X00995074D01*
X00994241Y00869351D01*
X01003405Y00867684D02*
X01006737D01*
X01005904Y00865185D02*
Y00870184D01*
X01003405Y00867684D01*
D36*
X01023984Y00827548D02*
X01022818Y00828714D01*
X01023984Y00827548D02*
X01025150D01*
X01026316Y00828714D01*
Y00834546D01*
X01025150D01*
X01027483D01*
X01029815Y00832213D02*
Y00828714D01*
X01030982Y00827548D01*
X01034480D01*
Y00832213D01*
X01036813D02*
X01037979D01*
X01039146Y00831047D01*
Y00827548D01*
Y00831047D01*
X01040312Y00832213D01*
X01041478Y00831047D01*
Y00827548D01*
X01043811D02*
X01047310D01*
X01048476Y00828714D01*
Y00831047D01*
X01047310Y00832213D01*
X01043811D01*
Y00825215D01*
X01051975Y00827548D02*
X01050808Y00828714D01*
Y00831047D01*
X01051975Y00832213D01*
X01054307D01*
X01055474Y00831047D01*
Y00829881D01*
X01050808D01*
X01051975Y00827548D02*
X01054307D01*
X01057806D02*
Y00829881D01*
X01058972Y00831047D01*
X01060139Y00832213D01*
X01061305D01*
X01057806D02*
Y00827548D01*
X01036813D02*
Y00832213D01*
X00896806Y01034059D02*
X00895557D01*
Y01041556D01*
X00894307Y01040307D01*
Y01034059D02*
X00896806D01*
X00891808D02*
X00886809Y01041556D01*
Y01034059D02*
X00891808Y01041556D01*
M02*
