G04 Layer_Color=255*
%FSAX44Y44*%
%MOMM*%
G71*
G01*
G75*
%ADD10R,0.6000X1.0000*%
%ADD11R,1.0000X0.6000*%
%ADD12O,1.3500X0.5500*%
%ADD13O,0.5500X1.3500*%
%ADD14R,0.5500X1.1000*%
%ADD15R,1.2000X1.1000*%
%ADD16R,0.4000X1.3000*%
%ADD19R,1.0000X1.0000*%
%ADD20C,1.5240*%
%ADD21R,1.0000X1.0000*%
%ADD22C,1.4500*%
%ADD23O,1.0000X1.5000*%
%ADD24R,1.5000X1.5000*%
%ADD25C,1.5000*%
%ADD26R,1.5000X1.5000*%
D10*
X00767725Y00811323D02*
D03*
X00782725D02*
D03*
X00782043Y00835229D02*
D03*
X00767043D02*
D03*
X00825209Y00872145D02*
D03*
X00855246Y00859068D02*
D03*
X00870246D02*
D03*
X00840209Y00872145D02*
D03*
X00889198Y00894927D02*
D03*
X00904198D02*
D03*
X00945150Y00906540D02*
D03*
X00960150D02*
D03*
X01000082Y00850239D02*
D03*
X01015081D02*
D03*
X00904368Y00966340D02*
D03*
X00889368D02*
D03*
X00820730Y01005435D02*
D03*
X00805730D02*
D03*
X00727812Y00912930D02*
D03*
X00727336Y00889785D02*
D03*
X00742335D02*
D03*
X00742812Y00912930D02*
D03*
X00787068Y00878206D02*
D03*
X00802068D02*
D03*
X01026533Y00993665D02*
D03*
X01041533D02*
D03*
D11*
X00706920Y00820785D02*
D03*
Y00835785D02*
D03*
X00681306Y00836234D02*
D03*
Y00821234D02*
D03*
X00767596Y00915182D02*
D03*
Y00930182D02*
D03*
X00749207Y00952318D02*
D03*
Y00937318D02*
D03*
X00850418Y01010536D02*
D03*
Y01025536D02*
D03*
X00912397Y01009310D02*
D03*
Y01024310D02*
D03*
X00925040Y00947134D02*
D03*
Y00932135D02*
D03*
X00891427Y00930415D02*
D03*
Y00915415D02*
D03*
X00992268Y00915211D02*
D03*
Y00930211D02*
D03*
X01025959Y00956355D02*
D03*
Y00971355D02*
D03*
D12*
X00872075Y00912246D02*
D03*
Y00920246D02*
D03*
Y00928246D02*
D03*
Y00936246D02*
D03*
Y00944246D02*
D03*
Y00952246D02*
D03*
Y00960246D02*
D03*
Y00968246D02*
D03*
X00789074D02*
D03*
Y00960246D02*
D03*
Y00952246D02*
D03*
Y00944246D02*
D03*
Y00936246D02*
D03*
Y00928246D02*
D03*
Y00920246D02*
D03*
Y00912246D02*
D03*
D13*
X00842574Y00898746D02*
D03*
X00850574D02*
D03*
X00858574D02*
D03*
X00834574D02*
D03*
X00826574D02*
D03*
X00818574D02*
D03*
X00810574D02*
D03*
X00802574D02*
D03*
X00842574Y00981746D02*
D03*
X00850574D02*
D03*
X00858574D02*
D03*
X00834574D02*
D03*
X00826574D02*
D03*
X00818574D02*
D03*
X00810574D02*
D03*
X00802574D02*
D03*
D14*
X00948766Y00924840D02*
D03*
X00958266D02*
D03*
X00967766D02*
D03*
Y00948840D02*
D03*
X00948766D02*
D03*
D15*
X00893552Y01006475D02*
D03*
Y01024255D02*
D03*
X00869672Y01024284D02*
D03*
Y01006475D02*
D03*
D16*
X00952718Y00801143D02*
D03*
X00959218D02*
D03*
X00965718D02*
D03*
X00972218D02*
D03*
X00978718D02*
D03*
D19*
X00567236Y00837913D02*
D03*
X00579936D02*
D03*
Y00850612D02*
D03*
Y00863313D02*
D03*
X00567236D02*
D03*
Y00850612D02*
D03*
Y00876012D02*
D03*
Y00888712D02*
D03*
X00579936D02*
D03*
Y00876012D02*
D03*
X00578828Y00938048D02*
D03*
X00566128D02*
D03*
Y00950748D02*
D03*
X00578828D02*
D03*
Y00963448D02*
D03*
X00566128D02*
D03*
Y00976148D02*
D03*
X00578828D02*
D03*
Y00988848D02*
D03*
X00566128D02*
D03*
D20*
X00530178Y00798585D02*
D03*
X00530328Y01038753D02*
D03*
X01045179Y00798585D02*
D03*
Y01038585D02*
D03*
D21*
X01000699Y01052438D02*
D03*
Y01065138D02*
D03*
X00987999D02*
D03*
Y01052438D02*
D03*
X00975299D02*
D03*
Y01065138D02*
D03*
X00962599D02*
D03*
Y01052438D02*
D03*
X00949899D02*
D03*
Y01065138D02*
D03*
D22*
X00940719Y00801143D02*
D03*
X00990718D02*
D03*
D23*
X00930719Y00774143D02*
D03*
X01000718D02*
D03*
D24*
X01038691Y00851137D02*
D03*
D25*
X00703520Y00774079D02*
D03*
X00678120D02*
D03*
X00652719D02*
D03*
X00627319D02*
D03*
X00601920D02*
D03*
X01038691Y00876537D02*
D03*
Y00901937D02*
D03*
D26*
X00576520Y00774079D02*
D03*
M02*
