G04 Layer_Physical_Order=1*
G04 Layer_Color=255*
%FSAX44Y44*%
%MOMM*%
G71*
G01*
G75*
%ADD10R,0.6000X1.0000*%
%ADD11R,1.0000X0.6000*%
%ADD12O,1.3500X0.5500*%
%ADD13O,0.5500X1.3500*%
%ADD14R,0.5500X1.1000*%
%ADD15R,1.2000X1.1000*%
%ADD16R,0.4000X1.3000*%
%ADD17C,0.2000*%
%ADD18C,0.4000*%
%ADD19R,1.0000X1.0000*%
%ADD20C,1.5240*%
%ADD21R,1.0000X1.0000*%
%ADD22C,1.4500*%
%ADD23O,1.0000X1.5000*%
%ADD24R,1.5000X1.5000*%
%ADD25C,1.5000*%
%ADD26R,1.5000X1.5000*%
%ADD27C,0.5000*%
G36*
X01068232Y00751931D02*
X01068120Y00751659D01*
X00507281D01*
Y01091003D01*
X00508098Y01091935D01*
X01068232D01*
Y00751931D01*
D02*
G37*
%LPC*%
G36*
X01045179Y00812229D02*
X01045014Y00812196D01*
X01044846Y00812207D01*
X01041974Y00811829D01*
X01041658Y00811722D01*
X01041331Y00811657D01*
X01038656Y00810549D01*
X01038378Y00810363D01*
X01038079Y00810216D01*
X01035781Y00808453D01*
X01035562Y00808202D01*
X01035311Y00807982D01*
X01033548Y00805684D01*
X01033400Y00805385D01*
X01033215Y00805108D01*
X01032107Y00802432D01*
X01032042Y00802105D01*
X01031935Y00801789D01*
X01031556Y00798918D01*
X01031578Y00798585D01*
X01031556Y00798252D01*
X01031935Y00795381D01*
X01032042Y00795065D01*
X01032107Y00794738D01*
X01033215Y00792062D01*
X01033400Y00791785D01*
X01033548Y00791486D01*
X01035311Y00789188D01*
X01035562Y00788968D01*
X01035781Y00788718D01*
X01038079Y00786954D01*
X01038378Y00786807D01*
X01038656Y00786622D01*
X01041331Y00785513D01*
X01041658Y00785448D01*
X01041974Y00785341D01*
X01044846Y00784963D01*
X01045014Y00784974D01*
X01045179Y00784941D01*
X01045343Y00784974D01*
X01045511Y00784963D01*
X01048383Y00785341D01*
X01048699Y00785448D01*
X01049025Y00785513D01*
X01051701Y00786622D01*
X01051979Y00786807D01*
X01052278Y00786954D01*
X01054576Y00788718D01*
X01054795Y00788968D01*
X01055046Y00789188D01*
X01056809Y00791486D01*
X01056957Y00791785D01*
X01057142Y00792062D01*
X01058250Y00794738D01*
X01058315Y00795065D01*
X01058422Y00795381D01*
X01058801Y00798252D01*
X01058779Y00798585D01*
X01058801Y00798918D01*
X01058422Y00801789D01*
X01058315Y00802105D01*
X01058250Y00802432D01*
X01057142Y00805108D01*
X01056957Y00805385D01*
X01056809Y00805684D01*
X01055046Y00807982D01*
X01054795Y00808202D01*
X01054576Y00808453D01*
X01052278Y00810216D01*
X01051979Y00810363D01*
X01051701Y00810549D01*
X01049025Y00811657D01*
X01048699Y00811722D01*
X01048383Y00811829D01*
X01045511Y00812207D01*
X01045343Y00812196D01*
X01045179Y00812229D01*
D02*
G37*
G36*
X00576911Y00997982D02*
X00559895Y00997981D01*
X00559970Y00983381D01*
X00559325Y00982951D01*
X00558773Y00982123D01*
X00558579Y00981148D01*
Y00971148D01*
X00558773Y00970173D01*
X00559023Y00969798D01*
X00558773Y00969424D01*
X00558579Y00968448D01*
Y00958448D01*
X00558773Y00957473D01*
X00559023Y00957098D01*
X00558773Y00956723D01*
X00558579Y00955748D01*
Y00945748D01*
X00558773Y00944773D01*
X00559023Y00944398D01*
X00558773Y00944024D01*
X00558579Y00943048D01*
Y00933048D01*
X00558773Y00932073D01*
X00559325Y00931246D01*
X00560152Y00930693D01*
X00560242Y00930675D01*
X00560278Y00923779D01*
X00574481D01*
Y00915251D01*
X00563992Y00904763D01*
X00562997Y00903274D01*
X00562648Y00901518D01*
Y00899086D01*
X00560712D01*
X00560730Y00895713D01*
X00560434Y00895515D01*
X00559881Y00894688D01*
X00559687Y00893712D01*
Y00883713D01*
X00559881Y00882737D01*
X00560131Y00882363D01*
X00559881Y00881988D01*
X00559687Y00881012D01*
Y00871013D01*
X00559881Y00870037D01*
X00560131Y00869662D01*
X00559881Y00869288D01*
X00559687Y00868313D01*
Y00858313D01*
X00559881Y00857337D01*
X00560131Y00856963D01*
X00559881Y00856588D01*
X00559687Y00855612D01*
Y00845613D01*
X00559881Y00844637D01*
X00560131Y00844262D01*
X00559881Y00843888D01*
X00559687Y00842913D01*
Y00832913D01*
X00559881Y00831937D01*
X00560434Y00831110D01*
X00561065Y00830688D01*
X00561095Y00824883D01*
X00586938D01*
Y00844109D01*
X00587291Y00844637D01*
X00587485Y00845613D01*
Y00855612D01*
X00587291Y00856588D01*
X00587041Y00856963D01*
X00587291Y00857337D01*
X00587485Y00858313D01*
Y00868313D01*
X00587291Y00869288D01*
X00587041Y00869662D01*
X00587291Y00870037D01*
X00587485Y00871013D01*
Y00881012D01*
X00587291Y00881988D01*
X00587041Y00882363D01*
X00587291Y00882737D01*
X00587485Y00883713D01*
Y00893712D01*
X00587291Y00894688D01*
X00586938Y00895217D01*
Y00899086D01*
X00577729Y00899086D01*
X00573089Y00899086D01*
X00572563Y00900356D01*
X00582313Y00910107D01*
X00583307Y00911595D01*
X00583657Y00913351D01*
Y00923779D01*
X00586120D01*
Y00931980D01*
X00586183Y00932073D01*
X00586377Y00933048D01*
Y00943048D01*
X00586183Y00944024D01*
X00586120Y00944117D01*
Y00944680D01*
X00586183Y00944773D01*
X00586377Y00945748D01*
Y00955748D01*
X00586183Y00956723D01*
X00586120Y00956817D01*
Y00957380D01*
X00586183Y00957473D01*
X00586377Y00958448D01*
Y00968448D01*
X00586183Y00969424D01*
X00586120Y00969517D01*
Y00970080D01*
X00586183Y00970173D01*
X00586377Y00971148D01*
Y00981148D01*
X00586183Y00982123D01*
X00586120Y00982217D01*
Y00982780D01*
X00586183Y00982873D01*
X00586377Y00983848D01*
Y00993848D01*
X00586183Y00994824D01*
X00586120Y00994917D01*
Y00997981D01*
X00576911Y00997982D01*
D02*
G37*
G36*
X00530178Y00812229D02*
X00530013Y00812196D01*
X00529846Y00812207D01*
X00526974Y00811829D01*
X00526658Y00811722D01*
X00526331Y00811657D01*
X00523655Y00810549D01*
X00523378Y00810363D01*
X00523079Y00810216D01*
X00520781Y00808453D01*
X00520561Y00808202D01*
X00520311Y00807982D01*
X00518548Y00805684D01*
X00518400Y00805385D01*
X00518215Y00805108D01*
X00517107Y00802432D01*
X00517041Y00802105D01*
X00516934Y00801789D01*
X00516556Y00798918D01*
X00516578Y00798585D01*
X00516556Y00798252D01*
X00516934Y00795381D01*
X00517041Y00795065D01*
X00517107Y00794738D01*
X00518215Y00792062D01*
X00518400Y00791785D01*
X00518548Y00791486D01*
X00520311Y00789188D01*
X00520561Y00788968D01*
X00520781Y00788718D01*
X00523079Y00786954D01*
X00523378Y00786807D01*
X00523655Y00786622D01*
X00526331Y00785513D01*
X00526658Y00785448D01*
X00526974Y00785341D01*
X00529846Y00784963D01*
X00530013Y00784974D01*
X00530178Y00784941D01*
X00530343Y00784974D01*
X00530511Y00784963D01*
X00533383Y00785341D01*
X00533698Y00785448D01*
X00534025Y00785513D01*
X00536701Y00786622D01*
X00536978Y00786807D01*
X00537277Y00786954D01*
X00539575Y00788718D01*
X00539795Y00788968D01*
X00540046Y00789188D01*
X00541809Y00791486D01*
X00541956Y00791785D01*
X00542142Y00792062D01*
X00543250Y00794738D01*
X00543315Y00795065D01*
X00543422Y00795381D01*
X00543800Y00798252D01*
X00543778Y00798585D01*
X00543800Y00798918D01*
X00543422Y00801789D01*
X00543315Y00802105D01*
X00543250Y00802432D01*
X00542142Y00805108D01*
X00541956Y00805385D01*
X00541809Y00805684D01*
X00540046Y00807982D01*
X00539795Y00808202D01*
X00539575Y00808453D01*
X00537277Y00810216D01*
X00536978Y00810363D01*
X00536701Y00810549D01*
X00534025Y00811657D01*
X00533698Y00811722D01*
X00533383Y00811829D01*
X00530511Y00812207D01*
X00530343Y00812196D01*
X00530178Y00812229D01*
D02*
G37*
G36*
X00930719Y00784207D02*
X00928761Y00783950D01*
X00926936Y00783194D01*
X00925369Y00781992D01*
X00924167Y00780425D01*
X00923411Y00778601D01*
X00923154Y00776643D01*
Y00771643D01*
X00923411Y00769685D01*
X00924167Y00767860D01*
X00925369Y00766294D01*
X00926936Y00765091D01*
X00928761Y00764336D01*
X00930719Y00764078D01*
X00932676Y00764336D01*
X00934501Y00765091D01*
X00936068Y00766294D01*
X00937270Y00767860D01*
X00938025Y00769685D01*
X00938283Y00771643D01*
Y00776643D01*
X00938025Y00778601D01*
X00937270Y00780425D01*
X00936068Y00781992D01*
X00934501Y00783194D01*
X00932676Y00783950D01*
X00930719Y00784207D01*
D02*
G37*
G36*
X01000718D02*
X00998761Y00783950D01*
X00996936Y00783194D01*
X00995369Y00781992D01*
X00994167Y00780425D01*
X00993411Y00778601D01*
X00993154Y00776643D01*
Y00771643D01*
X00993411Y00769685D01*
X00994167Y00767860D01*
X00995369Y00766294D01*
X00996936Y00765091D01*
X00998761Y00764336D01*
X01000718Y00764078D01*
X01002676Y00764336D01*
X01004501Y00765091D01*
X01006067Y00766294D01*
X01007270Y00767860D01*
X01008025Y00769685D01*
X01008283Y00771643D01*
Y00776643D01*
X01008025Y00778601D01*
X01007270Y00780425D01*
X01006067Y00781992D01*
X01004501Y00783194D01*
X01002676Y00783950D01*
X01000718Y00784207D01*
D02*
G37*
G36*
X01045179Y01052229D02*
X01045014Y01052196D01*
X01044846Y01052207D01*
X01041974Y01051829D01*
X01041658Y01051722D01*
X01041331Y01051657D01*
X01038656Y01050549D01*
X01038378Y01050363D01*
X01038079Y01050216D01*
X01035781Y01048453D01*
X01035562Y01048202D01*
X01035311Y01047982D01*
X01033548Y01045684D01*
X01033400Y01045385D01*
X01033215Y01045108D01*
X01032107Y01042432D01*
X01032042Y01042105D01*
X01031935Y01041789D01*
X01031556Y01038918D01*
X01031578Y01038585D01*
X01031556Y01038252D01*
X01031935Y01035381D01*
X01032042Y01035065D01*
X01032107Y01034738D01*
X01033215Y01032062D01*
X01033400Y01031785D01*
X01033548Y01031486D01*
X01035311Y01029188D01*
X01035562Y01028968D01*
X01035781Y01028718D01*
X01038079Y01026954D01*
X01038378Y01026807D01*
X01038656Y01026622D01*
X01041331Y01025513D01*
X01041658Y01025448D01*
X01041974Y01025341D01*
X01044846Y01024963D01*
X01045014Y01024974D01*
X01045179Y01024941D01*
X01045343Y01024974D01*
X01045511Y01024963D01*
X01048383Y01025341D01*
X01048699Y01025448D01*
X01049025Y01025513D01*
X01051701Y01026622D01*
X01051979Y01026807D01*
X01052278Y01026954D01*
X01054576Y01028718D01*
X01054795Y01028968D01*
X01055046Y01029188D01*
X01056809Y01031486D01*
X01056957Y01031785D01*
X01057142Y01032062D01*
X01058250Y01034738D01*
X01058315Y01035065D01*
X01058422Y01035381D01*
X01058801Y01038252D01*
X01058779Y01038585D01*
X01058801Y01038918D01*
X01058422Y01041789D01*
X01058315Y01042105D01*
X01058250Y01042432D01*
X01057142Y01045108D01*
X01056957Y01045385D01*
X01056809Y01045684D01*
X01055046Y01047982D01*
X01054795Y01048202D01*
X01054576Y01048453D01*
X01052278Y01050216D01*
X01051979Y01050363D01*
X01051701Y01050549D01*
X01049025Y01051657D01*
X01048699Y01051722D01*
X01048383Y01051829D01*
X01045511Y01052207D01*
X01045343Y01052196D01*
X01045179Y01052229D01*
D02*
G37*
G36*
X00530328Y01052397D02*
X00530163Y01052364D01*
X00529995Y01052375D01*
X00527123Y01051997D01*
X00526808Y01051890D01*
X00526481Y01051825D01*
X00523805Y01050717D01*
X00523527Y01050531D01*
X00523228Y01050384D01*
X00520931Y01048621D01*
X00520711Y01048370D01*
X00520460Y01048150D01*
X00518697Y01045853D01*
X00518549Y01045554D01*
X00518364Y01045276D01*
X00517256Y01042600D01*
X00517191Y01042273D01*
X00517084Y01041958D01*
X00516706Y01039086D01*
X00516727Y01038753D01*
X00516706Y01038421D01*
X00517084Y01035549D01*
X00517191Y01035233D01*
X00517256Y01034906D01*
X00518364Y01032230D01*
X00518549Y01031953D01*
X00518697Y01031654D01*
X00520460Y01029356D01*
X00520711Y01029137D01*
X00520931Y01028886D01*
X00523228Y01027123D01*
X00523527Y01026975D01*
X00523805Y01026790D01*
X00526481Y01025682D01*
X00526808Y01025617D01*
X00527123Y01025509D01*
X00529995Y01025131D01*
X00530163Y01025142D01*
X00530328Y01025109D01*
X00530493Y01025142D01*
X00530660Y01025131D01*
X00533532Y01025509D01*
X00533848Y01025617D01*
X00534175Y01025682D01*
X00536851Y01026790D01*
X00537128Y01026975D01*
X00537427Y01027123D01*
X00539725Y01028886D01*
X00539944Y01029137D01*
X00540195Y01029356D01*
X00541958Y01031654D01*
X00542106Y01031953D01*
X00542291Y01032230D01*
X00543399Y01034906D01*
X00543465Y01035233D01*
X00543572Y01035549D01*
X00543950Y01038421D01*
X00543928Y01038754D01*
X00543950Y01039086D01*
X00543572Y01041958D01*
X00543465Y01042273D01*
X00543399Y01042600D01*
X00542291Y01045276D01*
X00542106Y01045554D01*
X00541958Y01045853D01*
X00540195Y01048150D01*
X00539944Y01048370D01*
X00539725Y01048621D01*
X00537427Y01050384D01*
X00537128Y01050531D01*
X00536851Y01050717D01*
X00534175Y01051825D01*
X00533848Y01051890D01*
X00533532Y01051997D01*
X00530660Y01052375D01*
X00530493Y01052364D01*
X00530328Y01052397D01*
D02*
G37*
G36*
X01005699Y01072687D02*
X00995699D01*
X00994723Y01072493D01*
X00994349Y01072243D01*
X00993974Y01072493D01*
X00992999Y01072687D01*
X00982999D01*
X00982023Y01072493D01*
X00981649Y01072243D01*
X00981274Y01072493D01*
X00980299Y01072687D01*
X00970299D01*
X00969323Y01072493D01*
X00968949Y01072243D01*
X00968574Y01072493D01*
X00967599Y01072687D01*
X00957599D01*
X00956623Y01072493D01*
X00956249Y01072243D01*
X00955874Y01072493D01*
X00954899Y01072687D01*
X00944899D01*
X00943923Y01072493D01*
X00943096Y01071940D01*
X00942544Y01071113D01*
X00942539Y01071088D01*
X00938161D01*
X00938161Y01061879D01*
X00938161Y01044863D01*
X00957235Y01044961D01*
X00957599Y01044889D01*
X00967599D01*
X00968248Y01045018D01*
X00969614Y01045025D01*
X00970299Y01044889D01*
X00980299D01*
X00981274Y01045083D01*
X00981278Y01045085D01*
X00982014Y01045089D01*
X00982023Y01045083D01*
X00982999Y01044889D01*
X00992999D01*
X00993974Y01045083D01*
X00994076Y01045151D01*
X00994617Y01045154D01*
X00994723Y01045083D01*
X00995699Y01044889D01*
X01005699D01*
X01006674Y01045083D01*
X01006875Y01045217D01*
X01012364Y01045246D01*
Y01059694D01*
X01013634Y01060219D01*
X01017602Y01056252D01*
Y01023144D01*
X01017951Y01021388D01*
X01018946Y01019900D01*
X01035644Y01003202D01*
X01035158Y01002029D01*
X01020801D01*
Y00988517D01*
X01020365Y00988081D01*
X01020801Y00987209D01*
X01021237Y00986773D01*
X01021865D01*
X01022391Y00986422D01*
Y00976904D01*
X01020959D01*
X01020923Y00976897D01*
X01018507D01*
Y00974840D01*
X01018410Y00974355D01*
Y00968355D01*
X01018507Y00967871D01*
Y00949571D01*
X01033412D01*
X01033412Y00949571D01*
Y00967870D01*
X01033508Y00968355D01*
Y00974355D01*
X01033412Y00974840D01*
Y00976897D01*
X01030996D01*
X01030959Y00976904D01*
X01029528D01*
Y00986116D01*
X01029533D01*
X01030508Y00986310D01*
X01031201Y00986773D01*
X01036865D01*
X01036945Y00986720D01*
Y00952367D01*
X01037294Y00950611D01*
X01038289Y00949123D01*
X01046210Y00941201D01*
Y00914793D01*
X01043329D01*
Y00916552D01*
X01042980Y00918308D01*
X01041985Y00919797D01*
X00997101Y00964681D01*
X00995612Y00965675D01*
X00993857Y00966025D01*
X00955920D01*
X00954164Y00965675D01*
X00952675Y00964681D01*
X00945521Y00957527D01*
X00945230Y00957498D01*
X00944934Y00957795D01*
Y00957523D01*
X00944117Y00956706D01*
Y00955998D01*
X00943661Y00955316D01*
X00943467Y00954340D01*
Y00953428D01*
X00937696D01*
X00935940Y00953079D01*
X00934452Y00952085D01*
X00934090Y00951723D01*
X00932803D01*
Y00953298D01*
X00917898D01*
Y00951429D01*
X00917685Y00951110D01*
X00917491Y00950135D01*
Y00944135D01*
X00917685Y00943159D01*
X00917898Y00942840D01*
Y00926575D01*
X00917788Y00925881D01*
X00916952Y00925191D01*
X00915751Y00924952D01*
X00914097Y00923847D01*
X00912992Y00922193D01*
X00912604Y00920242D01*
X00912613Y00920199D01*
X00906629Y00914216D01*
X00906377Y00914259D01*
X00905380Y00915703D01*
X00905508Y00916348D01*
X00905120Y00918299D01*
X00904015Y00919953D01*
X00902361Y00921058D01*
X00900410Y00921446D01*
X00899893Y00921343D01*
X00898912Y00922149D01*
X00898912Y00927092D01*
X00898976Y00927415D01*
Y00933416D01*
X00898912Y00933739D01*
X00898912Y00940322D01*
X00881294Y00940322D01*
X00880615Y00941592D01*
X00881020Y00942198D01*
X00881427Y00944246D01*
X00881020Y00946294D01*
X00880366Y00947272D01*
X00879951Y00948246D01*
X00880366Y00949220D01*
X00881020Y00950198D01*
X00881427Y00952246D01*
X00881020Y00954294D01*
X00880366Y00955272D01*
X00879951Y00956246D01*
X00880366Y00957220D01*
X00880772Y00957827D01*
X00909923Y00957827D01*
Y00972210D01*
X00909534Y00972599D01*
X00909171Y00973143D01*
X00908344Y00973695D01*
X00907368Y00973889D01*
X00901368D01*
X00900393Y00973695D01*
X00899566Y00973143D01*
X00899526Y00973082D01*
X00894211D01*
X00894171Y00973143D01*
X00893344Y00973695D01*
X00892368Y00973889D01*
X00886368D01*
X00885393Y00973695D01*
X00884566Y00973143D01*
X00884526Y00973082D01*
X00878657D01*
Y00986756D01*
X00864392D01*
X00863939Y00987691D01*
X00864607Y00988858D01*
X00877730D01*
X00879095Y00989129D01*
X00880253Y00989903D01*
X00882977Y00992627D01*
X00883751Y00993785D01*
X00884023Y00995151D01*
Y01000736D01*
X00899784D01*
X00900056Y01000463D01*
Y01016306D01*
X00900528Y01016400D01*
X00901355Y01016952D01*
X00901907Y01017779D01*
X00902101Y01018755D01*
Y01020686D01*
X00904565D01*
Y01004345D01*
X00918948D01*
X00919820Y01005217D01*
Y01020675D01*
X00919946Y01021310D01*
Y01027310D01*
X00919820Y01027944D01*
Y01030062D01*
X00906308D01*
X00905872Y01030498D01*
X00905001Y01030062D01*
X00904565Y01029626D01*
Y01027823D01*
X00902101D01*
Y01029754D01*
X00901907Y01030730D01*
X00901355Y01031557D01*
X00900528Y01032109D01*
X00899552Y01032303D01*
X00887552D01*
X00886577Y01032109D01*
X00885750Y01031557D01*
X00885530Y01031227D01*
X00863531D01*
X00862486Y01031228D01*
X00861942Y01031772D01*
X00862214Y01030955D01*
X00862486Y01030683D01*
X00862486Y01029958D01*
Y01015322D01*
X00861251Y01014104D01*
X00857853D01*
X00857773Y01014511D01*
X00857323Y01015183D01*
Y01031696D01*
X00843811D01*
X00843376Y01032132D01*
X00842504Y01031696D01*
X00842068Y01031260D01*
Y01005980D01*
X00843450D01*
X00843615Y01005733D01*
X00844442Y01005181D01*
X00845418Y01004987D01*
X00855418D01*
X00856393Y01005181D01*
X00857220Y01005733D01*
X00857773Y01006560D01*
X00857853Y01006967D01*
X00861123D01*
Y01004569D01*
X00859224Y01002670D01*
X00846059D01*
X00844693Y01002398D01*
X00843535Y01001625D01*
X00840051Y00998140D01*
X00839413Y00997185D01*
X00838512Y00997262D01*
X00838143Y00997397D01*
Y01024960D01*
X00837871Y01026325D01*
X00837098Y01027483D01*
X00832087Y01032493D01*
X00830930Y01033267D01*
X00829564Y01033539D01*
X00676889D01*
X00675524Y01033267D01*
X00674366Y01032493D01*
X00624796Y00982924D01*
X00624023Y00981766D01*
X00623751Y00980400D01*
Y00786859D01*
X00563284D01*
Y00761396D01*
X00564526Y00760154D01*
X00716060D01*
Y00784374D01*
X00714197Y00786238D01*
Y00786238D01*
X00713319Y00785874D01*
X00712334Y00786859D01*
X00697109D01*
X00696143Y00788129D01*
X00696244Y00788635D01*
Y00811053D01*
X00696553Y00811260D01*
X00697658Y00812914D01*
X00698004Y00814655D01*
X00698224Y00814845D01*
X00699174Y00815545D01*
X00699174Y00815545D01*
Y00815546D01*
X00700772D01*
X00700945Y00815430D01*
X00701920Y00815236D01*
X00711920D01*
X00712896Y00815430D01*
X00713069Y00815546D01*
X00713557D01*
X00714429Y00816417D01*
Y00817584D01*
X00714469Y00817785D01*
Y00823785D01*
X00714429Y00823986D01*
Y00832584D01*
X00714469Y00832785D01*
Y00838785D01*
X00714429Y00838986D01*
Y00841262D01*
X00712283D01*
X00711920Y00841334D01*
X00711507D01*
Y00844336D01*
X00711909Y00844937D01*
X00712297Y00846888D01*
X00711909Y00848839D01*
X00711507Y00849440D01*
Y00893819D01*
X00723139Y00905450D01*
X00724464D01*
X00724812Y00905381D01*
X00730812D01*
X00731161Y00905450D01*
X00738895D01*
Y00897246D01*
X00738360Y00897140D01*
X00738258Y00897072D01*
X00731413D01*
X00731311Y00897140D01*
X00730336Y00897334D01*
X00724336D01*
X00723360Y00897140D01*
X00723258Y00897072D01*
X00721595D01*
Y00883560D01*
X00721159Y00883124D01*
X00721595Y00882252D01*
X00722031Y00881816D01*
X00723767D01*
Y00796142D01*
X00724039Y00794776D01*
X00724812Y00793618D01*
X00744776Y00773655D01*
X00745934Y00772881D01*
X00747299Y00772609D01*
X00844628D01*
X00845994Y00772881D01*
X00847152Y00773655D01*
X00864793Y00791296D01*
X00865009Y00791253D01*
X00866960Y00791641D01*
X00868614Y00792746D01*
X00869719Y00794400D01*
X00870107Y00796350D01*
X00869719Y00798301D01*
X00868614Y00799955D01*
X00866960Y00801060D01*
X00865009Y00801448D01*
X00863058Y00801060D01*
X00861404Y00799955D01*
X00860299Y00798301D01*
X00859950Y00796547D01*
X00843150Y00779747D01*
X00748778D01*
X00730904Y00797620D01*
Y00881816D01*
X00747311D01*
Y00883242D01*
X00747690Y00883809D01*
X00747884Y00884785D01*
Y00894785D01*
X00747690Y00895760D01*
X00747138Y00896587D01*
X00746492Y00897019D01*
X00746439Y00897072D01*
X00746413D01*
X00746311Y00897140D01*
X00746032Y00897195D01*
Y00902924D01*
X00747302Y00903602D01*
X00747432Y00903515D01*
X00748798Y00903244D01*
X00774816D01*
X00776181Y00903515D01*
X00777339Y00904289D01*
X00781422Y00908372D01*
X00782553Y00907617D01*
Y00899155D01*
X00782110Y00898491D01*
X00781721Y00896540D01*
X00782110Y00894589D01*
X00782231Y00894407D01*
Y00885561D01*
X00781736D01*
Y00884216D01*
X00781713Y00884182D01*
X00781519Y00883206D01*
Y00873206D01*
X00781713Y00872231D01*
X00781736Y00872196D01*
Y00872049D01*
X00781300Y00871613D01*
X00781736Y00870742D01*
X00782172Y00870306D01*
X00807452D01*
X00808469Y00869696D01*
Y00843689D01*
X00783662Y00818882D01*
X00772459D01*
Y00827737D01*
X00787632D01*
Y00842121D01*
X00786760Y00842992D01*
X00772459D01*
Y00850853D01*
X00773260Y00851388D01*
X00774366Y00853042D01*
X00774754Y00854993D01*
X00774366Y00856944D01*
X00773260Y00858598D01*
X00771607Y00859703D01*
X00769656Y00860091D01*
X00767705Y00859703D01*
X00766051Y00858598D01*
X00764946Y00856944D01*
X00764558Y00854993D01*
X00764946Y00853042D01*
X00765322Y00852479D01*
Y00842992D01*
X00761916D01*
Y00841545D01*
X00761689Y00841205D01*
X00761495Y00840229D01*
Y00830229D01*
X00761689Y00829254D01*
X00761689Y00829253D01*
X00761480Y00829045D01*
X00761916Y00828173D01*
X00762352Y00827737D01*
X00763757D01*
X00764043Y00827680D01*
X00765322D01*
Y00818882D01*
X00762461D01*
Y00817434D01*
X00762370Y00817298D01*
X00762176Y00816323D01*
Y00806323D01*
X00762370Y00805347D01*
X00762397Y00805306D01*
X00762025Y00804934D01*
X00762461Y00804062D01*
X00762897Y00803626D01*
X00786975D01*
X00787793Y00803626D01*
X00788419Y00802457D01*
X00784432Y00798469D01*
X00784423Y00798463D01*
X00780909Y00794949D01*
X00780903Y00794940D01*
X00776459Y00790496D01*
X00758144D01*
X00747789Y00800852D01*
Y00851589D01*
X00747825Y00851613D01*
X00748930Y00853267D01*
X00749318Y00855218D01*
X00748930Y00857169D01*
X00747825Y00858823D01*
X00746171Y00859928D01*
X00744220Y00860316D01*
X00742269Y00859928D01*
X00740615Y00858823D01*
X00739510Y00857169D01*
X00739122Y00855218D01*
X00739510Y00853267D01*
X00740615Y00851613D01*
X00740651Y00851589D01*
Y00799374D01*
X00740923Y00798008D01*
X00741697Y00796850D01*
X00754143Y00784404D01*
X00755300Y00783631D01*
X00756666Y00783359D01*
X00777937D01*
X00779303Y00783631D01*
X00780460Y00784404D01*
X00785955Y00789899D01*
X00785961Y00789908D01*
X00789464Y00793411D01*
X00789473Y00793417D01*
X00820657Y00824601D01*
X00821431Y00825759D01*
X00821703Y00827124D01*
Y00864516D01*
X00845525D01*
Y00866111D01*
X00845564Y00866169D01*
X00845758Y00867145D01*
Y00877145D01*
X00845564Y00878120D01*
X00845525Y00878178D01*
Y00878900D01*
X00844653Y00879772D01*
X00839800D01*
X00838143Y00881429D01*
Y00883674D01*
X00839413Y00884299D01*
X00840567Y00883528D01*
X00842518Y00883140D01*
X00844469Y00883528D01*
X00846123Y00884633D01*
X00847228Y00886287D01*
X00847616Y00888238D01*
X00847468Y00888980D01*
X00848526Y00889801D01*
X00850574Y00889393D01*
X00852623Y00889801D01*
X00852883Y00889974D01*
X00854003Y00889376D01*
Y00881014D01*
X00854352Y00879258D01*
X00855347Y00877769D01*
X00865560Y00867556D01*
X00865034Y00866286D01*
X00849641D01*
Y00852774D01*
X00849205Y00852338D01*
X00849641Y00851467D01*
X00850077Y00851031D01*
X00865854D01*
Y00830178D01*
X00857504Y00821829D01*
X00857289Y00821786D01*
X00855636Y00820681D01*
X00854530Y00819027D01*
X00854142Y00817076D01*
X00854530Y00815125D01*
X00855636Y00813472D01*
X00857289Y00812366D01*
X00859240Y00811978D01*
X00861191Y00812366D01*
X00862845Y00813472D01*
X00863950Y00815125D01*
X00863993Y00815340D01*
X00873686Y00825034D01*
X00874681Y00826522D01*
X00875030Y00828278D01*
Y00851031D01*
X00875357D01*
Y00852728D01*
X00875600Y00853092D01*
X00875795Y00854068D01*
Y00864068D01*
X00875600Y00865043D01*
X00875512Y00865175D01*
Y00866547D01*
X00875634Y00866729D01*
X00876022Y00868680D01*
X00875634Y00870631D01*
X00874529Y00872285D01*
X00872875Y00873390D01*
X00872660Y00873433D01*
X00863179Y00882914D01*
Y00892188D01*
X00863520Y00892698D01*
X00863600Y00893102D01*
X00876892D01*
X00878965Y00891029D01*
X00880123Y00890255D01*
X00881489Y00889984D01*
X00882950D01*
X00883367Y00888714D01*
X00883226Y00888573D01*
X00883662Y00887701D01*
X00884098Y00887265D01*
X00909378D01*
Y00888690D01*
X00909553Y00888952D01*
X00909747Y00889927D01*
Y00899927D01*
X00909553Y00900903D01*
X00909378Y00901165D01*
Y00901648D01*
X00909257Y00901769D01*
Y00906750D01*
X00917659Y00915153D01*
X00917702Y00915144D01*
X00919653Y00915532D01*
X00921307Y00916637D01*
X00922412Y00918291D01*
X00922800Y00920242D01*
X00922412Y00922193D01*
X00921307Y00923847D01*
X00920027Y00924702D01*
X00920413Y00925972D01*
X00932803D01*
X00932803Y00925972D01*
Y00942546D01*
X00935990D01*
X00937746Y00942896D01*
X00939234Y00943890D01*
X00939596Y00944252D01*
X00943467D01*
Y00943340D01*
X00943661Y00942365D01*
X00944117Y00941682D01*
Y00931998D01*
X00943661Y00931315D01*
X00943467Y00930340D01*
Y00919340D01*
X00943661Y00918364D01*
X00944177Y00917591D01*
Y00917117D01*
X00943940Y00915924D01*
Y00914916D01*
X00939739D01*
Y00912231D01*
X00939601Y00911540D01*
Y00901540D01*
X00939647Y00901312D01*
X00939303Y00900968D01*
X00939739Y00900097D01*
X00940175Y00899661D01*
X00940463D01*
X00941175Y00899185D01*
X00942150Y00898991D01*
X00943940D01*
Y00856360D01*
X00944290Y00854604D01*
X00945284Y00853116D01*
X00948130Y00850269D01*
Y00811700D01*
X00932357D01*
X00931183Y00811700D01*
X00930009Y00811700D01*
X00929388Y00812321D01*
X00928766Y00812321D01*
X00930630Y00810458D01*
X00930630Y00810430D01*
Y00791206D01*
X01001428D01*
Y00811700D01*
X00957307D01*
Y00852170D01*
X00956957Y00853926D01*
X00955963Y00855414D01*
X00953117Y00858260D01*
Y00899661D01*
X00965455D01*
Y00914044D01*
X00964583Y00914916D01*
X00954401D01*
X00953354Y00916161D01*
Y00917591D01*
X00953871Y00918364D01*
X00953965Y00918837D01*
X00962567D01*
X00962661Y00918364D01*
X00963214Y00917538D01*
X00964041Y00916985D01*
X00965016Y00916791D01*
X00970516D01*
X00971491Y00916985D01*
X00972318Y00917538D01*
X00972871Y00918364D01*
X00972965Y00918837D01*
X00973792D01*
Y00928084D01*
X00974965Y00928570D01*
X00975847Y00927688D01*
X00977005Y00926915D01*
X00978370Y00926643D01*
X00984049D01*
Y00909809D01*
X00998432D01*
X00999304Y00910681D01*
Y00925759D01*
X00999623Y00926236D01*
X00999817Y00927212D01*
Y00933212D01*
X00999623Y00934187D01*
X00999304Y00934664D01*
Y00935525D01*
X00998305D01*
X00998244Y00935566D01*
X00997268Y00935760D01*
X00987268D01*
X00986293Y00935566D01*
X00986231Y00935525D01*
X00985792D01*
X00985356Y00935961D01*
X00984485Y00935525D01*
X00984049Y00935089D01*
Y00933780D01*
X00979849D01*
X00973792Y00939837D01*
Y00956706D01*
X00975003Y00956848D01*
X00991956D01*
X01032838Y00915966D01*
X01032352Y00914793D01*
X01027690D01*
X01026580Y00914793D01*
X01025959Y00915414D01*
X01026580Y00914172D01*
X01024717Y00912309D01*
Y00854827D01*
X01020630D01*
Y00855239D01*
X01020436Y00856214D01*
X01020370Y00856314D01*
Y00856415D01*
X01020302D01*
X01019884Y00857041D01*
X01019057Y00857594D01*
X01018082Y00857787D01*
X01012082D01*
X01011106Y00857594D01*
X01010279Y00857041D01*
X01009861Y00856415D01*
X00993044D01*
Y00841510D01*
X00993044Y00841510D01*
X01020370D01*
Y00844164D01*
X01020436Y00844263D01*
X01020630Y00845239D01*
Y00845650D01*
X01024717D01*
Y00838405D01*
X01048938D01*
X01050801Y00836542D01*
X01052043Y00837784D01*
Y00883400D01*
X01054042Y00885400D01*
X01055037Y00886888D01*
X01055386Y00888644D01*
Y00943102D01*
X01055037Y00944858D01*
X01054042Y00946346D01*
X01046121Y00954267D01*
Y00986720D01*
X01046201Y00986773D01*
X01046517D01*
Y00987134D01*
X01046888Y00987690D01*
X01047082Y00988665D01*
Y00998665D01*
X01046888Y00999641D01*
X01046517Y01000196D01*
Y01001157D01*
X01046121Y01001553D01*
Y01003801D01*
X01045772Y01005557D01*
X01044777Y01007045D01*
X01026778Y01025044D01*
Y01058152D01*
X01026429Y01059908D01*
X01025435Y01061396D01*
X01017943Y01068889D01*
X01016454Y01069883D01*
X01014698Y01070232D01*
X01012364D01*
Y01071088D01*
X01008059D01*
X01008054Y01071113D01*
X01007501Y01071940D01*
X01006674Y01072493D01*
X01005699Y01072687D01*
D02*
G37*
%LPD*%
G36*
X00687810Y00814897D02*
X00687863Y00814799D01*
X00687865Y00814791D01*
X00688238Y00812914D01*
X00689107Y00811613D01*
Y00790113D01*
X00685852Y00786859D01*
X00672205D01*
X00671719Y00788032D01*
X00684005Y00800318D01*
X00684779Y00801476D01*
X00685051Y00802842D01*
Y00815685D01*
X00686306D01*
X00686735Y00815770D01*
X00687810Y00814897D01*
D02*
G37*
G36*
X00782553Y00947617D02*
Y00940875D01*
X00781566Y00940216D01*
X00780461Y00940954D01*
X00778510Y00941342D01*
X00776559Y00940954D01*
X00774905Y00939849D01*
X00773800Y00938195D01*
X00773531Y00936840D01*
X00772810Y00935985D01*
X00772219Y00935731D01*
X00762596D01*
X00761621Y00935537D01*
X00761277Y00935307D01*
X00761099Y00935484D01*
X00760227Y00935049D01*
X00759791Y00934613D01*
Y00910381D01*
X00750276D01*
X00748361Y00912296D01*
Y00917930D01*
X00748196Y00918758D01*
Y00919834D01*
X00747325Y00920705D01*
X00732408D01*
Y00936381D01*
X00740910Y00944882D01*
X00742083Y00944396D01*
Y00933035D01*
X00756467D01*
X00757338Y00933906D01*
Y00947658D01*
X00782491D01*
X00782553Y00947617D01*
D02*
G37*
G36*
X00723232Y00935220D02*
Y00920705D01*
X00722480D01*
Y00918940D01*
X00722457Y00918905D01*
X00722263Y00917930D01*
Y00917552D01*
X00703675Y00898963D01*
X00702680Y00897475D01*
X00702331Y00895719D01*
Y00848043D01*
X00702101Y00846888D01*
X00702331Y00845733D01*
Y00841334D01*
X00701920D01*
X00701557Y00841262D01*
X00700917D01*
X00700481Y00841697D01*
X00699610Y00841262D01*
X00699465Y00841117D01*
X00688479D01*
Y00841670D01*
X00686874D01*
X00686306Y00841783D01*
X00685894D01*
Y00847974D01*
X00686368Y00848683D01*
X00686756Y00850634D01*
X00686368Y00852585D01*
X00685263Y00854239D01*
X00683609Y00855344D01*
X00681658Y00855732D01*
X00679707Y00855344D01*
X00678053Y00854239D01*
X00676948Y00852585D01*
X00676560Y00850634D01*
X00676718Y00849840D01*
Y00841783D01*
X00676306D01*
X00675739Y00841670D01*
X00674967D01*
X00674532Y00842106D01*
X00674289Y00841985D01*
X00673019Y00842722D01*
Y00886666D01*
X00722059Y00935706D01*
X00723232Y00935220D01*
D02*
G37*
G36*
X00814565Y00837895D02*
Y00828603D01*
X00789346Y00803384D01*
X00788177Y00804010D01*
X00788177Y00804737D01*
Y00805837D01*
X00788274Y00806323D01*
Y00813400D01*
X00813295Y00838421D01*
X00814565Y00837895D01*
D02*
G37*
G36*
X00831006Y01023481D02*
Y00990627D01*
X00829770Y00989966D01*
X00829601Y00990038D01*
X00828623Y00990691D01*
X00826574Y00991099D01*
X00824526Y00990691D01*
X00823245Y00989835D01*
X00821975Y00990424D01*
Y00992378D01*
X00823253Y00993657D01*
X00824027Y00994815D01*
X00824298Y00996180D01*
Y00997999D01*
X00824705Y00998080D01*
X00824908Y00998216D01*
X00826114D01*
Y00999607D01*
X00826279Y01000435D01*
Y01010435D01*
X00826114Y01011264D01*
Y01012599D01*
X00825242Y01013471D01*
X00800398D01*
Y01011445D01*
X00800375Y01011411D01*
X00800181Y01010435D01*
Y01000435D01*
X00800296Y00999857D01*
X00799962Y00999523D01*
X00800398Y00998652D01*
X00800834Y00998216D01*
X00801552D01*
X00801754Y00998080D01*
X00802161Y00997999D01*
Y00995138D01*
X00800967Y00993944D01*
X00800809Y00993708D01*
X00799174Y00993548D01*
X00797568Y00995154D01*
X00796410Y00995928D01*
X00795044Y00996199D01*
X00745359D01*
X00744376Y00996856D01*
X00742425Y00997244D01*
X00740474Y00996856D01*
X00738820Y00995751D01*
X00737715Y00994097D01*
X00737327Y00992146D01*
X00737715Y00990195D01*
X00738820Y00988541D01*
X00740474Y00987436D01*
X00742425Y00987048D01*
X00744376Y00987436D01*
X00746030Y00988541D01*
X00746377Y00989062D01*
X00782553D01*
Y00965209D01*
X00742947D01*
X00741581Y00964938D01*
X00740423Y00964164D01*
X00666927Y00890667D01*
X00666153Y00889510D01*
X00665882Y00888144D01*
Y00826239D01*
X00666153Y00824873D01*
X00666927Y00823715D01*
X00671899Y00818743D01*
X00673056Y00817970D01*
X00673224Y00817936D01*
Y00815954D01*
X00675219D01*
X00675331Y00815879D01*
X00676306Y00815685D01*
X00677913D01*
Y00804320D01*
X00660452Y00786859D01*
X00630888D01*
Y00978922D01*
X00678367Y01026401D01*
X00828086D01*
X00831006Y01023481D01*
D02*
G37*
D10*
X00767725Y00811323D02*
D03*
X00782725D02*
D03*
X00782043Y00835229D02*
D03*
X00767043D02*
D03*
X00825209Y00872145D02*
D03*
X00855246Y00859068D02*
D03*
X00870246D02*
D03*
X00840209Y00872145D02*
D03*
X00889198Y00894927D02*
D03*
X00904198D02*
D03*
X00945150Y00906540D02*
D03*
X00960150D02*
D03*
X01000082Y00850239D02*
D03*
X01015081D02*
D03*
X00904368Y00966340D02*
D03*
X00889368D02*
D03*
X00820730Y01005435D02*
D03*
X00805730D02*
D03*
X00727812Y00912930D02*
D03*
X00727336Y00889785D02*
D03*
X00742335D02*
D03*
X00742812Y00912930D02*
D03*
X00787068Y00878206D02*
D03*
X00802068D02*
D03*
X01026533Y00993665D02*
D03*
X01041533D02*
D03*
D11*
X00706920Y00820785D02*
D03*
Y00835785D02*
D03*
X00681306Y00836234D02*
D03*
Y00821234D02*
D03*
X00767596Y00915182D02*
D03*
Y00930182D02*
D03*
X00749207Y00952318D02*
D03*
Y00937318D02*
D03*
X00850418Y01010536D02*
D03*
Y01025536D02*
D03*
X00912397Y01009310D02*
D03*
Y01024310D02*
D03*
X00925040Y00947134D02*
D03*
Y00932135D02*
D03*
X00891427Y00930415D02*
D03*
Y00915415D02*
D03*
X00992268Y00915211D02*
D03*
Y00930211D02*
D03*
X01025959Y00956355D02*
D03*
Y00971355D02*
D03*
D12*
X00872075Y00912246D02*
D03*
Y00920246D02*
D03*
Y00928246D02*
D03*
Y00936246D02*
D03*
Y00944246D02*
D03*
Y00952246D02*
D03*
Y00960246D02*
D03*
Y00968246D02*
D03*
X00789074D02*
D03*
Y00960246D02*
D03*
Y00952246D02*
D03*
Y00944246D02*
D03*
Y00936246D02*
D03*
Y00928246D02*
D03*
Y00920246D02*
D03*
Y00912246D02*
D03*
D13*
X00842574Y00898746D02*
D03*
X00850574D02*
D03*
X00858574D02*
D03*
X00834574D02*
D03*
X00826574D02*
D03*
X00818574D02*
D03*
X00810574D02*
D03*
X00802574D02*
D03*
X00842574Y00981746D02*
D03*
X00850574D02*
D03*
X00858574D02*
D03*
X00834574D02*
D03*
X00826574D02*
D03*
X00818574D02*
D03*
X00810574D02*
D03*
X00802574D02*
D03*
D14*
X00948766Y00924840D02*
D03*
X00958266D02*
D03*
X00967766D02*
D03*
Y00948840D02*
D03*
X00948766D02*
D03*
D15*
X00893552Y01006475D02*
D03*
Y01024255D02*
D03*
X00869672Y01024284D02*
D03*
Y01006475D02*
D03*
D16*
X00952718Y00801143D02*
D03*
X00959218D02*
D03*
X00965718D02*
D03*
X00972218D02*
D03*
X00978718D02*
D03*
D17*
X00629920Y00760984D02*
X00640842Y00771906D01*
Y00869442D01*
X00732656Y00961256D01*
Y00985479D01*
X00720601Y00997535D01*
X00732724Y00968384D02*
X00732862Y00968246D01*
X00789074D01*
X00802574Y00981746D02*
Y00985101D01*
X00803490Y00984185D01*
Y00991421D01*
X00805730Y00993660D01*
Y01005435D01*
X00795044Y00992631D02*
X00802574Y00985101D01*
X00787680Y00961641D02*
X00789074Y00960246D01*
X00787680Y00961641D02*
X00742947D01*
X00669450Y00888144D01*
Y00826239D01*
X00674422Y00821267D01*
X00680620D01*
X00681482Y00820313D02*
Y00802842D01*
X00652719Y00774079D01*
X00678120D02*
X00692676Y00788635D01*
Y00815104D01*
X00698090Y00820518D01*
X00708431D01*
X00727336Y00796142D02*
X00747299Y00776178D01*
X00844628D01*
X00864993Y00796543D01*
X00855730Y00859544D02*
X00837809D01*
X00825209Y00872145D01*
X00824332Y00872281D02*
X00824536Y00872485D01*
X00824332Y00872281D02*
Y00824840D01*
X00789432Y00789940D01*
X00818134Y00827124D02*
Y00879773D01*
X00826852Y00888491D01*
Y00898980D01*
X00834574Y00898746D02*
Y00879951D01*
X00840269Y00874256D01*
X00842518Y00888238D02*
X00842574Y00888294D01*
Y00898746D01*
X00850574D02*
Y00909320D01*
X00850646D01*
X00872075Y00912246D02*
Y00902966D01*
X00881489Y00893552D01*
X00887823D01*
X00887980Y00893395D01*
X00888968D01*
X00905689Y00894110D02*
Y00908229D01*
X00917702Y00920242D01*
X00919019Y00932135D02*
X00925040D01*
X00919019D02*
X00916484Y00934669D01*
X00913010D01*
X00906277D01*
X00903621Y00937326D01*
X00873154D01*
X00872075Y00936246D01*
X00866900Y00936985D02*
X00861822Y00931907D01*
Y00925172D01*
X00866748Y00920246D01*
X00872075D01*
X00866748D02*
X00812550D01*
X00802574Y00910270D01*
Y00939671D01*
X00798000Y00944246D01*
X00789074D01*
X00788642Y00944409D02*
X00787212Y00942979D01*
X00756699D01*
X00753157Y00939437D01*
Y00937598D01*
X00750773Y00937870D02*
X00749888Y00936985D01*
Y00924317D01*
X00759423Y00914781D01*
X00769095D01*
X00778510Y00920242D02*
X00778514Y00920246D01*
X00789074D01*
Y00929131D02*
X00767801D01*
X00778510Y00936244D02*
X00778512Y00936246D01*
X00789074D01*
Y00912246D02*
X00780249D01*
X00774816Y00906812D01*
X00748798D01*
X00743622Y00911989D01*
X00742464D02*
Y00888900D01*
X00744220Y00855218D02*
Y00799374D01*
X00756666Y00786928D01*
X00777937D01*
X00783432Y00792422D01*
Y00792425D01*
X00786947Y00795940D01*
X00786949D01*
X00818134Y00827124D01*
X00812038Y00842211D02*
Y00893379D01*
X00810574Y00894842D01*
Y00898746D01*
X00802574D02*
Y00910270D01*
Y00898746D02*
Y00878070D01*
X00802068Y00878206D02*
Y00854308D01*
X00782580Y00834820D01*
X00782182Y00813424D02*
X00783251D01*
X00812038Y00842211D01*
X00768890Y00854228D02*
X00769656Y00854993D01*
X00768890Y00854228D02*
Y00811323D01*
Y00811323D01*
X00727336Y00796142D02*
Y00889785D01*
X00818406Y00982346D02*
Y00993857D01*
X00820730Y00996180D01*
Y01005435D01*
X00834574Y00981746D02*
Y01024960D01*
X00829564Y01029970D01*
X00676889D01*
X00627319Y00980400D01*
Y00774079D01*
X00629920Y00760984D02*
X00589615D01*
X00576520Y00774079D01*
X00795044Y00992631D02*
X00742260D01*
X00850758Y00990042D02*
X00853142Y00992426D01*
X00877730D01*
X00880454Y00995151D01*
Y01011565D01*
X00888831Y01019943D01*
X00890875D01*
X00893552Y01024255D02*
X00912104D01*
X00912397Y01009310D02*
X00893659D01*
X00892782Y01008432D01*
X00913215Y01009454D02*
Y00994810D01*
X00934582Y00973444D01*
X00934601Y00973424D01*
X00934582Y00973444D02*
X00934834Y00973696D01*
X00949858D01*
X00949899Y00973737D01*
Y01052438D01*
X00915599Y01038400D02*
X00924249Y01029750D01*
Y01017286D01*
X00915394Y01008432D01*
X00934582Y00973444D02*
X00913010Y00951872D01*
Y00934669D01*
X00913010Y00934669D01*
X00889645Y00929697D02*
X00882831D01*
X00881380Y00928246D01*
X00872075D01*
X00892926Y00916416D02*
X00900342D01*
X00900410Y00916348D01*
X00958530Y00907727D02*
X00966013Y00915211D01*
X00992268D01*
X01005482D01*
X00992268D02*
Y00886400D01*
X01000082Y00878586D01*
Y00850239D01*
Y00836823D01*
X00978941Y00815682D01*
Y00801174D01*
X00958530Y00907727D02*
Y00915924D01*
X00958266Y00916188D01*
Y00924840D01*
X00978370Y00930211D02*
X00992268D01*
X01025959Y00946339D02*
Y00956355D01*
X01023874D01*
X01006533Y00973696D01*
X00949858D01*
X00967766Y00948840D02*
Y00940816D01*
X00978370Y00930211D01*
X01025959Y00971355D02*
Y00993482D01*
X00915599Y01038400D02*
X00877934D01*
X00869672Y01030139D01*
Y01025536D01*
X00850418D01*
Y01010536D02*
X00868815D01*
X00869557Y01009794D01*
X00868194Y01006593D02*
X00860702Y00999101D01*
X00846059D01*
X00842574Y00995617D01*
Y00981746D01*
X00850758Y00981052D02*
Y00990042D01*
X00872075Y00968246D02*
X00889511D01*
X00889513Y00968247D01*
X00869672Y01024284D02*
Y01025536D01*
D18*
X00706919Y00835502D02*
Y00836529D01*
Y00895719D01*
X00727820Y00916620D01*
Y00938281D01*
X00742666Y00953127D01*
X00751522D01*
X00751046Y00952246D02*
X00789074D01*
X00826516D01*
X00834516Y00944246D01*
X00864288D01*
X00872075D01*
X00864288D02*
X00858574Y00949960D01*
Y00981746D01*
X00818574Y00909266D02*
Y00898746D01*
X00858591Y00881014D02*
Y00897277D01*
Y00881014D02*
X00870924Y00868680D01*
Y00859414D01*
X00870442Y00858931D01*
Y00859068D01*
Y00858931D02*
Y00828278D01*
X00859240Y00817076D01*
X00787416Y00878036D02*
X00786819Y00878633D01*
Y00896540D01*
X00707592Y00836529D02*
X00706919D01*
X00682122D01*
X00681306Y00836234D02*
Y00850763D01*
X00581208Y00936917D02*
X00579069D01*
Y00936917D01*
Y00936917D02*
X00578660D01*
X00579069D02*
Y00913351D01*
X00567236Y00901518D01*
Y00888712D01*
X00925040Y00947134D02*
X00935990D01*
X00937696Y00948840D01*
X00948766D01*
Y00954283D01*
X00955920Y00961436D01*
X00993857D01*
X01038741Y00916552D01*
Y00902522D01*
X01038691Y00876537D02*
X01050798Y00888644D01*
Y00943102D01*
X01041533Y00952367D01*
Y00993665D01*
Y01003801D01*
X01022190Y01023144D01*
Y01058152D01*
X01014698Y01065644D01*
X01000259D01*
X00951560Y00934974D02*
X00965200D01*
X00967766Y00932408D01*
Y00924840D01*
X00948766D02*
Y00932180D01*
X00951560Y00934974D01*
X00948766Y00924840D02*
Y00916161D01*
X00948529Y00915924D01*
Y00856360D01*
X00952718Y00852170D01*
Y00801143D01*
X01015081Y00850239D02*
X01026414D01*
X01027312Y00851137D01*
X01038691D01*
D19*
X00567236Y00837913D02*
D03*
X00579936D02*
D03*
Y00850612D02*
D03*
Y00863313D02*
D03*
X00567236D02*
D03*
Y00850612D02*
D03*
Y00876012D02*
D03*
Y00888712D02*
D03*
X00579936D02*
D03*
Y00876012D02*
D03*
X00578828Y00938048D02*
D03*
X00566128D02*
D03*
Y00950748D02*
D03*
X00578828D02*
D03*
Y00963448D02*
D03*
X00566128D02*
D03*
Y00976148D02*
D03*
X00578828D02*
D03*
Y00988848D02*
D03*
X00566128D02*
D03*
D20*
X00530178Y00798585D02*
D03*
X00530328Y01038753D02*
D03*
X01045179Y00798585D02*
D03*
Y01038585D02*
D03*
D21*
X01000699Y01052438D02*
D03*
Y01065138D02*
D03*
X00987999D02*
D03*
Y01052438D02*
D03*
X00975299D02*
D03*
Y01065138D02*
D03*
X00962599D02*
D03*
Y01052438D02*
D03*
X00949899D02*
D03*
Y01065138D02*
D03*
D22*
X00940719Y00801143D02*
D03*
X00990718D02*
D03*
D23*
X00930719Y00774143D02*
D03*
X01000718D02*
D03*
D24*
X01038691Y00851137D02*
D03*
D25*
X00703520Y00774079D02*
D03*
X00678120D02*
D03*
X00652719D02*
D03*
X00627319D02*
D03*
X00601920D02*
D03*
X01038691Y00876537D02*
D03*
Y00901937D02*
D03*
D26*
X00576520Y00774079D02*
D03*
D27*
X00712155Y00755473D02*
D03*
X00730000Y00777540D02*
D03*
X00741715Y00791639D02*
D03*
X00751795Y00801787D02*
D03*
X00785986Y00767120D02*
D03*
X00789432Y00789940D02*
D03*
X00808530Y00808053D02*
D03*
X00825353Y00837817D02*
D03*
X00851303Y00824536D02*
D03*
X00859240Y00817076D02*
D03*
X00865009Y00796350D02*
D03*
X00906131Y00766370D02*
D03*
X00939914Y00837749D02*
D03*
X00978941Y00817112D02*
D03*
X00963071Y00839929D02*
D03*
X00978055Y00882702D02*
D03*
X01040716Y00932558D02*
D03*
X01025868Y00946997D02*
D03*
X01003664Y00966885D02*
D03*
X00981869Y00948359D02*
D03*
X01005503Y00915122D02*
D03*
X01059514Y00878887D02*
D03*
X01016741Y00763918D02*
D03*
X01059514Y00762829D02*
D03*
X00931468Y00884336D02*
D03*
X00890875Y00832028D02*
D03*
X00871872Y00816703D02*
D03*
X00840882Y00783125D02*
D03*
X00841631Y00767528D02*
D03*
X00821131Y00755268D02*
D03*
X00775633Y00796952D02*
D03*
X00791911Y00831960D02*
D03*
X00811186Y00829780D02*
D03*
X00824740Y00855185D02*
D03*
X00850009Y00878683D02*
D03*
X00842518Y00888238D02*
D03*
X00873507Y00878547D02*
D03*
X00870924Y00868680D02*
D03*
X00850646Y00909320D02*
D03*
X00818574Y00909266D02*
D03*
X00888900Y00943796D02*
D03*
X00900410Y00916348D02*
D03*
X00917702Y00920242D02*
D03*
X00911580Y00944545D02*
D03*
X00888968Y00976421D02*
D03*
X00906949Y00993312D02*
D03*
X00931196Y01039081D02*
D03*
X00957895Y01004754D02*
D03*
X01003392Y01037447D02*
D03*
X01058697Y00994401D02*
D03*
X01056517Y01085396D02*
D03*
X00866628D02*
D03*
X00819700Y01018172D02*
D03*
X00804784Y01039354D02*
D03*
X00779311Y00985684D02*
D03*
X00742425Y00992146D02*
D03*
X00761535Y00967975D02*
D03*
X00761291Y00942903D02*
D03*
X00752067Y00916620D02*
D03*
X00781082Y00904224D02*
D03*
X00786819Y00896540D02*
D03*
X00776519Y00887537D02*
D03*
X00769656Y00854993D02*
D03*
X00751454Y00886788D02*
D03*
X00744220Y00855218D02*
D03*
X00750841Y00837341D02*
D03*
X00735585Y00819292D02*
D03*
X00719170Y00818406D02*
D03*
X00707199Y00846888D02*
D03*
X00692948Y00814864D02*
D03*
X00699759Y00791298D02*
D03*
X00681097Y00790481D02*
D03*
X00673469Y00808666D02*
D03*
X00640776Y00790345D02*
D03*
X00633897Y00836251D02*
D03*
X00595415Y00825217D02*
D03*
X00604269Y00790753D02*
D03*
X00552710Y00798722D02*
D03*
X00518315Y00760853D02*
D03*
X00557614Y00758606D02*
D03*
X00518723Y00840337D02*
D03*
X00518792Y00903066D02*
D03*
X00595892Y00990042D02*
D03*
X00634782Y00974513D02*
D03*
X00620139Y00929902D02*
D03*
X00633965Y00882497D02*
D03*
X00620343Y00864244D02*
D03*
X00661754Y00858523D02*
D03*
X00681658Y00850634D02*
D03*
X00675716Y00868875D02*
D03*
X00699827Y00903543D02*
D03*
X00714334Y00890602D02*
D03*
X00717944Y00925679D02*
D03*
X00735993Y00925338D02*
D03*
X00731498Y00962799D02*
D03*
X00722508Y00988135D02*
D03*
X00720124Y00997467D02*
D03*
X00681914Y01020556D02*
D03*
X00668292Y01036357D02*
D03*
X00640776Y01085124D02*
D03*
X00757380D02*
D03*
X00682187Y00941003D02*
D03*
X00698942Y00938756D02*
D03*
X00685728Y00892237D02*
D03*
X00664751Y00896324D02*
D03*
X00778510Y00920242D02*
D03*
Y00936244D02*
D03*
X00550939Y01051137D02*
D03*
X00516272Y01085396D02*
D03*
X00518519Y00979894D02*
D03*
M02*
