M48
;Layer_Color=9474304
;FILE_FORMAT=4:4
METRIC
;TYPE=PLATED
T1F00S00C0.2500
T2F00S00C0.6000
T4F00S00C0.8500
T5F00S00C0.9000
%
T01
X00821131Y00755268
X00841631Y00767528
X00840882Y00783125
X00906131Y00766370
X01016741Y00763918
X01059514Y00762829
X00785986Y00767120
X00789432Y00789940
X00741715Y00791639
X00730000Y00777540
X00712155Y00755473
X00699759Y00791298
X00681097Y00790481
X00640776Y00790345
X00604269Y00790753
X00557614Y00758606
X00518315Y00760853
X00552710Y00798722
X00595415Y00825217
X00633897Y00836251
X00620343Y00864244
X00633965Y00882497
X00664751Y00896324
X00685728Y00892237
X00699827Y00903543
X00714334Y00890602
X00717944Y00925679
X00735993Y00925338
X00752067Y00916620
X00778510Y00920242
Y00936244
X00761291Y00942903
X00761535Y00967975
X00731498Y00962799
X00722508Y00988135
X00720124Y00997467
X00742425Y00992146
X00779311Y00985684
X00781082Y00904224
X00786819Y00896540
X00776519Y00887537
X00751454Y00886788
X00744220Y00855218
X00750841Y00837341
X00735585Y00819292
X00719170Y00818406
X00692948Y00814864
X00673469Y00808666
X00681658Y00850634
X00675716Y00868875
X00661754Y00858523
X00707199Y00846888
X00769656Y00854993
X00791911Y00831960
X00775633Y00796952
X00751795Y00801787
X00698942Y00938756
X00682187Y00941003
X00620139Y00929902
X00634782Y00974513
X00595892Y00990042
X00518519Y00979894
X00518792Y00903066
X00518723Y00840337
X00550939Y01051137
X00516272Y01085396
X00640776Y01085124
X00668292Y01036357
X00681914Y01020556
X00757380Y01085124
X00804784Y01039354
X00819700Y01018172
X00818574Y00909266
X00850646Y00909320
X00842518Y00888238
X00850009Y00878683
X00873507Y00878547
X00870924Y00868680
X00871872Y00816703
X00859240Y00817076
X00851303Y00824536
X00825353Y00837817
X00824740Y00855185
X00811186Y00829780
X00808530Y00808053
X00865009Y00796350
X00890875Y00832028
X00939914Y00837749
X00963071Y00839929
X00978941Y00817112
X00978055Y00882702
X00931468Y00884336
X00917702Y00920242
X00900410Y00916348
X00888900Y00943796
X00911580Y00944545
X00906949Y00993312
X00888968Y00976421
X00957895Y01004754
X00931196Y01039081
X01003392Y01037447
X01003664Y00966885
X00981869Y00948359
X01025868Y00946997
X01040716Y00932558
X01005503Y00915122
X01059514Y00878887
X01058697Y00994401
X01056517Y01085396
X00866628
T02
X00567236Y00837913
Y00850612
Y00863313
Y00876012
Y00888712
X00579936
Y00876012
Y00863313
Y00850612
Y00837913
X00578828Y00938048
X00566128
Y00950748
X00578828
Y00963448
X00566128
Y00976148
X00578828
Y00988848
X00566128
X00949899Y01052438
X00962599
X00975299
X00987999
X01000699
Y01065138
X00987999
X00975299
X00962599
X00949899
T04
X00940719Y00801143
X00990718
T05
X00576520Y00774079
X00601920
X00627319
X00652719
X00678120
X00703520
X01038691Y00851137
Y00876537
Y00901937
M30
