G04 Layer_Color=8388736*
%FSAX44Y44*%
%MOMM*%
G71*
G01*
G75*
%ADD10R,0.6000X1.0000*%
%ADD11R,1.0000X0.6000*%
%ADD12O,1.3500X0.5500*%
%ADD13O,0.5500X1.3500*%
%ADD14R,0.5500X1.1000*%
%ADD15R,1.2000X1.1000*%
%ADD16R,0.4000X1.3000*%
%ADD19R,1.0000X1.0000*%
%ADD20C,1.5240*%
%ADD21R,1.0000X1.0000*%
%ADD22C,1.4500*%
%ADD23O,1.0000X1.5000*%
%ADD24R,1.5000X1.5000*%
%ADD25C,1.5000*%
%ADD26R,1.5000X1.5000*%
%ADD27C,0.5000*%
D10*
X00767725Y00811323D02*
D03*
X00782725D02*
D03*
X00782043Y00835229D02*
D03*
X00767043D02*
D03*
X00825209Y00872145D02*
D03*
X00855246Y00859068D02*
D03*
X00870246D02*
D03*
X00840209Y00872145D02*
D03*
X00889198Y00894927D02*
D03*
X00904198D02*
D03*
X00945150Y00906540D02*
D03*
X00960150D02*
D03*
X01000082Y00850239D02*
D03*
X01015081D02*
D03*
X00904368Y00966340D02*
D03*
X00889368D02*
D03*
X00820730Y01005435D02*
D03*
X00805730D02*
D03*
X00727812Y00912930D02*
D03*
X00727336Y00889785D02*
D03*
X00742335D02*
D03*
X00742812Y00912930D02*
D03*
X00787068Y00878206D02*
D03*
X00802068D02*
D03*
X01026533Y00993665D02*
D03*
X01041533D02*
D03*
D11*
X00706920Y00820785D02*
D03*
Y00835785D02*
D03*
X00681306Y00836234D02*
D03*
Y00821234D02*
D03*
X00767596Y00915182D02*
D03*
Y00930182D02*
D03*
X00749207Y00952318D02*
D03*
Y00937318D02*
D03*
X00850418Y01010536D02*
D03*
Y01025536D02*
D03*
X00912397Y01009310D02*
D03*
Y01024310D02*
D03*
X00925040Y00947134D02*
D03*
Y00932135D02*
D03*
X00891427Y00930415D02*
D03*
Y00915415D02*
D03*
X00992268Y00915211D02*
D03*
Y00930211D02*
D03*
X01025959Y00956355D02*
D03*
Y00971355D02*
D03*
D12*
X00872075Y00912246D02*
D03*
Y00920246D02*
D03*
Y00928246D02*
D03*
Y00936246D02*
D03*
Y00944246D02*
D03*
Y00952246D02*
D03*
Y00960246D02*
D03*
Y00968246D02*
D03*
X00789074D02*
D03*
Y00960246D02*
D03*
Y00952246D02*
D03*
Y00944246D02*
D03*
Y00936246D02*
D03*
Y00928246D02*
D03*
Y00920246D02*
D03*
Y00912246D02*
D03*
D13*
X00842574Y00898746D02*
D03*
X00850574D02*
D03*
X00858574D02*
D03*
X00834574D02*
D03*
X00826574D02*
D03*
X00818574D02*
D03*
X00810574D02*
D03*
X00802574D02*
D03*
X00842574Y00981746D02*
D03*
X00850574D02*
D03*
X00858574D02*
D03*
X00834574D02*
D03*
X00826574D02*
D03*
X00818574D02*
D03*
X00810574D02*
D03*
X00802574D02*
D03*
D14*
X00948766Y00924840D02*
D03*
X00958266D02*
D03*
X00967766D02*
D03*
Y00948840D02*
D03*
X00948766D02*
D03*
D15*
X00893552Y01006475D02*
D03*
Y01024255D02*
D03*
X00869672Y01024284D02*
D03*
Y01006475D02*
D03*
D16*
X00952718Y00801143D02*
D03*
X00959218D02*
D03*
X00965718D02*
D03*
X00972218D02*
D03*
X00978718D02*
D03*
D19*
X00567236Y00837913D02*
D03*
X00579936D02*
D03*
Y00850612D02*
D03*
Y00863313D02*
D03*
X00567236D02*
D03*
Y00850612D02*
D03*
Y00876012D02*
D03*
Y00888712D02*
D03*
X00579936D02*
D03*
Y00876012D02*
D03*
X00578828Y00938048D02*
D03*
X00566128D02*
D03*
Y00950748D02*
D03*
X00578828D02*
D03*
Y00963448D02*
D03*
X00566128D02*
D03*
Y00976148D02*
D03*
X00578828D02*
D03*
Y00988848D02*
D03*
X00566128D02*
D03*
D20*
X00530178Y00798585D02*
D03*
X00530328Y01038753D02*
D03*
X01045179Y00798585D02*
D03*
Y01038585D02*
D03*
D21*
X01000699Y01052438D02*
D03*
Y01065138D02*
D03*
X00987999D02*
D03*
Y01052438D02*
D03*
X00975299D02*
D03*
Y01065138D02*
D03*
X00962599D02*
D03*
Y01052438D02*
D03*
X00949899D02*
D03*
Y01065138D02*
D03*
D22*
X00940719Y00801143D02*
D03*
X00990718D02*
D03*
D23*
X00930719Y00774143D02*
D03*
X01000718D02*
D03*
D24*
X01038691Y00851137D02*
D03*
D25*
X00703520Y00774079D02*
D03*
X00678120D02*
D03*
X00652719D02*
D03*
X00627319D02*
D03*
X00601920D02*
D03*
X01038691Y00876537D02*
D03*
Y00901937D02*
D03*
D26*
X00576520Y00774079D02*
D03*
D27*
X00712155Y00755473D02*
D03*
X00730000Y00777540D02*
D03*
X00741715Y00791639D02*
D03*
X00751795Y00801787D02*
D03*
X00785986Y00767120D02*
D03*
X00789432Y00789940D02*
D03*
X00808530Y00808053D02*
D03*
X00825353Y00837817D02*
D03*
X00851303Y00824536D02*
D03*
X00859240Y00817076D02*
D03*
X00865009Y00796350D02*
D03*
X00906131Y00766370D02*
D03*
X00939914Y00837749D02*
D03*
X00978941Y00817112D02*
D03*
X00963071Y00839929D02*
D03*
X00978055Y00882702D02*
D03*
X01040716Y00932558D02*
D03*
X01025868Y00946997D02*
D03*
X01003664Y00966885D02*
D03*
X00981869Y00948359D02*
D03*
X01005503Y00915122D02*
D03*
X01059514Y00878887D02*
D03*
X01016741Y00763918D02*
D03*
X01059514Y00762829D02*
D03*
X00931468Y00884336D02*
D03*
X00890875Y00832028D02*
D03*
X00871872Y00816703D02*
D03*
X00840882Y00783125D02*
D03*
X00841631Y00767528D02*
D03*
X00821131Y00755268D02*
D03*
X00775633Y00796952D02*
D03*
X00791911Y00831960D02*
D03*
X00811186Y00829780D02*
D03*
X00824740Y00855185D02*
D03*
X00850009Y00878683D02*
D03*
X00842518Y00888238D02*
D03*
X00873507Y00878547D02*
D03*
X00870924Y00868680D02*
D03*
X00850646Y00909320D02*
D03*
X00818574Y00909266D02*
D03*
X00888900Y00943796D02*
D03*
X00900410Y00916348D02*
D03*
X00917702Y00920242D02*
D03*
X00911580Y00944545D02*
D03*
X00888968Y00976421D02*
D03*
X00906949Y00993312D02*
D03*
X00931196Y01039081D02*
D03*
X00957895Y01004754D02*
D03*
X01003392Y01037447D02*
D03*
X01058697Y00994401D02*
D03*
X01056517Y01085396D02*
D03*
X00866628D02*
D03*
X00819700Y01018172D02*
D03*
X00804784Y01039354D02*
D03*
X00779311Y00985684D02*
D03*
X00742425Y00992146D02*
D03*
X00761535Y00967975D02*
D03*
X00761291Y00942903D02*
D03*
X00752067Y00916620D02*
D03*
X00781082Y00904224D02*
D03*
X00786819Y00896540D02*
D03*
X00776519Y00887537D02*
D03*
X00769656Y00854993D02*
D03*
X00751454Y00886788D02*
D03*
X00744220Y00855218D02*
D03*
X00750841Y00837341D02*
D03*
X00735585Y00819292D02*
D03*
X00719170Y00818406D02*
D03*
X00707199Y00846888D02*
D03*
X00692948Y00814864D02*
D03*
X00699759Y00791298D02*
D03*
X00681097Y00790481D02*
D03*
X00673469Y00808666D02*
D03*
X00640776Y00790345D02*
D03*
X00633897Y00836251D02*
D03*
X00595415Y00825217D02*
D03*
X00604269Y00790753D02*
D03*
X00552710Y00798722D02*
D03*
X00518315Y00760853D02*
D03*
X00557614Y00758606D02*
D03*
X00518723Y00840337D02*
D03*
X00518792Y00903066D02*
D03*
X00595892Y00990042D02*
D03*
X00634782Y00974513D02*
D03*
X00620139Y00929902D02*
D03*
X00633965Y00882497D02*
D03*
X00620343Y00864244D02*
D03*
X00661754Y00858523D02*
D03*
X00681658Y00850634D02*
D03*
X00675716Y00868875D02*
D03*
X00699827Y00903543D02*
D03*
X00714334Y00890602D02*
D03*
X00717944Y00925679D02*
D03*
X00735993Y00925338D02*
D03*
X00731498Y00962799D02*
D03*
X00722508Y00988135D02*
D03*
X00720124Y00997467D02*
D03*
X00681914Y01020556D02*
D03*
X00668292Y01036357D02*
D03*
X00640776Y01085124D02*
D03*
X00757380D02*
D03*
X00682187Y00941003D02*
D03*
X00698942Y00938756D02*
D03*
X00685728Y00892237D02*
D03*
X00664751Y00896324D02*
D03*
X00778510Y00920242D02*
D03*
Y00936244D02*
D03*
X00550939Y01051137D02*
D03*
X00516272Y01085396D02*
D03*
X00518519Y00979894D02*
D03*
M02*
